<?xml version="1.0" encoding="UTF-8"?>
<!DOCTYPE svg PUBLIC "-//W3C//DTD SVG 1.1//EN" "http://www.w3.org/Graphics/SVG/1.1/DTD/svg11.dtd">
<!-- Creator: CorelDRAW 2019 (64-Bit) -->
<svg xmlns="http://www.w3.org/2000/svg" xml:space="preserve" width="3.3866mm" height="3.0294mm" version="1.1" style="shape-rendering:geometricPrecision; text-rendering:geometricPrecision; image-rendering:optimizeQuality; fill-rule:evenodd; clip-rule:evenodd"
viewBox="0 0 438.79 392.51"
 xmlns:xlink="http://www.w3.org/1999/xlink">
 <defs>
  <style type="text/css">
   <![CDATA[
    .fil1 {fill:#0022C4}
    .fil0 {fill:#0023C4}
    .fil3 {fill:#C4E0F1}
    .fil2 {fill:#FF5CF3}
   ]]>
  </style>
 </defs>
 <g id="Layer_x0020_1">
  <metadata id="CorelCorpID_0Corel-Layer"/>
  <g id="_2789103184576">
   <path class="fil0" d="M72.86 358.24c-6.48,0 -22.05,0.84 -27.21,-1.06 -5.78,-2.12 -11.32,-8.06 -11.32,-16.09 -0.01,-21.35 25.85,-17.14 38.53,-17.14l0 34.3zm365.93 -19.84l0 6.59c-0.43,6.69 -2.11,13.25 -5.2,19.19 -1,1.93 -3.1,5.43 -4.59,7.41 -1.15,1.52 -1.5,1.74 -2.71,3.29 -7.18,9.3 -23.13,17.62 -34.65,17.62l-344.52 0c-8.55,0 -19.77,-4.87 -26.21,-9.77 -1.55,-1.19 -1.76,-1.62 -3.2,-2.81 -13.98,-11.65 -17.72,-25.11 -17.72,-43.12 0,-8.67 4.72,-19.49 9.78,-26.21 1.17,-1.54 1.5,-1.76 2.71,-3.3l5.62 -5.52c8.02,-6.34 17.7,-12.1 29.02,-12.1l344.52 0c10.78,0 24.95,7.35 32.37,14.76 8.81,8.81 13.99,21.3 14.77,33.97z"/>
   <path class="fil0" d="M34.28 97.69l0 147.41c0,6.28 8.29,14.58 14.58,14.58 6.17,0 11.87,-0.01 16.79,-7.2 3.74,-5.45 2.92,-8.41 2.92,-16.79l0 -117.41c0,-23.94 1.45,-43.57 17.34,-60.65 12.87,-13.81 29.1,-23.33 55.51,-23.33l155.97 0c29.62,0 50.61,13.11 63.07,33.76 2.73,4.53 4.21,8.27 6.02,13.68 3.86,11.54 3.74,20.78 3.74,35.68l0 117.41c0,8.58 -0.96,11.54 2.58,17.13 9.46,14.91 31.7,6.18 31.7,-6.85l0 -147.41c0,-49.81 -47.78,-97.69 -97.69,-97.69l-174.84 0c-20.78,0 -38.78,8.38 -54.16,18.67 -7.49,5.01 -19.47,16.91 -24.51,24.35 -10.48,15.44 -19.02,33.78 -19.02,54.68z"/>
   <path class="fil1" d="M203.11 113.98c0,-15.77 20.29,-26.96 33.48,-13.77 18.18,18.18 -9.35,45.72 -27.53,27.55 -2.75,-2.75 -5.95,-8.51 -5.95,-13.77zm-34.27 -3.42l0 6.85c0,25.43 25.12,50.56 50.56,50.56l6.85 0c25.43,0 50.57,-25.12 50.57,-50.56l0 -6.85c0,-25.45 -25.14,-50.57 -50.57,-50.57l-6.85 0c-25.43,0 -50.56,25.12 -50.56,50.57z"/>
   <path class="fil2" d="M148.26 240.81l0 4.29c0,13.64 23.54,21.64 32.03,6.32 3.68,-6.65 3.78,-18.06 19.25,-26.17 10.49,-5.51 30.14,-5.67 40.85,-0.3 25.64,12.88 10.09,34.72 37.28,34.72 6.28,0 14.56,-8.29 14.56,-14.58 0,-9.81 -2.85,-16.73 -8.06,-25.36 -7.86,-13.05 -17.62,-20.69 -31.06,-27.22 -17.72,-8.6 -47.93,-7.62 -65.69,0.05 -9.48,4.09 -10.6,5.9 -17.74,11.39 -9.13,7.04 -21.43,26.64 -21.43,36.85z"/>
   <path class="fil3" d="M72.86 358.24c-1.23,-5.27 -4.3,-9.83 -4.3,-17.15 0,-7.31 3.07,-11.87 4.3,-17.14 -12.68,0 -38.55,-4.21 -38.53,17.14 0,8.03 5.55,13.97 11.32,16.09 5.16,1.9 20.73,1.06 27.21,1.06z"/>
  </g>
 </g>
</svg>
