<?xml version="1.0" encoding="UTF-8"?>
<!DOCTYPE svg PUBLIC "-//W3C//DTD SVG 1.1//EN" "http://www.w3.org/Graphics/SVG/1.1/DTD/svg11.dtd">
<!-- Creator: CorelDRAW 2019 (64-Bit) -->
<svg xmlns="http://www.w3.org/2000/svg" xml:space="preserve" width="20px" height="18px" version="1.1" style="shape-rendering:geometricPrecision; text-rendering:geometricPrecision; image-rendering:optimizeQuality; fill-rule:evenodd; clip-rule:evenodd"
viewBox="0 0 6.219 5.563"
 xmlns:xlink="http://www.w3.org/1999/xlink">
 <defs>
  <style type="text/css">
   <![CDATA[
    .fil0 {fill:#FEFEFE}
   ]]>
  </style>
 </defs>
 <g id="Layer_x0020_1">
  <metadata id="CorelCorpID_0Corel-Layer"/>
  <path class="fil0" d="M0.486 1.385l0 2.089c0,0.089 0.117,0.207 0.207,0.207 0.087,0 0.168,-0.001 0.238,-0.103 0.053,-0.077 0.041,-0.119 0.041,-0.238l0 -1.664c0,-0.339 0.02,-0.617 0.246,-0.859 0.182,-0.196 0.412,-0.331 0.786,-0.331l2.211 0c0.42,0 0.717,0.186 0.894,0.479 0.039,0.064 0.06,0.117 0.085,0.193 0.055,0.164 0.053,0.295 0.053,0.506l0 1.664c0,0.122 -0.013,0.164 0.037,0.243 0.134,0.212 0.449,0.088 0.449,-0.097l0 -2.089c0,-0.706 -0.677,-1.385 -1.384,-1.385l-2.478 0c-0.295,0 -0.55,0.119 -0.768,0.265 -0.106,0.071 -0.276,0.239 -0.347,0.345 -0.149,0.219 -0.27,0.478 -0.27,0.775z"/>
  <path class="fil0" d="M2.879 1.616c0,-0.224 0.287,-0.383 0.474,-0.196 0.258,0.258 -0.132,0.648 -0.39,0.391 -0.039,-0.039 -0.084,-0.121 -0.084,-0.195zm-0.486 -0.049l0 0.097c0,0.361 0.356,0.717 0.717,0.717l0.097 0c0.36,0 0.717,-0.356 0.717,-0.717l0 -0.097c0,-0.361 -0.357,-0.717 -0.717,-0.717l-0.097 0c-0.361,0 -0.717,0.356 -0.717,0.717z"/>
  <path class="fil0" d="M2.101 3.413l0 0.061c0,0.193 0.334,0.307 0.454,0.09 0.053,-0.095 0.054,-0.256 0.273,-0.371 0.149,-0.078 0.427,-0.081 0.579,-0.005 0.364,0.183 0.143,0.493 0.529,0.493 0.089,0 0.206,-0.118 0.206,-0.207 0,-0.139 -0.04,-0.237 -0.114,-0.359 -0.112,-0.185 -0.25,-0.294 -0.44,-0.386 -0.252,-0.122 -0.68,-0.108 -0.931,0.001 -0.135,0.058 -0.151,0.083 -0.252,0.161 -0.129,0.1 -0.304,0.378 -0.304,0.522z"/>
  <g>
   <path class="fil0" d="M6.219 4.796l0 0.094c-0.006,0.095 -0.03,0.188 -0.073,0.272 -0.014,0.027 -0.044,0.077 -0.065,0.105 -0.017,0.021 -0.022,0.025 -0.039,0.047 -0.101,0.131 -0.328,0.249 -0.491,0.249l-4.883 0c-0.121,0 -0.28,-0.069 -0.371,-0.138 -0.022,-0.017 -0.025,-0.023 -0.046,-0.04 -0.198,-0.165 -0.251,-0.356 -0.251,-0.611 0,-0.123 0.067,-0.276 0.139,-0.372 0.016,-0.022 0.021,-0.025 0.038,-0.047l0.08 -0.078c0.113,-0.09 0.251,-0.171 0.411,-0.171l4.883 0c0.153,0 0.354,0.104 0.459,0.209 0.125,0.125 0.198,0.302 0.209,0.481zm-0.367 0.088l0 -0.084c-0.004,-0.042 -0.015,-0.084 -0.032,-0.122 -0.016,-0.038 -0.04,-0.074 -0.07,-0.103 -0.027,-0.027 -0.069,-0.056 -0.116,-0.077 -0.033,-0.015 -0.064,-0.025 -0.083,-0.025l-4.883 0c-0.022,0 -0.046,0.007 -0.07,0.018 -0.034,0.015 -0.069,0.039 -0.102,0.064l-0.045 0.045 -0.01 0.011 0 0 -0.016 0.019c-0.016,0.024 -0.032,0.054 -0.044,0.087 -0.008,0.022 -0.014,0.043 -0.014,0.057 0,0.087 0.007,0.158 0.027,0.21 0.016,0.042 0.045,0.081 0.091,0.12l0.012 0.008 0.019 0.018 0.005 0.006c0.022,0.016 0.054,0.032 0.09,0.046 0.023,0.008 0.044,0.014 0.057,0.014l4.883 0c0.023,0 0.06,-0.013 0.1,-0.033l0 -0.001c0.046,-0.023 0.084,-0.05 0.101,-0.072l0.008 -0.009 0.019 -0.023 0.008 -0.01 -0.001 -0.001 0.016 -0.022 0 0 0.018 -0.029 0 -0.003c0.009,-0.018 0.017,-0.037 0.022,-0.056 0.004,-0.018 0.008,-0.036 0.01,-0.053zm-5.334 0.25c0.001,0.001 0.002,0.001 0.002,0.002 0,-0.001 -0.001,-0.001 -0.001,-0.002l-0.001 0zm0.004 0.003c0.001,0.002 0.001,0.001 0,0l0 0z"/>
  </g>
 </g>
</svg>
