<?xml version="1.0" encoding="UTF-8"?>
<!DOCTYPE svg PUBLIC "-//W3C//DTD SVG 1.1//EN" "http://www.w3.org/Graphics/SVG/1.1/DTD/svg11.dtd">
<!-- Creator: CorelDRAW 2019 (64-Bit) -->
<svg xmlns="http://www.w3.org/2000/svg" xml:space="preserve" width="36px" height="29px" version="1.1" style="shape-rendering:geometricPrecision; text-rendering:geometricPrecision; image-rendering:optimizeQuality; fill-rule:evenodd; clip-rule:evenodd"
viewBox="0 0 34.19 27.61"
 xmlns:xlink="http://www.w3.org/1999/xlink">
 <defs>
  <style type="text/css">
   <![CDATA[
    .fil2 {fill:#D4641A}
    .fil1 {fill:#F5511E}
    .fil0 {fill:#FFB200}
   ]]>
  </style>
 </defs>
 <g id="Layer_x0020_1">
  <metadata id="CorelCorpID_0Corel-Layer"/>
  <g id="_2789380421120">
   <path class="fil0" d="M7.63 17.57c0.71,1.22 -0.83,4.52 2.75,5.28 1.2,0.26 9.65,0.1 12.04,0.09 2.96,0 1.91,-0.48 5.36,2.98 2.96,2.97 2.39,2.03 2.44,-2.94 3.09,-0.24 3.98,-1.18 3.97,-4.42 -0.02,-2.78 -0.01,-5.57 -0.01,-8.35 0,-7.97 -1.95,-5.64 -10.71,-6.03 -2.67,-0.04 -12.77,-0.56 -14.27,0.57 -1.73,1.29 -1.42,3.34 -1.42,5.86 0,1.5 0.27,5.97 -0.15,6.96z"/>
   <path class="fil1" d="M7.63 17.57c0.42,-0.99 0.15,-5.46 0.15,-6.96 0,-2.52 -0.31,-4.57 1.42,-5.86 1.5,-1.13 11.6,-0.61 14.27,-0.57 -0.25,-4.93 -2.2,-4.13 -7.61,-4.13 -3.97,0 -7.95,-0.01 -11.93,-0.01 -4.92,0.01 -3.83,3.68 -3.83,7.98 0,5 -1.04,8.58 3.48,8.61l0.06 4.16c1.25,-0.01 2.68,-1.87 3.99,-3.22z"/>
   <path class="fil2" d="M20.47 12.14c-1.96,0.87 -0.84,3.45 0.99,2.88 1.88,-0.58 1.06,-3.79 -0.99,-2.88z"/>
   <path class="fil2" d="M13.36 12.17c-2.01,1.02 -0.79,3.47 1.11,2.83 1.97,-0.67 0.61,-3.7 -1.11,-2.83z"/>
   <path class="fil2" d="M27.58 12.12c-1.98,0.71 -0.86,3.54 1.01,2.88 1.85,-0.66 1.01,-3.62 -1.01,-2.88z"/>
  </g>
 </g>
</svg>
