<svg xmlns="http://www.w3.org/2000/svg" xmlns:xlink="http://www.w3.org/1999/xlink" width="123" height="140" viewBox="0 0 123 140">
  <defs>
    <filter id="Path_48" x="0" y="0" width="123" height="140" filterUnits="userSpaceOnUse">
      <feOffset dy="3" input="SourceAlpha"/>
      <feGaussianBlur stdDeviation="3" result="blur"/>
      <feFlood flood-opacity="0.161"/>
      <feComposite operator="in" in2="blur"/>
      <feComposite in="SourceGraphic"/>
    </filter>
  </defs>
  <g transform="matrix(1, 0, 0, 1, 0, 0)" filter="url(#Path_48)">
    <g id="Path_48-2" data-name="Path 48" transform="translate(9 6)" fill="#e74078">
      <path d="M 80 121 L 25 121 C 21.75958251953125 121 18.61661720275879 120.3655853271484 15.65841674804688 119.1143646240234 C 12.80063343048096 117.905632019043 10.23388290405273 116.1750030517578 8.029433250427246 113.9705657958984 C 5.824999809265137 111.76611328125 4.094366550445557 109.1993637084961 2.885633230209351 106.3415832519531 C 1.634416699409485 103.3833847045898 1 100.2404174804688 1 97 L 1 25 C 1 21.75958251953125 1.634416699409485 18.61661720275879 2.885633230209351 15.65841674804688 C 4.094366550445557 12.80063343048096 5.824999809265137 10.23388290405273 8.029433250427246 8.029433250427246 C 10.23388290405273 5.824999809265137 12.80063343048096 4.094366550445557 15.65841674804688 2.885633230209351 C 18.61661720275879 1.634416699409485 21.75958251953125 1 25 1 L 80 1 C 83.24041748046875 1 86.38338470458984 1.634416699409485 89.34158325195313 2.885633230209351 C 92.19936370849609 4.094366550445557 94.76611328125 5.824999809265137 96.97056579589844 8.029433250427246 C 99.17500305175781 10.23388290405273 100.905632019043 12.80063343048096 102.1143646240234 15.65841674804688 C 103.3655853271484 18.61661720275879 104 21.75958251953125 104 25 L 104 97 C 104 100.2404174804688 103.3655853271484 103.3833847045898 102.1143646240234 106.3415832519531 C 100.905632019043 109.1993637084961 99.17500305175781 111.76611328125 96.97056579589844 113.9705657958984 C 94.76611328125 116.1750030517578 92.19936370849609 117.905632019043 89.34158325195313 119.1143646240234 C 86.38338470458984 120.3655853271484 83.24041748046875 121 80 121 Z" stroke="none"/>
      <path d="M 25 2 C 21.89413452148438 2 18.88224792480469 2.607833862304688 16.04798126220703 3.806632995605469 C 13.30937957763672 4.964950561523438 10.84946441650391 6.623619079589844 8.736549377441406 8.736549377441406 C 6.623619079589844 10.84946441650391 4.964950561523438 13.30937957763672 3.806632995605469 16.04798126220703 C 2.607833862304688 18.88224792480469 2 21.89413452148438 2 25 L 2 97 C 2 100.1058654785156 2.607833862304688 103.1177520751953 3.806632995605469 105.952018737793 C 4.964950561523438 108.6906127929688 6.623619079589844 111.1505355834961 8.736549377441406 113.2634506225586 C 10.84946441650391 115.3763809204102 13.30937957763672 117.0350494384766 16.04798126220703 118.1933670043945 C 18.88224792480469 119.3921661376953 21.89413452148438 120 25 120 L 80 120 C 83.10586547851563 120 86.11775207519531 119.3921661376953 88.95201873779297 118.1933670043945 C 91.69061279296875 117.0350494384766 94.15053558349609 115.3763809204102 96.26345062255859 113.2634506225586 C 98.37638092041016 111.1505355834961 100.0350494384766 108.6906127929688 101.1933670043945 105.952018737793 C 102.3921661376953 103.1177520751953 103 100.1058654785156 103 97 L 103 25 C 103 21.89413452148438 102.3921661376953 18.88224792480469 101.1933670043945 16.04798126220703 C 100.0350494384766 13.30937957763672 98.37638092041016 10.84946441650391 96.26345062255859 8.736549377441406 C 94.15053558349609 6.623619079589844 91.69061279296875 4.964950561523438 88.95201873779297 3.806632995605469 C 86.11775207519531 2.607833862304688 83.10586547851563 2 80 2 L 25 2 M 25 0 L 80 0 C 93.80711364746094 0 105 11.19288635253906 105 25 L 105 97 C 105 110.8071136474609 93.80711364746094 122 80 122 L 25 122 C 11.19288635253906 122 0 110.8071136474609 0 97 L 0 25 C 0 11.19288635253906 11.19288635253906 0 25 0 Z" stroke="none" fill="#fff"/>
    </g>
  </g>
</svg>
