<svg xmlns="http://www.w3.org/2000/svg" xmlns:xlink="http://www.w3.org/1999/xlink" width="40" height="50" viewBox="0 0 40 50">
  <defs>
    <filter id="Path_8" x="0" y="0" width="40" height="50" filterUnits="userSpaceOnUse">
      <feOffset dy="3" input="SourceAlpha"/>
      <feGaussianBlur stdDeviation="3" result="blur"/>
      <feFlood flood-opacity="0.161"/>
      <feComposite operator="in" in2="blur"/>
      <feComposite in="SourceGraphic"/>
    </filter>
  </defs>
  <g transform="matrix(1, 0, 0, 1, 0, 0)" filter="url(#Path_8)">
    <g id="Path_8-2" data-name="Path 8" transform="translate(9 6)" fill="#fff">
      <path d="M 11 31.5 C 5.210279941558838 31.5 0.5 26.78972053527832 0.5 21 L 0.5 11 C 0.5 5.210279941558838 5.210279941558838 0.5 11 0.5 C 16.78972053527832 0.5 21.5 5.210279941558838 21.5 11 L 21.5 21 C 21.5 26.78972053527832 16.78972053527832 31.5 11 31.5 Z" stroke="none"/>
      <path d="M 11 1 C 5.485979080200195 1 1 5.485979080200195 1 11 L 1 21 C 1 26.51401901245117 5.485979080200195 31 11 31 C 16.51401901245117 31 21 26.51401901245117 21 21 L 21 11 C 21 5.485979080200195 16.51401901245117 1 11 1 M 11 0 C 17.07513046264648 0 22 4.924869537353516 22 11 L 22 21 C 22 27.07513046264648 17.07513046264648 32 11 32 C 4.924869537353516 32 0 27.07513046264648 0 21 L 0 11 C 0 4.924869537353516 4.924869537353516 0 11 0 Z" stroke="none" fill="#74ecf2"/>
    </g>
  </g>
</svg>
