<svg xmlns="http://www.w3.org/2000/svg" xmlns:xlink="http://www.w3.org/1999/xlink" width="150" height="64" viewBox="0 0 150 64">
  <defs>
    <filter id="Rectangle_64" x="0" y="0" width="150" height="51" filterUnits="userSpaceOnUse">
      <feOffset dy="3" input="SourceAlpha"/>
      <feGaussianBlur stdDeviation="3" result="blur"/>
      <feFlood flood-opacity="0.161"/>
      <feComposite operator="in" in2="blur"/>
      <feComposite in="SourceGraphic"/>
    </filter>
    <filter id="Rectangle_65" x="0" y="0" width="50" height="51" filterUnits="userSpaceOnUse">
      <feOffset dy="3" input="SourceAlpha"/>
      <feGaussianBlur stdDeviation="3" result="blur-2"/>
      <feFlood flood-opacity="0.161"/>
      <feComposite operator="in" in2="blur-2"/>
      <feComposite in="SourceGraphic"/>
    </filter>
    <filter id="Rectangle_66" x="100" y="0" width="50" height="51" filterUnits="userSpaceOnUse">
      <feOffset dy="3" input="SourceAlpha"/>
      <feGaussianBlur stdDeviation="3" result="blur-3"/>
      <feFlood flood-opacity="0.161"/>
      <feComposite operator="in" in2="blur-3"/>
      <feComposite in="SourceGraphic"/>
    </filter>
    <filter id="Ellipse_36" x="60" y="28" width="35" height="36" filterUnits="userSpaceOnUse">
      <feOffset dy="3" input="SourceAlpha"/>
      <feGaussianBlur stdDeviation="3" result="blur-4"/>
      <feFlood flood-opacity="0.161"/>
      <feComposite operator="in" in2="blur-4"/>
      <feComposite in="SourceGraphic"/>
    </filter>
  </defs>
  <g id="Group_648" data-name="Group 648" transform="translate(-315.5 -299)">
    <g id="Group_647" data-name="Group 647">
      <g transform="matrix(1, 0, 0, 1, 315.5, 299)" filter="url(#Rectangle_64)">
        <g id="Rectangle_64-2" data-name="Rectangle 64" transform="translate(9 6)" fill="#74ecf2" stroke="#fff" stroke-width="2">
          <rect width="132" height="33" rx="16.5" stroke="none"/>
          <rect x="1" y="1" width="130" height="31" rx="15.5" fill="none"/>
        </g>
      </g>
      <g transform="matrix(1, 0, 0, 1, 315.5, 299)" filter="url(#Rectangle_65)">
        <g id="Rectangle_65-2" data-name="Rectangle 65" transform="translate(9 6)" fill="#fff" stroke="#fff" stroke-width="2">
          <path d="M16.5,0H32a0,0,0,0,1,0,0V33a0,0,0,0,1,0,0H16.5A16.5,16.5,0,0,1,0,16.5v0A16.5,16.5,0,0,1,16.5,0Z" stroke="none"/>
          <path d="M16.5,1H30.3a.7.7,0,0,1,.7.7V31.3a.7.7,0,0,1-.7.7H16.5A15.5,15.5,0,0,1,1,16.5v0A15.5,15.5,0,0,1,16.5,1Z" fill="none"/>
        </g>
      </g>
      <g transform="matrix(1, 0, 0, 1, 315.5, 299)" filter="url(#Rectangle_66)">
        <g id="Rectangle_66-2" data-name="Rectangle 66" transform="translate(109 6)" fill="#fff" stroke="#fff" stroke-width="2">
          <path d="M0,0H15.5A16.5,16.5,0,0,1,32,16.5v0A16.5,16.5,0,0,1,15.5,33H0a0,0,0,0,1,0,0V0A0,0,0,0,1,0,0Z" stroke="none"/>
          <path d="M1.7,1H15.5A15.5,15.5,0,0,1,31,16.5v0A15.5,15.5,0,0,1,15.5,32H1.7a.7.7,0,0,1-.7-.7V1.7A.7.7,0,0,1,1.7,1Z" fill="none"/>
        </g>
      </g>
    </g>
    <g id="Group_646" data-name="Group 646">
      <g transform="matrix(1, 0, 0, 1, 315.5, 299)" filter="url(#Ellipse_36)">
        <g id="Ellipse_36-2" data-name="Ellipse 36" transform="translate(69 34)" fill="#74ecf2" stroke="#fff" stroke-width="2">
          <ellipse cx="8.5" cy="9" rx="8.5" ry="9" stroke="none"/>
          <ellipse cx="8.5" cy="9" rx="7.5" ry="8" fill="none"/>
        </g>
      </g>
      <circle id="Ellipse_35" data-name="Ellipse 35" cx="8.5" cy="8.5" r="8.5" transform="translate(384.5 333)" fill="#74ecf2"/>
    </g>
  </g>
</svg>
