<?xml version="1.0" encoding="UTF-8"?>
<!DOCTYPE svg PUBLIC "-//W3C//DTD SVG 1.1//EN" "http://www.w3.org/Graphics/SVG/1.1/DTD/svg11.dtd">
<!-- Creator: CorelDRAW 2019 (64-Bit) -->
<svg xmlns="http://www.w3.org/2000/svg" xml:space="preserve" width="11px" height="11px" version="1.1" style="shape-rendering:geometricPrecision; text-rendering:geometricPrecision; image-rendering:optimizeQuality; fill-rule:evenodd; clip-rule:evenodd"
viewBox="0 0 11.05 10.95"
 xmlns:xlink="http://www.w3.org/1999/xlink">
 <defs>
  <style type="text/css">
   <![CDATA[
    .fil0 {fill:black;fill-rule:nonzero}
   ]]>
  </style>
 </defs>
 <g id="Layer_x0020_1">
  <metadata id="CorelCorpID_0Corel-Layer"/>
  <g id="_2789205339328">
   <g>
    <path class="fil0" d="M9.66 3.96l-2.54 -2.61 0.53 -0.51 2.54 2.6 -0.01 0.52 -0.52 0zm0.53 -0.52c0.14,0.15 0.14,0.38 -0.01,0.52 -0.14,0.15 -0.38,0.14 -0.52,0l0.53 -0.52zm-6.67 6l6.15 -6.01 0.51 0.53 -6.14 6.01 -0.53 0 0.01 -0.53zm0.52 0.53c-0.15,0.14 -0.38,0.14 -0.53,0 -0.14,-0.15 -0.13,-0.38 0.01,-0.53l0.52 0.53zm-2.54 -3.12l2.54 2.6 -0.53 0.52 -2.54 -2.61 0.01 -0.52 0.52 0.01zm-0.53 0.51c-0.14,-0.14 -0.14,-0.38 0.01,-0.52 0.14,-0.14 0.38,-0.14 0.52,0.01l-0.53 0.51zm6.67 -6l-6.15 6.01 -0.51 -0.53 6.15 -6.01 0.52 0.01 -0.01 0.52zm-0.51 -0.53c0.14,-0.14 0.38,-0.14 0.52,0.01 0.14,0.14 0.14,0.38 -0.01,0.52l-0.51 -0.53z"/>
   </g>
   <g>
    <path class="fil0" d="M3.32 9.76l-2.15 -2.19 0.53 -0.52 2.14 2.2 -0.03 0.54 -0.49 -0.03zm0.52 -0.51c0.15,0.14 0.14,0.38 0,0.52 -0.15,0.14 -0.38,0.14 -0.52,-0.01l0.52 -0.51zm-1.8 1.05l1.3 -1.08 0.47 0.57 -1.3 1.08 -0.28 0.08 -0.19 -0.65zm0.47 0.57c-0.16,0.13 -0.39,0.11 -0.52,-0.05 -0.13,-0.16 -0.11,-0.39 0.05,-0.52l0.47 0.57zm-2.03 -0.86l1.84 0.21 -0.09 0.73 -1.83 -0.21 -0.33 -0.35 0.41 -0.38zm-0.08 0.73c-0.2,-0.02 -0.35,-0.21 -0.33,-0.41 0.03,-0.2 0.21,-0.35 0.41,-0.32l-0.08 0.73zm0.34 -2.12l0.07 1.74 -0.74 0.03 -0.07 -1.74 0.08 -0.24 0.66 0.21zm-0.74 0.03c-0.01,-0.2 0.15,-0.37 0.35,-0.38 0.21,-0.01 0.38,0.15 0.39,0.35l-0.74 0.03zm1.72 -1.11l-1.06 1.33 -0.58 -0.46 1.07 -1.33 0.55 -0.03 0.02 0.49zm-0.57 -0.46c0.12,-0.16 0.36,-0.19 0.52,-0.06 0.15,0.13 0.18,0.36 0.05,0.52l-0.57 -0.46z"/>
   </g>
   <g>
    <path class="fil0" d="M10.22 2.48l-1.61 -1.65 0.52 -0.52 1.62 1.66 -0.53 0.52 0 -0.01zm0.51 0.94l-0.51 -0.52 0 0 0.01 -0.01 0.01 -0.01 0.01 -0.02 0.01 -0.01 0 -0.01 0.01 -0.01 0 -0.01 0.01 -0.02 0.01 -0.01 0 -0.01 0.01 -0.02 0 -0.01 0 -0.02 0 -0.01 0.01 -0.01 0 -0.01 0 -0.02 -0.01 -0.02 0 -0.01 0 -0.01 0 -0.02 -0.01 -0.02 0 -0.01 -0.01 -0.01 0 -0.01 0 -0.01 -0.01 -0.02 -0.01 -0.01 -0.01 -0.01 -0.01 -0.01 -0.01 -0.01 -0.01 -0.01 0.53 -0.52 0.04 0.04 0.03 0.03 0.03 0.05 0.03 0.04 0.03 0.04 0.02 0.04 0.03 0.05 0.02 0.05 0.01 0.05 0.02 0.05 0.01 0.04 0.01 0.05 0.01 0.05 0 0.05 0 0.05 0.01 0.05 -0.01 0.05 0 0.05 -0.01 0.05 -0.01 0.05 -0.01 0.04 -0.01 0.05 -0.02 0.05 -0.01 0.05 -0.02 0.04 -0.03 0.05 -0.02 0.04 -0.03 0.05 -0.03 0.04 -0.03 0.04 -0.04 0.04 -0.04 0.03 0 0zm-1.06 0.01l0.55 -0.53 0.51 0.52 -0.55 0.54 -0.52 0 0.01 -0.53zm0.51 0.53c-0.14,0.15 -0.38,0.14 -0.52,0 -0.14,-0.15 -0.14,-0.38 0.01,-0.53l0.51 0.53zm-2.53 -3.12l2.54 2.6 -0.53 0.52 -2.54 -2.61 0.01 -0.52 0.52 0.01zm-0.53 0.51c-0.14,-0.14 -0.14,-0.38 0.01,-0.52 0.14,-0.14 0.38,-0.14 0.52,0.01l-0.53 0.51zm1.07 -0.53l-0.55 0.54 -0.51 -0.53 0.55 -0.54 0 0 0.51 0.53zm0.94 -0.51l-0.52 0.52 0 0 -0.02 -0.01 0 -0.01 -0.02 -0.01 -0.01 -0.01 -0.01 -0.01 -0.01 0 -0.01 -0.01 -0.02 -0.01 -0.01 0 -0.01 0 -0.02 -0.01 -0.02 0 -0.01 -0.01 -0.01 0 -0.01 0 -0.02 0 -0.01 0 -0.02 0 -0.01 0 -0.01 0 -0.02 0.01 -0.02 0 -0.01 0.01 -0.01 0 -0.01 0.01 -0.01 0 -0.02 0.01 -0.01 0.01 -0.01 0.01 -0.01 0 -0.02 0.01 -0.01 0.01 -0.51 -0.53 0.03 -0.03 0.04 -0.03 0.05 -0.04 0.04 -0.03 0.04 -0.02 0.04 -0.03 0.05 -0.02 0.05 -0.02 0.05 -0.01 0.05 -0.02 0.04 -0.01 0.05 -0.01 0.05 -0.01 0.05 -0.01 0.05 0 0.04 0 0.06 0 0.05 0.01 0.05 0 0.05 0.01 0.04 0.01 0.05 0.02 0.05 0.01 0.05 0.02 0.04 0.02 0.05 0.02 0.04 0.03 0.05 0.03 0.04 0.03 0.03 0.03 0.05 0.03 0.03 0.04 0 0z"/>
   </g>
  </g>
 </g>
</svg>
