<svg xmlns="http://www.w3.org/2000/svg" xmlns:xlink="http://www.w3.org/1999/xlink" width="128" height="57" viewBox="0 0 128 57">
  <defs>
    <filter id="Rectangle_79" x="0" y="0" width="128" height="57" filterUnits="userSpaceOnUse">
      <feOffset dy="-2" input="SourceAlpha"/>
      <feGaussianBlur stdDeviation="3" result="blur"/>
      <feFlood flood-opacity="0.161"/>
      <feComposite operator="in" in2="blur"/>
      <feComposite in="SourceGraphic"/>
    </filter>
  </defs>
  <g id="Group_293" data-name="Group 293" transform="translate(-73 -11)">
    <g transform="matrix(1, 0, 0, 1, 73, 11)" filter="url(#Rectangle_79)">
      <g id="Rectangle_79-2" data-name="Rectangle 79" transform="translate(9 11)" fill="#fff" stroke="#7ad9df" stroke-width="3">
        <path d="M12,0H98a12,12,0,0,1,12,12V39a0,0,0,0,1,0,0H1a1,1,0,0,1-1-1V12A12,12,0,0,1,12,0Z" stroke="none"/>
        <path d="M12,1.5H98A10.5,10.5,0,0,1,108.5,12V36a1.5,1.5,0,0,1-1.5,1.5H2a.5.5,0,0,1-.5-.5V12A10.5,10.5,0,0,1,12,1.5Z" fill="none"/>
      </g>
    </g>
    <path id="Rectangle_80" data-name="Rectangle 80" d="M12,0H92a12,12,0,0,1,12,12V39a0,0,0,0,1,0,0H1a1,1,0,0,1-1-1V12A12,12,0,0,1,12,0Z" transform="translate(85 24)" fill="#fff"/>
  </g>
</svg>
