<?xml version="1.0" encoding="UTF-8"?>
<!DOCTYPE svg PUBLIC "-//W3C//DTD SVG 1.1//EN" "http://www.w3.org/Graphics/SVG/1.1/DTD/svg11.dtd">
<!-- Creator: CorelDRAW 2019 (64-Bit) -->
<svg xmlns="http://www.w3.org/2000/svg" xml:space="preserve" width="16px" height="16px" version="1.1" style="shape-rendering:geometricPrecision; text-rendering:geometricPrecision; image-rendering:optimizeQuality; fill-rule:evenodd; clip-rule:evenodd"
viewBox="0 0 15.22 14.44"
 xmlns:xlink="http://www.w3.org/1999/xlink">
 <defs>
  <style type="text/css">
   <![CDATA[
    .fil1 {fill:#5B5B5B}
    .fil0 {fill:#5B5B5B;fill-rule:nonzero}
   ]]>
  </style>
 </defs>
 <g id="Layer_x0020_1">
  <metadata id="CorelCorpID_0Corel-Layer"/>
  <g id="_2557498897744">
   <g>
    <path class="fil0" d="M0 6.98l3.02 0 -1.51 2.75 -1.51 -2.75zm8 -6.98l0 1.46 0 0 -0.3 0.01 -0.29 0.02 -0.29 0.04 -0.28 0.05 -0.28 0.07 -0.27 0.07 -0.27 0.09 -0.26 0.11 -0.26 0.11 -0.24 0.13 -0.24 0.14 -0.24 0.15 -0.22 0.16 -0.22 0.17 -0.21 0.18 -0.2 0.19 -0.19 0.2 -0.18 0.21 -0.17 0.22 -0.16 0.22 -0.15 0.24 -0.14 0.24 -0.13 0.25 -0.11 0.25 -0.11 0.26 -0.09 0.27 -0.07 0.27 -0.07 0.28 -0.05 0.28 -0.04 0.29 -0.02 0.29 -0.01 0.3 -1.46 0 0.01 -0.37 0.03 -0.37 0.04 -0.36 0.07 -0.35 0.08 -0.35 0.09 -0.35 0.12 -0.33 0.13 -0.33 0.14 -0.32 0.16 -0.31 0.17 -0.3 0.19 -0.3 0.2 -0.28 0.22 -0.27 0.22 -0.27 0.24 -0.25 0.25 -0.23 0.27 -0.23 0.27 -0.21 0.28 -0.21 0.3 -0.19 0.3 -0.17 0.31 -0.16 0.32 -0.14 0.33 -0.13 0.33 -0.12 0.35 -0.09 0.34 -0.08 0.36 -0.07 0.36 -0.04 0.37 -0.03 0.37 -0.01 0 0zm7.22 7.22l-1.46 0 0 0 -0.01 -0.3 -0.02 -0.29 -0.04 -0.29 -0.05 -0.28 -0.07 -0.28 -0.07 -0.27 -0.09 -0.27 -0.11 -0.26 -0.11 -0.25 -0.13 -0.25 -0.14 -0.24 -0.15 -0.24 -0.16 -0.22 -0.17 -0.22 -0.18 -0.21 -0.19 -0.2 -0.2 -0.19 -0.21 -0.18 -0.22 -0.17 -0.22 -0.16 -0.24 -0.15 -0.24 -0.14 -0.24 -0.13 -0.26 -0.11 -0.26 -0.11 -0.27 -0.09 -0.27 -0.07 -0.28 -0.07 -0.28 -0.05 -0.29 -0.04 -0.29 -0.02 -0.3 -0.01 0 -1.46 0.37 0.01 0.37 0.03 0.36 0.04 0.36 0.07 0.34 0.08 0.35 0.09 0.33 0.12 0.33 0.13 0.32 0.14 0.31 0.16 0.3 0.17 0.3 0.19 0.28 0.21 0.27 0.21 0.27 0.23 0.25 0.23 0.24 0.25 0.22 0.27 0.22 0.27 0.2 0.28 0.19 0.3 0.17 0.3 0.16 0.31 0.14 0.32 0.13 0.33 0.12 0.33 0.09 0.35 0.08 0.35 0.07 0.35 0.04 0.36 0.03 0.37 0.01 0.37 0 0zm-11.53 5.79l0.87 -1.17 0.36 0.25 0.36 0.21 0.37 0.18 0.38 0.16 0.38 0.12 0.38 0.1 0.39 0.06 0.39 0.04 0.39 0.02 0.38 -0.02 0.39 -0.04 0.38 -0.06 0.37 -0.09 0.37 -0.11 0.36 -0.14 0.35 -0.16 0.34 -0.18 0.33 -0.2 0.31 -0.22 0.3 -0.25 0.28 -0.26 0.26 -0.28 0.24 -0.31 0.23 -0.31 0.2 -0.34 0.18 -0.35 0.15 -0.37 0.13 -0.38 0.11 -0.4 0.07 -0.41 0.05 -0.43 0.02 -0.45 1.46 0 -0.02 0.55 -0.06 0.54 -0.09 0.52 -0.13 0.5 -0.17 0.48 -0.19 0.47 -0.23 0.44 -0.25 0.43 -0.29 0.4 -0.3 0.38 -0.34 0.35 -0.35 0.33 -0.37 0.31 -0.39 0.28 -0.41 0.25 -0.42 0.23 -0.44 0.19 -0.45 0.17 -0.45 0.15 -0.47 0.11 -0.48 0.08 -0.48 0.05 -0.48 0.01 -0.49 -0.02 -0.49 -0.05 -0.49 -0.08 -0.48 -0.12 -0.49 -0.16 -0.47 -0.19 -0.46 -0.23 -0.46 -0.27 -0.44 -0.31z"/>
   </g>
   <rect class="fil1" x="7.13" y="3.08" width="1.3" height="4.83" rx="0.65" ry="0.45"/>
   <rect class="fil1" transform="matrix(0.00154471 0.428544 -0.320942 0.00431399 12.1548 6.60405)" width="2.9" height="15.57" rx="1.45" ry="1.45"/>
  </g>
 </g>
</svg>
