<svg xmlns="http://www.w3.org/2000/svg" xmlns:xlink="http://www.w3.org/1999/xlink" width="51" height="51" viewBox="0 0 51 51">
  <defs>
    <filter id="Path_46" x="0" y="0" width="51" height="51" filterUnits="userSpaceOnUse">
      <feOffset dy="3" input="SourceAlpha"/>
      <feGaussianBlur stdDeviation="3" result="blur"/>
      <feFlood flood-opacity="0.161"/>
      <feComposite operator="in" in2="blur"/>
      <feComposite in="SourceGraphic"/>
    </filter>
  </defs>
  <g transform="matrix(1, 0, 0, 1, 0, 0)" filter="url(#Path_46)">
    <g id="Path_46-2" data-name="Path 46" transform="translate(9 6)" fill="#f5427b">
      <path d="M 16.5 32 C 12.35980033874512 32 8.467410087585449 30.38772010803223 5.539840221405029 27.46015930175781 C 2.612279891967773 24.53259086608887 1 20.64019966125488 1 16.5 C 1 12.35980033874512 2.612279891967773 8.467410087585449 5.539840221405029 5.539840221405029 C 8.467410087585449 2.612279891967773 12.35980033874512 1 16.5 1 C 20.64019966125488 1 24.53259086608887 2.612279891967773 27.46015930175781 5.539840221405029 C 30.38772010803223 8.467410087585449 32 12.35980033874512 32 16.5 C 32 20.64019966125488 30.38772010803223 24.53259086608887 27.46015930175781 27.46015930175781 C 24.53259086608887 30.38772010803223 20.64019966125488 32 16.5 32 Z" stroke="none"/>
      <path d="M 16.5 2 C 12.62690925598145 2 8.985639572143555 3.508260726928711 6.246950149536133 6.246950149536133 C 3.508260726928711 8.985639572143555 2 12.62690925598145 2 16.5 C 2 20.37308883666992 3.508260726928711 24.01436042785645 6.246950149536133 26.75304985046387 C 8.985639572143555 29.49173927307129 12.62690925598145 31 16.5 31 C 20.37308883666992 31 24.01436042785645 29.49173927307129 26.75304985046387 26.75304985046387 C 29.49173927307129 24.01436042785645 31 20.37308883666992 31 16.5 C 31 12.62690925598145 29.49173927307129 8.985639572143555 26.75304985046387 6.246950149536133 C 24.01436042785645 3.508260726928711 20.37308883666992 2 16.5 2 M 16.5 0 C 25.61269950866699 0 33 7.387300491333008 33 16.5 C 33 25.61269950866699 25.61269950866699 33 16.5 33 C 7.387300491333008 33 0 25.61269950866699 0 16.5 C 0 7.387300491333008 7.387300491333008 0 16.5 0 Z" stroke="none" fill="#fff"/>
    </g>
  </g>
</svg>
