<?xml version="1.0" encoding="UTF-8"?>
<!DOCTYPE svg PUBLIC "-//W3C//DTD SVG 1.1//EN" "http://www.w3.org/Graphics/SVG/1.1/DTD/svg11.dtd">
<!-- Creator: CorelDRAW 2019 (64-Bit) -->
<svg xmlns="http://www.w3.org/2000/svg" xml:space="preserve" width="24px" height="27px" version="1.1" style="shape-rendering:geometricPrecision; text-rendering:geometricPrecision; image-rendering:optimizeQuality; fill-rule:evenodd; clip-rule:evenodd"
viewBox="0 0 15.722 17.579"
 xmlns:xlink="http://www.w3.org/1999/xlink">
 <defs>
  <style type="text/css">
   <![CDATA[
    .fil3 {fill:#EA556F}
    .fil1 {fill:#00A0E3}
    .fil0 {fill:#008DD2}
    .fil2 {fill:#07354A}
    .fil4 {fill:#5FC9ED}
    .fil5 {fill:#81D8FE}
    .fil6 {fill:#FECBAA}
   ]]>
  </style>
 </defs>
 <g id="Layer_x0020_1">
  <metadata id="CorelCorpID_0Corel-Layer"/>
  <g id="_2789096789024">
   <path class="fil0" d="M10.308 12.291l-0.588 0c-0.262,0 -1.23,-0.03 -1.436,0.037 -0.533,0.171 -0.448,0.569 -0.448,1.062 0,0.282 -0.027,0.737 0.013,0.996l-0.006 2.653 -3.351 -0.002 -3.362 0.008 3.341 0.027c1.114,-0.031 2.256,0.035 3.365,-0.009 0.805,-0.033 6.5,0.064 6.688,-0.033 0.054,-0.673 0.007,-3.772 0.007,-4.704 0,-0.424 0.07,-1.969 -0.094,-2.24 -0.211,-0.347 -0.526,-0.301 -0.868,-0.301 -0.336,0 -0.892,-0.032 -1.201,0.013l-0.549 0.002c-0.264,-0.044 -0.475,0.138 -0.571,0.307 -0.12,0.212 -0.082,0.5 -0.082,0.811 0,0.595 0,1.19 0,1.786l-0.128 -0.181c-0.191,-0.223 -0.403,-0.232 -0.73,-0.232z"/>
   <path class="fil1" d="M4.49 14.489l0.002 2.548 3.351 0.002 0.006 -2.653 -0.158 -0.199c-0.06,-0.066 -0.124,-0.13 -0.207,-0.17 -0.164,-0.08 -0.458,-0.038 -0.678,-0.047l-0.721 -0.007c-0.762,0.096 -1.441,-0.231 -1.595,0.526z"/>
   <path class="fil2" d="M14.524 17.03c-0.188,0.097 -5.883,0 -6.688,0.033 -1.109,0.044 -2.251,-0.022 -3.365,0.009l-3.341 -0.027c-0.266,-0.054 -0.932,-0.047 -1.06,0.081 -0.117,0.118 -0.077,0.333 0.047,0.413 0.028,0.018 0.15,0.032 0.33,0.04l2.651 0 11.982 0 0.407 0c0.052,-0.008 0.098,-0.022 0.131,-0.047 0.125,-0.094 0.142,-0.291 0.023,-0.41 -0.179,-0.179 -0.795,-0.092 -1.117,-0.092z"/>
   <path class="fil2" d="M7.458 9.162l-0.043 0.717c-0.027,0.195 -0.032,0.53 -0.055,0.735 -0.027,0.237 0.016,0.543 -0.03,0.726l-1.245 2.623 0.721 0.007 1.275 -1.708c0.134,-0.178 0.549,-0.699 0.614,-0.863 0.044,-0.111 0.236,-1.12 0.239,-1.27l0.309 -1.677 -1.785 0.71z"/>
   <path class="fil3" d="M12.35 2.781c0.453,0 2.992,0.054 3.177,-0.034 0.158,-0.159 -0.281,-0.436 -0.386,-0.542l-0.386 -0.335c-0.29,-0.223 -0.014,-0.278 0.333,-0.626l0.347 -0.305c0.197,-0.16 0.217,-0.293 -0.111,-0.29l-2.956 0.004 -0.281 0.001 -0.001 2.101 0.264 0.026z"/>
   <path class="fil1" d="M1.13 17.045l3.362 -0.008 -0.002 -2.548 -0.02 1.407c-0.081,-0.094 -0.124,-0.248 -0.32,-0.331 -0.308,-0.13 -1.497,-0.08 -1.911,-0.08 -1.455,-0.001 -1,0.545 -1.109,1.56z"/>
   <path class="fil4" d="M11.934 3.989c-0.215,0.717 -0.511,0.805 -1.082,1.156 -0.238,0.146 -1.252,0.728 -1.344,0.854 -0.193,0.268 -0.256,0.97 -0.651,1.545 -0.241,0.351 -0.71,0.833 -1.227,0.987 -0.05,0.166 -0.156,0.452 -0.172,0.631l1.785 -0.71 0.001 0 0.621 -1.891c0.089,-0.28 0.192,-0.27 0.591,-0.508l1.376 -0.834c0.089,-0.123 0.183,-0.154 0.296,-0.309 0.098,-0.135 0.142,-0.29 0.24,-0.417 0.023,-0.264 0.071,-0.465 0,-0.744l-0.434 0.24z"/>
   <path class="fil5" d="M11.819 4.024l-0.886 0.48c-0.109,0.066 -0.21,0.106 -0.314,0.167 -0.101,0.058 -0.167,0.097 -0.289,0.158 -0.204,0.103 -0.778,0.453 -0.949,0.493l-0.034 0.034 -0.035 0.036c-0.166,0.088 -0.349,0.224 -0.549,0.273 -0.047,0.04 0.021,-0.012 -0.057,0.047 -0.036,0.027 -0.053,0.036 -0.081,0.056 -0.402,0.289 -0.595,1.342 -0.774,1.972l-0.221 0.791c0.517,-0.154 0.986,-0.636 1.227,-0.987 0.395,-0.575 0.458,-1.277 0.651,-1.545 0.092,-0.126 1.106,-0.708 1.344,-0.854 0.571,-0.351 0.867,-0.439 1.082,-1.156l-0.115 0.035z"/>
   <path class="fil2" d="M8.934 10.129c0.731,0.386 0.56,0.334 0.681,1.482 0.014,0.128 0.026,0.252 0.035,0.343 0.02,0.21 -0.035,0.176 0.07,0.337l0.588 0c0.089,-0.178 0.146,-0.917 0.182,-1.191 0.023,-0.176 0.048,-0.401 0.079,-0.608 0.08,-0.553 -0.219,-0.736 -0.697,-1.301l-0.613 -0.722c-0.003,-0.004 -0.01,-0.012 -0.015,-0.017l-0.001 0 -0.309 1.677z"/>
   <path class="fil2" d="M11.832 5.219l-0.013 4.581 0.549 -0.002 0 -5.305c-0.098,0.127 -0.142,0.282 -0.24,0.417 -0.113,0.155 -0.207,0.186 -0.296,0.309z"/>
   <path class="fil6" d="M8.763 5.665c0.2,-0.049 0.383,-0.185 0.549,-0.273l0.035 -0.036 0.034 -0.034c0.106,-0.458 0.214,-0.273 -0.217,-1.088 -0.392,-0.739 -1.213,-0.278 -1.336,0.155 -0.077,0.268 0.246,0.835 0.399,1.057 0.05,0.071 0.126,0.13 0.207,0.17 0.103,0.05 0.187,0.049 0.329,0.049z"/>
   <path class="fil2" d="M11.819 4.024l0.115 -0.035 0.434 -0.24 -0.018 -0.968 -0.264 -0.026 0.001 -2.101 0.281 -0.001c0,-0.208 0.027,-0.463 -0.077,-0.576 -0.036,-0.04 -0.081,-0.065 -0.13,-0.077l-0.136 0c-0.074,0.018 -0.14,0.064 -0.174,0.135 -0.084,0.175 -0.032,3.532 -0.032,3.889z"/>
  </g>
 </g>
</svg>
