<?xml version="1.0" encoding="UTF-8"?>
<!DOCTYPE svg PUBLIC "-//W3C//DTD SVG 1.1//EN" "http://www.w3.org/Graphics/SVG/1.1/DTD/svg11.dtd">
<!-- Creator: CorelDRAW 2019 (64-Bit) -->
<svg xmlns="http://www.w3.org/2000/svg" xml:space="preserve" width="77.1738mm" height="80.4334mm" version="1.1" style="shape-rendering:geometricPrecision; text-rendering:geometricPrecision; image-rendering:optimizeQuality; fill-rule:evenodd; clip-rule:evenodd"
viewBox="0 0 7686.33 8010.97"
 xmlns:xlink="http://www.w3.org/1999/xlink">
 <defs>
  <style type="text/css">
   <![CDATA[
    .fil0 {fill:#FEFEFE}
   ]]>
  </style>
 </defs>
 <g id="Layer_x0020_1">
  <metadata id="CorelCorpID_0Corel-Layer"/>
  <g id="_1895876765312">
   <path class="fil0" d="M2005.39 6676.7l2675.54 1.02 1424.39 3.86c423.02,-10.87 686.91,-449.54 536.49,-803.59 -128.63,-302.76 -637.72,-511.58 -859.04,-1284.53 -50.66,-176.92 -100.46,-401.88 -100.46,-619.27 -247.76,-20.62 -667.16,-173.95 -876.24,-312.9 -363.11,-241.31 -532.38,-392.72 -773.1,-760.25 -364.25,-556.15 -438.56,-1280.92 -249.53,-1920.97 24.46,-82.84 77.68,-185.71 83.88,-260.35 -169.01,-3.75 -405.48,-100.19 -834.18,-36.2 -69.31,10.34 -95.63,13.97 -160.8,26.96 -281.05,55.95 -570.22,175.76 -798.2,328.34 -211.85,141.8 -178.18,135.75 -316.77,246.49 -44.01,35.18 -61.72,42.38 -98.6,89.16 -234.62,297.6 -427.51,485.53 -554.31,932.09 -140.18,493.7 -100.44,879.06 -100.44,1401.63 0,681.83 -148.47,1300.62 -637.35,1787.84 -111.1,110.71 -214.91,176.08 -279.59,283.68 -208.99,347.7 -31.45,823.32 422.13,895.43l1496.19 1.54z"/>
   <path class="fil0" d="M4336.71 1658.52c0,285.02 62.2,507.97 156.63,719.58 37.85,84.81 95.44,179.33 149.74,257.06 61.94,88.69 123.89,149.83 198.23,224.22 210.28,210.41 499.74,380.42 807.9,443.82 48.42,9.97 122.89,24.14 175.17,28.24 233.74,18.28 302.62,25.97 561.12,-30.94 108.96,-23.98 223.92,-63.93 314.06,-108.4 1218.45,-601.09 1298.75,-2118.85 294.96,-2877.09 -249.93,-188.79 -532.41,-289.6 -817.56,-315.02l-292.53 0c-804.29,70.63 -1547.72,716.1 -1547.72,1658.52z"/>
   <path class="fil0" d="M4680.93 6677.72l-2675.54 -1.02c0,455.19 201.46,800.79 471.58,1019.15 40.21,32.5 47.35,45.74 94.46,77.65 204.72,138.67 441.39,220.3 682.52,237.47l191.39 0c149.04,-10.71 297,-46.7 437.45,-109.7 163.11,-73.16 273.1,-156.1 399.68,-273.13 47.9,-44.28 112.01,-125.61 150.63,-177.94 153.38,-207.75 247.83,-487.97 247.83,-772.49z"/>
  </g>
 </g>
</svg>
