<?xml version="1.0" encoding="UTF-8"?>
<!DOCTYPE svg PUBLIC "-//W3C//DTD SVG 1.1//EN" "http://www.w3.org/Graphics/SVG/1.1/DTD/svg11.dtd">
<!-- Creator: CorelDRAW 2019 (64-Bit) -->
<svg xmlns="http://www.w3.org/2000/svg" xml:space="preserve" width="43px" height="45px" version="1.1" style="shape-rendering:geometricPrecision; text-rendering:geometricPrecision; image-rendering:optimizeQuality; fill-rule:evenodd; clip-rule:evenodd"
viewBox="0 0 43.54 45.31"
 xmlns:xlink="http://www.w3.org/1999/xlink">
 <defs>
  <style type="text/css">
   <![CDATA[
    .fil1 {fill:none}
    .fil10 {fill:#865151}
    .fil2 {fill:#9D5E5E}
    .fil9 {fill:#CB6C35}
    .fil11 {fill:#CC6D36}
    .fil5 {fill:#DA7E4A}
    .fil6 {fill:#EEE1DD}
    .fil8 {fill:#FED1A3}
    .fil7 {fill:#FFBC85}
    .fil3 {fill:#FFE5C1}
    .fil4 {fill:#FFF5F5}
    .fil0 {fill:#97D2D8;fill-rule:nonzero}
   ]]>
  </style>
 </defs>
 <g id="Layer_x0020_1">
  <metadata id="CorelCorpID_0Corel-Layer"/>
  <g id="_2788953588016">
   <path class="fil0" d="M6.15 38.7c-4.19,-4.31 -6.23,-9.91 -6.15,-15.48 0.09,-5.58 2.29,-11.12 6.61,-15.3 4.31,-4.19 9.91,-6.23 15.48,-6.15 5.58,0.08 11.12,2.29 15.3,6.6 4.19,4.32 6.23,9.92 6.15,15.49 -0.08,5.57 -2.29,11.11 -6.6,15.3 -4.32,4.19 -9.92,6.23 -15.49,6.15 -5.57,-0.09 -11.11,-2.29 -15.3,-6.61zm-4.49 -15.46c-0.08,5.14 1.81,10.32 5.68,14.31 3.87,3.98 8.98,6.03 14.13,6.1 5.15,0.08 10.33,-1.81 14.31,-5.68 3.99,-3.87 6.03,-8.99 6.1,-14.13 0.08,-5.15 -1.81,-10.32 -5.68,-14.31 -3.86,-3.99 -8.98,-6.03 -14.13,-6.1 -5.14,-0.08 -10.32,1.81 -14.31,5.68 -3.98,3.87 -6.03,8.98 -6.1,14.13z"/>
   <path class="fil1" d="M17.89 20.12c-0.31,-0.54 -0.86,-0.99 -1.3,-1.61 -0.44,-0.63 -0.77,-1.42 -0.94,-2.15 -0.16,-0.73 -0.16,-1.38 -0.02,-2.1 0.14,-0.71 0.41,-1.48 1.11,-2.23 0.69,-0.75 1.8,-1.48 2.63,-2.12 0.84,-0.64 1.4,-1.19 1.82,-1.7 0.43,-0.5 0.71,-0.95 0.99,-1.55 0.27,-0.59 0.53,-1.34 0.71,-1.89 0.19,-0.56 0.3,-0.92 0.44,-1.07 0.13,-0.15 0.29,-0.09 0.66,0.44 0.38,0.53 0.98,1.52 1.7,2.57 0.72,1.05 1.57,2.16 2.09,3.1 0.52,0.94 0.71,1.71 0.73,2.81 0.02,1.11 -0.14,2.55 -0.55,3.79 -0.42,1.24 -1.1,2.29 -1.58,2.86 -0.49,0.57 -0.8,0.67 -0.96,0.86 -0.17,0.19 -0.19,0.47 -0.18,0.91 0.01,0.44 0.07,1.03 0.16,1.36 0.1,0.34 0.23,0.43 1.81,1.07 1.57,0.64 4.57,1.83 6.6,2.99 2.03,1.15 3.09,2.26 3.67,3.39 0.59,1.14 0.7,2.31 0.75,3.56 0.05,1.24 0.05,2.57 -0.68,3.92 -0.73,1.36 -2.18,2.74 -4.6,4.09 -2.43,1.34 -5.84,2.65 -9.07,3.12 -3.24,0.48 -6.31,0.12 -9.16,-0.77 -2.84,-0.89 -5.47,-2.32 -7.04,-3.55 -1.58,-1.24 -2.12,-2.28 -2.42,-2.86 -0.31,-0.58 -0.38,-0.68 -0.37,-1.86 0,-1.17 0.08,-3.41 0.29,-4.75 0.21,-1.33 0.54,-1.77 1.17,-2.38 0.62,-0.62 1.53,-1.41 2.45,-1.91 0.92,-0.51 1.86,-0.71 3.1,-1.14 1.23,-0.43 2.78,-1.08 3.87,-1.52 1.09,-0.44 1.73,-0.68 2.08,-0.96 0.35,-0.28 0.41,-0.61 0.41,-1.09 0,-0.47 -0.06,-1.1 -0.37,-1.63z"/>
   <path class="fil1" d="M15.77 23.8c0.96,1.17 1.93,2.35 2.83,3.29 0.89,0.93 1.73,1.63 2.46,1.9 0.74,0.28 1.38,0.14 2.56,-0.9 1.19,-1.04 2.92,-2.98 4.65,-4.92"/>
   <path class="fil2" d="M10.42 22.94c0.48,0.86 1.03,1.61 1.6,2.33 1.07,-0.37 2.32,-0.89 3.33,-1.3 0.14,-0.06 0.28,-0.12 0.42,-0.17 1.09,-0.44 1.73,-0.68 2.08,-0.96 0.35,-0.28 0.41,-0.61 0.41,-1.09 0,-0.47 -0.06,-1.1 -0.37,-1.63 -0.31,-0.54 -0.86,-0.99 -1.3,-1.61 -0.44,-0.63 -0.77,-1.42 -0.94,-2.15 -0.16,-0.73 -0.16,-1.38 -0.02,-2.1 0.14,-0.71 0.41,-1.48 1.11,-2.23 0.69,-0.75 1.8,-1.48 2.63,-2.12 0.84,-0.64 1.4,-1.19 1.82,-1.7 0.43,-0.5 0.71,-0.95 0.99,-1.55 0.08,-0.18 0.17,-0.38 0.25,-0.59 0.13,-0.34 0.26,-0.7 0.37,-1.02 0.03,-0.09 0.07,-0.19 0.09,-0.28 0.19,-0.56 0.3,-0.92 0.44,-1.07 0.13,-0.15 0.29,-0.09 0.66,0.44 0.2,0.27 0.46,0.67 0.76,1.14 0.23,0.37 0.5,0.78 0.79,1.21 0.05,0.07 0.1,0.15 0.15,0.22 0.72,1.05 1.57,2.16 2.09,3.1 0.52,0.94 0.71,1.71 0.73,2.81 0.02,1.11 -0.14,2.55 -0.55,3.79 -0.42,1.24 -1.1,2.29 -1.58,2.86 -0.49,0.57 -0.8,0.67 -0.96,0.86 -0.17,0.19 -0.19,0.47 -0.18,0.91 0.01,0.44 0.07,1.03 0.16,1.36 0.1,0.34 0.23,0.43 1.81,1.07 0.18,0.07 0.37,0.15 0.59,0.24l0.26 0.11c1.04,0.42 2.36,0.97 3.63,1.56 0.42,-0.68 0.84,-1.37 1.26,-2.09 0.67,-1.17 1.35,-2.44 1.71,-3.68 0.37,-1.25 0.42,-2.48 0.09,-3.33 -0.33,-0.85 -1.04,-1.31 -1.38,-1.93 -0.34,-0.61 -0.3,-1.38 -0.66,-2.2 -0.37,-0.82 -1.13,-1.7 -1.58,-3.01 -0.07,-0.19 -0.13,-0.4 -0.18,-0.61 -0.11,-0.42 -0.2,-0.86 -0.28,-1.32 -0.16,-0.86 -0.29,-1.75 -0.49,-2.56 -0.35,-1.45 -0.93,-2.61 -1.87,-3.34 -0.94,-0.73 -2.25,-1.02 -3.8,-1.18 -1.55,-0.15 -3.35,-0.17 -4.81,-0.07 -1.46,0.1 -2.6,0.32 -3.61,0.89 -1.02,0.57 -1.93,1.5 -2.4,2.71 -0.38,0.96 -0.48,2.09 -0.54,3.02 -0.02,0.24 -0.03,0.47 -0.04,0.67 -0.01,0.18 -0.02,0.35 -0.04,0.5 -0.06,0.69 -0.16,1.12 -0.45,1.5 -0.35,0.47 -0.97,0.89 -1.34,1.48 -0.37,0.59 -0.49,1.35 -0.82,2.05 -0.33,0.7 -0.87,1.34 -1.22,2.28 -0.34,0.93 -0.5,2.16 -0.3,3.55 0.2,1.38 0.75,2.92 1.48,4.23z"/>
   <path class="fil3" d="M16.59 18.51c0.44,0.62 0.99,1.07 1.3,1.61 0.31,0.53 0.37,1.16 0.37,1.63 0,0.48 -0.06,0.81 -0.41,1.09 -0.35,0.28 -0.99,0.52 -2.08,0.96 0.96,1.17 1.93,2.35 2.83,3.29 0.89,0.93 1.73,1.63 2.46,1.9 0.74,0.28 1.38,0.14 2.56,-0.9 1.08,-0.94 2.61,-2.63 4.18,-4.38 -0.22,-0.09 -0.41,-0.17 -0.59,-0.24 -1.58,-0.64 -1.71,-0.73 -1.81,-1.07 -0.09,-0.33 -0.15,-0.92 -0.16,-1.36 -0.01,-0.44 0.01,-0.72 0.18,-0.91 0.16,-0.19 0.47,-0.29 0.96,-0.86 0.48,-0.57 1.16,-1.62 1.58,-2.86 0.41,-1.24 0.57,-2.68 0.55,-3.79 -0.02,-1.1 -0.21,-1.87 -0.73,-2.81 -0.52,-0.94 -1.37,-2.05 -2.09,-3.1 -0.05,-0.07 -0.1,-0.15 -0.15,-0.22 -0.29,-0.43 -0.56,-0.84 -0.79,-1.21 -0.3,-0.47 -0.56,-0.87 -0.76,-1.14 -0.37,-0.53 -0.53,-0.59 -0.66,-0.44 -0.14,0.15 -0.25,0.51 -0.44,1.07 -0.02,0.09 -0.06,0.18 -0.09,0.28 -0.11,0.32 -0.24,0.68 -0.37,1.02 -0.08,0.21 -0.17,0.41 -0.25,0.59 -0.28,0.6 -0.56,1.05 -0.99,1.55 -0.42,0.51 -0.98,1.06 -1.82,1.7 -0.83,0.64 -1.94,1.37 -2.63,2.12 -0.7,0.75 -0.97,1.52 -1.11,2.23 -0.14,0.72 -0.14,1.37 0.02,2.1 0.17,0.73 0.5,1.52 0.94,2.15z"/>
   <path class="fil4" d="M21.06 28.99c-0.73,-0.27 -1.57,-0.97 -2.46,-1.9 -0.9,-0.94 -1.87,-2.12 -2.83,-3.29 -0.14,0.05 -0.28,0.11 -0.42,0.17 0.86,3.82 1.7,7.59 2.42,10.99 0.81,3.82 1.46,7.16 1.96,9.15 0.02,0.1 0.05,0.19 0.07,0.28 0.68,0.06 1.37,0.09 2.06,0.09 0.63,0 1.26,-0.03 1.87,-0.08 0.15,-0.41 0.31,-0.88 0.46,-1.42 1.15,-3.92 2.51,-11.42 3.87,-19.16 -0.09,-0.04 -0.18,-0.08 -0.26,-0.11 -1.57,1.75 -3.1,3.44 -4.18,4.38 -1.18,1.04 -1.82,1.18 -2.56,0.9z"/>
   <path class="fil5" d="M28.06 23.82c-1.36,7.74 -2.72,15.24 -3.87,19.16 -0.15,0.54 -0.31,1.01 -0.46,1.42 0.96,-0.08 1.9,-0.22 2.82,-0.41 2.36,-0.64 4.64,-1.59 6.4,-2.57 0.63,-0.35 1.19,-0.7 1.69,-1.06 1.44,-1 2.37,-2.03 2.91,-3.03 0.14,-0.27 0.26,-0.54 0.35,-0.8 0.38,-1.08 0.37,-2.13 0.33,-3.12 -0.05,-1.25 -0.16,-2.42 -0.75,-3.56 -0.58,-1.13 -1.64,-2.24 -3.67,-3.39 -0.64,-0.37 -1.37,-0.73 -2.12,-1.08 -1.27,-0.59 -2.59,-1.14 -3.63,-1.56z"/>
   <path class="fil5" d="M17.77 34.96c-0.72,-3.4 -1.56,-7.17 -2.42,-10.99 -1.01,0.41 -2.26,0.93 -3.33,1.3 -0.04,0.02 -0.08,0.03 -0.12,0.05 -1.24,0.43 -2.18,0.63 -3.1,1.14 -0.92,0.5 -1.83,1.29 -2.45,1.91 -0.63,0.61 -0.96,1.05 -1.17,2.38 -0.21,1.34 -0.29,3.58 -0.29,4.75 -0.01,0.69 0.02,1.01 0.1,1.28 3.67,4.23 8.91,7.06 14.81,7.61 -0.02,-0.09 -0.05,-0.18 -0.07,-0.28 -0.5,-1.99 -1.15,-5.33 -1.96,-9.15z"/>
   <path class="fil1" d="M16.79 18.78c0.33,0.39 0.67,0.78 1,1.11 0.33,0.33 0.66,0.6 1.24,0.78 0.58,0.19 1.41,0.29 2.22,0.34 0.82,0.04 1.61,0.02 2.33,-0.15 0.71,-0.18 1.33,-0.51 1.79,-0.8 0.45,-0.29 0.73,-0.54 1.01,-0.79"/>
   <path class="fil6" d="M15.35 23.97c0.86,3.82 1.7,7.59 2.42,10.99 0.81,3.82 1.46,7.16 1.96,9.15 0.02,0.1 0.05,0.19 0.07,0.28 0.68,0.06 1.37,0.09 2.06,0.09 0.63,0 1.26,-0.03 1.87,-0.08 0.15,-0.41 0.31,-0.88 0.46,-1.42 0.03,-0.07 0.05,-0.15 0.07,-0.22 -0.1,-0.23 -0.21,-0.46 -0.31,-0.7 -1.09,-2.49 -2.43,-5.91 -3.12,-8.59 -0.49,-1.94 -0.65,-3.5 -0.63,-4.95 -0.5,-0.35 -1.04,-0.85 -1.6,-1.43 -0.9,-0.94 -1.87,-2.12 -2.83,-3.29 -0.14,0.05 -0.28,0.11 -0.42,0.17z"/>
   <path class="fil7" d="M15.77 23.8c0.96,1.17 1.93,2.35 2.83,3.29 0.56,0.58 1.1,1.08 1.6,1.43 0.01,-0.55 0.04,-1.08 0.09,-1.62 0.18,-1.95 0.57,-3.92 0.45,-5.25 -0.02,-0.25 -0.06,-0.48 -0.12,-0.69 -0.6,-0.05 -1.16,-0.15 -1.59,-0.29 -0.58,-0.18 -0.91,-0.45 -1.24,-0.78 -0.08,-0.07 -0.15,-0.15 -0.22,-0.22 0.12,0.14 0.23,0.29 0.32,0.45 0.31,0.53 0.37,1.16 0.37,1.63 0,0.48 -0.06,0.81 -0.41,1.09 -0.35,0.28 -0.99,0.52 -2.08,0.96z"/>
   <path class="fil8" d="M15.65 16.36c0.17,0.73 0.5,1.52 0.94,2.15 0.06,0.09 0.13,0.18 0.2,0.27 0.08,0.09 0.16,0.18 0.23,0.27 0.19,0.21 0.38,0.41 0.55,0.62 0.07,0.07 0.14,0.15 0.22,0.22 0.33,0.33 0.66,0.6 1.24,0.78 0.43,0.14 0.99,0.24 1.59,0.29 -0.24,-0.89 -0.74,-1.46 -1.19,-2.07 -0.56,-0.76 -1.05,-1.59 -1.33,-2.41 -0.27,-0.82 -0.34,-1.64 -0.19,-2.66 0.16,-1.03 0.53,-2.26 0.91,-3.5 -0.73,0.54 -1.54,1.12 -2.08,1.71 -0.7,0.75 -0.97,1.52 -1.11,2.23 -0.14,0.72 -0.14,1.37 0.02,2.1z"/>
   <path class="fil9" d="M10.33 25.83c-0.55,0.17 -1.04,0.36 -1.53,0.63 -0.92,0.5 -1.83,1.29 -2.45,1.91 -0.63,0.61 -0.96,1.05 -1.17,2.38 -0.21,1.34 -0.29,3.58 -0.29,4.75 -0.01,0.69 0.02,1.01 0.1,1.28 0.65,0.75 1.36,1.46 2.1,2.12 0.01,-1.11 0.01,-2.22 0.02,-3.31 0.02,-1.99 0.05,-3.93 0.59,-5.55 0.54,-1.62 1.58,-2.92 2.63,-4.21z"/>
   <path class="fil10" d="M16.24 7.68c0.53,-1.25 0.91,-3.05 1.74,-4.45 0.77,-1.31 1.93,-2.28 3.11,-3.23 -0.48,0.01 -0.95,0.03 -1.39,0.06 -1.46,0.1 -2.6,0.32 -3.61,0.89 -1.02,0.57 -1.93,1.5 -2.4,2.71 -0.38,0.96 -0.48,2.09 -0.54,3.02 -0.02,0.24 -0.03,0.47 -0.04,0.67 -0.01,0.14 -0.02,0.28 -0.03,0.4l-0.01 0.1c-0.06,0.69 -0.16,1.12 -0.45,1.5 -0.35,0.47 -0.97,0.89 -1.34,1.48 -0.37,0.59 -0.49,1.35 -0.82,2.05 -0.33,0.7 -0.87,1.34 -1.22,2.28 -0.34,0.93 -0.5,2.16 -0.3,3.55 0.2,1.38 0.75,2.92 1.48,4.23 0.48,0.86 1.03,1.61 1.6,2.33 0.71,-0.25 1.5,-0.56 2.24,-0.86 0.01,-1.08 -0.05,-2.13 -0.33,-3.08 -0.41,-1.46 -1.31,-2.71 -1.54,-3.66 -0.22,-0.95 0.23,-1.61 0.61,-2.28 0.38,-0.68 0.69,-1.37 0.9,-2.22 0.21,-0.85 0.31,-1.85 0.71,-2.7 0.38,-0.82 1.05,-1.5 1.58,-2.67l0.05 -0.12z"/>
   <g>
    <path class="fil11" d="M9.38 30.94l1.01 0 0 10.19c-0.34,-0.23 -0.68,-0.46 -1.01,-0.7l0 -9.49z"/>
    <path class="fil11" d="M33.02 30.94l1.01 0 0 9.58c-0.33,0.24 -0.67,0.47 -1.01,0.69l0 -10.27z"/>
   </g>
   <path class="fil0" d="M37.39 8.37c4.19,4.32 6.23,9.92 6.15,15.49 -0.08,5.57 -2.29,11.11 -6.6,15.3 -4.32,4.19 -9.92,6.23 -15.49,6.15 -5.57,-0.09 -11.11,-2.29 -15.3,-6.61 -4.19,-4.31 -6.23,-9.91 -6.15,-15.48 0.09,-5.58 2.29,-11.12 6.61,-15.3l1.15 1.19c-3.98,3.87 -6.03,8.98 -6.1,14.13 -0.08,5.14 1.81,10.32 5.68,14.31 3.87,3.98 8.98,6.03 14.13,6.1 5.15,0.08 10.33,-1.81 14.31,-5.68 3.99,-3.87 6.03,-8.99 6.1,-14.13 0.08,-5.15 -1.81,-10.32 -5.68,-14.31l1.19 -1.16z"/>
  </g>
 </g>
</svg>
