<?xml version="1.0" encoding="UTF-8"?>
<!DOCTYPE svg PUBLIC "-//W3C//DTD SVG 1.1//EN" "http://www.w3.org/Graphics/SVG/1.1/DTD/svg11.dtd">
<!-- Creator: CorelDRAW 2019 (64-Bit) -->
<svg xmlns="http://www.w3.org/2000/svg" xml:space="preserve" width="3.5233mm" height="3.5233mm" version="1.1" style="shape-rendering:geometricPrecision; text-rendering:geometricPrecision; image-rendering:optimizeQuality; fill-rule:evenodd; clip-rule:evenodd"
viewBox="0 0 93.82 93.82"
 xmlns:xlink="http://www.w3.org/1999/xlink">
 <defs>
  <style type="text/css">
   <![CDATA[
    .str0 {stroke:#2B2A29;stroke-width:3.64;stroke-miterlimit:22.9256}
    .str1 {stroke:#FECC00;stroke-width:3.64;stroke-miterlimit:22.9256}
    .fil3 {fill:#FEFEFE}
    .fil2 {fill:#FECC00}
    .fil0 {fill:#EA556F}
    .fil1 {fill:#07354A}
   ]]>
  </style>
 </defs>
 <g id="Layer_x0020_1">
  <metadata id="CorelCorpID_0Corel-Layer"/>
  <g id="_1894924915024">
   <g>
    <rect class="fil0 str0" x="1.82" y="1.82" width="90.18" height="22.19" rx="4.73" ry="4.73"/>
    <rect class="fil1 str1" x="1.82" y="32.11" width="60.24" height="59.89" rx="5.63" ry="5.63"/>
   </g>
   <path class="fil2" d="M73.33 81.05c0,-2.39 0.45,-4.45 2.24,-6.03 3.06,-2.7 7.1,-2.69 10.21,-0.08 2.97,2.48 3.29,7.88 0.1,10.92 -4.96,4.73 -12.56,0.64 -12.56,-4.8zm18.67 -1.5l0 1.91c-0.23,2.61 -1.41,5.14 -3.48,7.22 -4.22,4.24 -11.56,4.04 -15.68,-0.09 -2.55,-2.56 -3.39,-4.96 -3.39,-8.77 0,-1.61 0.59,-3.34 1.17,-4.47 0.41,-0.8 1.69,-2.6 2.32,-3.14 5.39,-4.51 12.29,-3.93 16.29,0.85 1.65,1.98 2.56,4.22 2.76,6.48z"/>
   <path class="fil3" d="M20.49 71.01c0,3.47 2.44,3.29 3.4,2.35 1.12,-1.1 -0.24,-3.26 1.25,-5.45 0.59,-0.87 1.69,-1.48 3.1,-1.48l7.58 0c1.26,0 2.17,0.72 2.77,1.45 1.71,2.09 -0.47,5.58 2.42,6.03 2.54,0.39 2.2,-2.73 2.2,-3.78 0,-4.14 -3.43,-7.57 -7.57,-7.57 -3.15,0 -8.37,-0.4 -10.75,0.7 -2.86,1.33 -4.4,4.18 -4.4,7.75z"/>
   <path class="fil3" d="M30 53.22c0,-2.13 3.7,-2.57 3.7,0 0,2.57 -3.7,2.13 -3.7,0zm-3.87 0c0,0.5 0.36,1.78 0.5,2.14 0.63,1.7 2.69,3.49 4.96,3.49 5.8,0 7.49,-6.02 4.53,-9.47 -3.3,-3.85 -9.99,-1.2 -9.99,3.83z"/>
   <path class="fil1" d="M69.46 38.07c0,1.38 0.77,2.11 2.29,2.11l17.97 0c1.46,0 2.17,-0.81 2.29,-1.69l0 -0.56c-0.12,-0.85 -0.76,-1.63 -1.76,-1.63l-19.02 0c-0.99,0 -1.76,0.77 -1.76,1.76z"/>
   <path class="fil1" d="M69.46 49.34c0,1.37 0.77,2.11 2.29,2.11l17.97 0c1.46,0 2.17,-0.81 2.29,-1.69l0 -0.56c-0.12,-0.85 -0.76,-1.63 -1.76,-1.63l-19.02 0c-0.99,0 -1.76,0.77 -1.76,1.76z"/>
   <path class="fil1" d="M69.46 60.62c0,1.38 0.77,2.11 2.29,2.11l17.97 0c1.46,0 2.17,-0.81 2.29,-1.69l0 -0.56c-0.12,-0.85 -0.76,-1.63 -1.76,-1.63l-19.02 0c-0.99,0 -1.76,0.77 -1.76,1.76z"/>
  </g>
 </g>
</svg>
