<?xml version="1.0" encoding="UTF-8"?>
<!DOCTYPE svg PUBLIC "-//W3C//DTD SVG 1.1//EN" "http://www.w3.org/Graphics/SVG/1.1/DTD/svg11.dtd">
<!-- Creator: CorelDRAW 2019 (64-Bit) -->
<svg xmlns="http://www.w3.org/2000/svg" xml:space="preserve" width="3.4629mm" height="3.4629mm" version="1.1" style="shape-rendering:geometricPrecision; text-rendering:geometricPrecision; image-rendering:optimizeQuality; fill-rule:evenodd; clip-rule:evenodd"
viewBox="0 0 91.05 91.05"
 xmlns:xlink="http://www.w3.org/1999/xlink">
 <defs>
  <style type="text/css">
   <![CDATA[
    .str2 {stroke:#FEFEFE;stroke-width:3.56;stroke-miterlimit:22.9256}
    .str0 {stroke:#FEFEFE;stroke-width:2;stroke-miterlimit:22.9256}
    .str1 {stroke:#FEFEFE;stroke-width:2;stroke-miterlimit:22.9256}
    .fil0 {fill:none}
    .fil1 {fill:#FEFEFE}
   ]]>
  </style>
 </defs>
 <g id="Layer_x0020_1">
  <metadata id="CorelCorpID_0Corel-Layer"/>
  <g id="_1894924956944">
   <rect class="fil0 str0" x="1" y="1" width="89.04" height="21.91" rx="4.67" ry="4.67"/>
   <rect class="fil0 str1" x="1" y="30.91" width="59.48" height="59.13" rx="5.56" ry="5.56"/>
  </g>
  <path class="fil1" d="M71.61 79.23c0,-2.36 0.45,-4.4 2.22,-5.96 3.02,-2.67 7.01,-2.66 10.08,-0.08 2.93,2.45 3.24,7.78 0.1,10.78 -4.9,4.67 -12.4,0.64 -12.4,-4.74zm18.44 -1.48l0 1.88c-0.23,2.57 -1.39,5.07 -3.43,7.13 -4.17,4.18 -11.42,3.99 -15.48,-0.09 -2.52,-2.53 -3.34,-4.9 -3.34,-8.66 0,-1.59 0.59,-3.3 1.15,-4.41 0.4,-0.79 1.66,-2.57 2.29,-3.1 5.32,-4.46 12.14,-3.88 16.09,0.84 1.63,1.95 2.53,4.17 2.73,6.4z"/>
  <path class="fil1" d="M19.44 69.32c0,3.43 2.41,3.25 3.36,2.32 1.11,-1.08 -0.24,-3.22 1.23,-5.38 0.58,-0.86 1.67,-1.46 3.06,-1.46l7.48 0c1.25,0 2.14,0.71 2.74,1.44 1.69,2.06 -0.46,5.51 2.39,5.95 2.51,0.38 2.18,-2.69 2.18,-3.73 0,-4.09 -3.39,-7.48 -7.48,-7.48 -3.11,0 -8.26,-0.4 -10.61,0.69 -2.82,1.31 -4.35,4.13 -4.35,7.66z"/>
  <path class="fil1" d="M67.79 36.8c0,1.36 0.76,2.09 2.26,2.09l17.74 0c1.44,0 2.14,-0.8 2.26,-1.66l0 -0.55c-0.12,-0.84 -0.75,-1.61 -1.74,-1.61l-18.78 0c-0.98,0 -1.74,0.76 -1.74,1.74z"/>
  <path class="fil1" d="M67.79 47.93c0,1.36 0.76,2.09 2.26,2.09l17.74 0c1.44,0 2.14,-0.8 2.26,-1.66l0 -0.56c-0.12,-0.84 -0.75,-1.61 -1.74,-1.61l-18.78 0c-0.98,0 -1.74,0.76 -1.74,1.74z"/>
  <path class="fil1" d="M67.79 59.06c0,1.36 0.76,2.09 2.26,2.09l17.74 0c1.44,0 2.14,-0.8 2.26,-1.66l0 -0.55c-0.12,-0.84 -0.75,-1.61 -1.74,-1.61l-18.78 0c-0.98,0 -1.74,0.76 -1.74,1.74z"/>
  <circle class="fil0 str2" cx="30.64" cy="51.74" r="4.73"/>
 </g>
</svg>
