<?xml version="1.0" encoding="UTF-8"?>
<!DOCTYPE svg PUBLIC "-//W3C//DTD SVG 1.1//EN" "http://www.w3.org/Graphics/SVG/1.1/DTD/svg11.dtd">
<!-- Creator: CorelDRAW 2019 (64-Bit) -->
<svg xmlns="http://www.w3.org/2000/svg" xml:space="preserve" width="102px" height="136px" version="1.1" style="shape-rendering:geometricPrecision; text-rendering:geometricPrecision; image-rendering:optimizeQuality; fill-rule:evenodd; clip-rule:evenodd"
viewBox="0 0 216.794 289.059"
 xmlns:xlink="http://www.w3.org/1999/xlink">
 <defs>
  <style type="text/css">
   <![CDATA[
    .fil1 {fill:#FEFEFE}
    .fil0 {fill:#E10000}
    .fil2 {fill:#FEFEFE;fill-rule:nonzero}
   ]]>
  </style>
 </defs>
 <g id="Layer_x0020_1">
  <metadata id="CorelCorpID_0Corel-Layer"/>
  <g id="_2557061473360">
   <path class="fil0" d="M81.298 36.132c0,50.632 -21.737,40.65 -81.298,40.65l0 189.695c0,10.53 12.051,22.582 22.583,22.582l171.629 0c10.531,0 22.582,-12.052 22.582,-22.582l0 -243.894c0,-13.29 -11.204,-19.715 -28.334,-22.583l-107.162 0 0 36.132z"/>
   <polygon class="fil0" points="0,63.232 63.232,63.232 63.232,0 "/>
   <rect class="fil1" x="59.364" y="208.031" width="111.723" height="19.798" rx="9.899" ry="9.899"/>
   <g>
    <g>
     <path class="fil2" d="M106.007 66.106c-0.056,-4.684 3.711,-8.528 8.411,-8.583 4.701,-0.056 8.558,3.698 8.613,8.382l-17.024 0.201zm1.415 118.794l-1.415 -118.794 17.024 -0.201 1.415 118.793 -17.024 0.202zm17.024 -0.202c0.055,4.684 -3.711,8.529 -8.412,8.584 -4.7,0.056 -8.557,-3.698 -8.612,-8.382l17.024 -0.202z"/>
    </g>
    <g>
     <path class="fil2" d="M144.944 152.564c3.755,-2.817 9.094,-2.066 11.921,1.678 2.826,3.744 2.072,9.064 -1.683,11.88l-10.238 -13.558zm-33.939 25.456l33.939 -25.456 10.238 13.558 -33.939 25.456 -10.238 -13.558zm10.238 13.558c-3.756,2.816 -9.095,2.066 -11.921,-1.678 -2.827,-3.744 -2.072,-9.064 1.683,-11.88l10.238 13.558z"/>
    </g>
    <g>
     <path class="fil2" d="M85.507 151.504l-10.237 13.556c-3.756,-2.816 -4.51,-8.136 -1.683,-11.879 2.826,-3.743 8.165,-4.493 11.92,-1.677zm33.94 25.458l-10.238 13.555 -33.939 -25.457 10.237 -13.556 33.94 25.458zm-10.238 13.555l10.238 -13.555c3.755,2.816 4.509,8.136 1.682,11.879 -2.826,3.742 -8.165,4.493 -11.92,1.676z"/>
    </g>
   </g>
  </g>
 </g>
</svg>
