<?xml version="1.0" encoding="UTF-8"?>
<!DOCTYPE svg PUBLIC "-//W3C//DTD SVG 1.1//EN" "http://www.w3.org/Graphics/SVG/1.1/DTD/svg11.dtd">
<!-- Creator: CorelDRAW 2019 (64-Bit) -->
<svg xmlns="http://www.w3.org/2000/svg" xml:space="preserve" width="3.4714mm" height="3.3868mm" version="1.1" style="shape-rendering:geometricPrecision; text-rendering:geometricPrecision; image-rendering:optimizeQuality; fill-rule:evenodd; clip-rule:evenodd"
viewBox="0 0 662.49 646.34"
 xmlns:xlink="http://www.w3.org/1999/xlink">
 <defs>
  <style type="text/css">
   <![CDATA[
    .fil0 {fill:#FEFEFE}
   ]]>
  </style>
 </defs>
 <g id="Layer_x0020_1">
  <metadata id="CorelCorpID_0Corel-Layer"/>
  <path class="fil0" d="M380.12 104.83c-10.94,10.13 -3.47,18.11 1.83,30.8 33.72,80.65 2.48,172.44 -70.02,217.75 -39.66,24.77 -92,34.98 -144.26,19.81 -45.48,-13.21 -21.93,-21.16 -66.7,-6.93 -21.09,6.7 -46.51,16.58 -67.33,21.53 1.11,-8.8 7.67,-25 10.55,-34.33 27.86,-90.86 20.55,-41.37 3.72,-99.94 -37.21,-129.41 75.44,-250 203.89,-224.43 28.05,5.57 45.71,16.45 50.02,17.33 9.29,1.87 10.17,-2.54 15.17,-5.9 7.39,-18.11 -19.31,-25.11 -36.72,-30.95 -18.47,-6.22 -36.13,-9.56 -60.32,-9.54 -65.34,0 -108.44,22.39 -148.47,62.42 -24.29,24.27 -41.89,55.67 -50.82,90.23 -9.45,36.57 -8.07,85.36 6.49,121.68 12.6,31.45 9.71,10.21 -1.28,50.44l-25.65 79.28c-0.11,0.63 -0.19,1.24 -0.23,1.83l0 3.42c0.86,9.1 8.82,13.59 17.08,11.62 8.78,-2.08 17.69,-5.73 26.41,-8.65 9.16,-3.07 18.09,-5.59 26.53,-8.4 9.22,-3.07 16.57,-5.67 26.47,-8.47 24.08,-6.83 25.29,-13.15 39.35,-5.92 24.27,12.46 79.31,21.76 106.13,15.52 0,9.05 -1.32,12.37 -1.35,20.65 -0.02,8.8 0.94,13.86 1.32,20.78 0.82,14.94 3.26,25.23 6.49,37.52 23.05,88.07 112.02,153.76 204.47,148.78 25.06,-1.34 54.33,-8.45 72.42,-16.85 12.18,-5.63 10.08,-5.04 33.51,2.79l66.43 21.57c2.4,0.65 33.91,14.33 37.23,-1.62l0 -6.41c-0.31,-2 -0.86,-4.26 -1.72,-6.79l-32.14 -99.94c-2.94,-8.8 -1.74,-6.11 2.39,-14.77 7.42,-15.65 11.58,-33.53 14.68,-51.34 9.56,-55.44 -7.37,-110.71 -39.75,-154.37 -3.76,-5.04 -6.16,-7.08 -9.98,-12 -25.78,-33.36 -89.1,-64.73 -132.73,-66.55 -7.39,-0.32 -11.81,-1.32 -20.73,-1.34 -8.99,0 -12.6,1.34 -21.98,1.34 0,-27.06 2.69,-44.89 -5.42,-74.81 -2.61,-9.69 -6.79,-21.11 -10.95,-30.44 -4.26,-9.58 -8.23,-23.07 -24.03,-16.37zm-110.59 295.29c-10.61,87.83 32.25,164.39 112.27,195 41.18,15.76 89.77,14.83 129.85,-1.95 28.91,-12.1 15.94,-11.87 57.16,1.28l60.27 19.14c-3.97,-16.62 -21.18,-65.92 -27.75,-86.62 -6.53,-20.61 17.42,-29.28 20.08,-89.6 2.79,-63.36 -26.51,-118.25 -74.71,-153.32 -29.2,-21.26 -70.08,-34.1 -110.63,-32.1 -4.52,0.23 -9.14,0.63 -13.65,1.13 -6.68,0.76 -7.04,-0.25 -9.01,5.11 -5.73,15.61 -8.17,26.55 -16.13,40.78 -21.43,38.4 -49.29,65.59 -86.05,84.77 -15.04,7.84 -26.36,9.94 -41.7,16.37z"/>
  <path class="fil0" d="M270.42 274.73c18.02,12.48 35.94,47.39 51.16,32.61 11.49,-11.13 -3.74,-22.65 -8.7,-27.61 -7.79,-7.77 -16.16,-15.34 -23.3,-23.51 4.45,-11.97 25.06,-31.16 19.48,-74.92 -3.44,-26.97 -15.76,-45.42 -33.4,-62.33 -39.1,-37.46 -104.85,-29.66 -138.07,4.41 -56.03,57.48 -26.07,159.37 58.72,170.9 34.18,4.66 51.58,-6.91 74.1,-19.54zm-18.65 -19.33c-7.46,-6.56 -14.14,-13.95 -21.41,-21.24 -4.66,-4.64 -20.25,-16.85 -8.17,-27.52 15.71,-13.86 31.85,19.56 48.23,29.96 18.32,-17.84 21.76,-70.31 -13.68,-99.96 -44.64,-37.35 -120.06,-8.19 -122.12,54.83 -2.06,62.82 68,99.5 117.16,63.93z"/>
  <path class="fil0" d="M402.41 466.43l84.1 -0.17c3.28,3.84 13.05,26.79 15.86,32.94 4.68,10.23 9.29,27.73 21.6,27.31 7.06,-0.23 12.31,-5.27 12.25,-12.79 -0.04,-7.31 -61.85,-136.2 -69.83,-153.32 -4.71,-10.1 -9.68,-28.55 -21.37,-28.99 -12.1,-0.48 -16.98,17.14 -21.64,27.23l-62.94 135.06c-2.67,5.95 -17.44,30.38 3.4,32.73 13.24,1.47 17.54,-16.09 22.33,-26.32 3.11,-6.6 12.6,-29.52 16.24,-33.68zm11.74 -26.55l60.38 0.48 -29.71 -64.85 -30.67 64.37z"/>
  <path class="fil0" d="M341.97 58.24c-4.39,16.43 1.81,24.73 19.03,19.01 2.42,-2.88 4.41,-4.43 4.98,-8.95 0.61,-4.79 -1.35,-8.74 -3.95,-11.09 -7.16,-6.47 -13.91,-4.05 -20.06,1.03z"/>
 </g>
</svg>
