<?xml version="1.0" encoding="UTF-8"?>
<!DOCTYPE svg PUBLIC "-//W3C//DTD SVG 1.1//EN" "http://www.w3.org/Graphics/SVG/1.1/DTD/svg11.dtd">
<!-- Creator: CorelDRAW 2019 (64-Bit) -->
<svg xmlns="http://www.w3.org/2000/svg" xml:space="preserve" width="39px" height="23px" version="1.1" style="shape-rendering:geometricPrecision; text-rendering:geometricPrecision; image-rendering:optimizeQuality; fill-rule:evenodd; clip-rule:evenodd"
viewBox="0 0 11.294 6.682"
 xmlns:xlink="http://www.w3.org/1999/xlink">
 <defs>
  <style type="text/css">
   <![CDATA[
    .fil3 {fill:#FEFEFE}
    .fil0 {fill:#393185}
    .fil2 {fill:#022401}
    .fil1 {fill:#FEFEFE;fill-rule:nonzero}
   ]]>
  </style>
 </defs>
 <g id="Layer_x0020_1">
  <metadata id="CorelCorpID_0Corel-Layer"/>
  <g id="_2557469674352">
   <g>
    <path class="fil0" d="M9.069 4.584l-1.124 -2.533c-0.103,-0.232 -0.377,-0.337 -0.609,-0.234l-2.532 1.123c-0.232,0.103 -0.338,0.377 -0.235,0.609l1.123 2.532c0.103,0.232 0.378,0.338 0.61,0.235l2.532 -1.123c0.232,-0.103 0.337,-0.377 0.235,-0.609z"/>
    <path id="1" class="fil1" d="M7.879 2.081l0.132 -0.059 1.124 2.532 -0.132 0.059 -1.124 -2.532zm-0.572 -0.331l0 0 0.025 -0.01 0.025 -0.009 0.026 -0.008 0.026 -0.006 0.026 -0.005 0.027 -0.004 0.025 -0.002 0.026 -0.001 0.027 0 0.025 0.002 0.026 0.002 0.025 0.004 0.026 0.005 0.024 0.007 0.025 0.007 0.024 0.009 0.024 0.01 0.023 0.01 0.022 0.012 0.023 0.014 0.021 0.014 0.021 0.015 0.02 0.016 0.02 0.017 0.018 0.019 0.018 0.019 0.017 0.02 0.016 0.021 0.015 0.023 0.013 0.022 0.013 0.024 0.012 0.025 -0.132 0.059 -0.009 -0.018 -0.009 -0.018 -0.01 -0.017 -0.011 -0.016 -0.012 -0.015 -0.012 -0.014 -0.013 -0.014 -0.013 -0.014 -0.014 -0.012 -0.015 -0.012 -0.015 -0.011 -0.016 -0.011 -0.016 -0.009 -0.017 -0.009 -0.017 -0.008 -0.017 -0.007 -0.017 -0.006 -0.019 -0.006 -0.018 -0.005 -0.018 -0.003 -0.019 -0.003 -0.018 -0.002 -0.019 -0.001 -0.019 0 -0.019 0 -0.019 0.002 -0.019 0.003 -0.019 0.003 -0.019 0.005 -0.018 0.005 -0.019 0.007 -0.019 0.008 0 0 -0.058 -0.133zm-2.474 1.256l-0.059 -0.132 2.533 -1.124 0.058 0.133 -2.532 1.123zm-0.33 0.573l0 0 -0.011 -0.026 -0.009 -0.025 -0.007 -0.026 -0.007 -0.026 -0.005 -0.026 -0.003 -0.026 -0.003 -0.026 -0.001 -0.026 0.001 -0.026 0.001 -0.026 0.003 -0.026 0.004 -0.025 0.005 -0.026 0.006 -0.024 0.008 -0.025 0.008 -0.024 0.01 -0.024 0.011 -0.023 0.012 -0.022 0.013 -0.023 0.014 -0.021 0.015 -0.021 0.017 -0.02 0.017 -0.02 0.018 -0.018 0.019 -0.018 0.021 -0.017 0.021 -0.016 0.022 -0.015 0.023 -0.013 0.024 -0.013 0.024 -0.012 0.059 0.132 -0.018 0.009 -0.017 0.009 -0.017 0.011 -0.016 0.01 -0.016 0.012 -0.014 0.012 -0.014 0.013 -0.014 0.014 -0.012 0.014 -0.012 0.014 -0.011 0.016 -0.01 0.015 -0.01 0.016 -0.009 0.017 -0.008 0.017 -0.007 0.017 -0.006 0.018 -0.006 0.018 -0.004 0.018 -0.004 0.018 -0.003 0.019 -0.002 0.019 -0.001 0.019 0 0.019 0.001 0.018 0.002 0.02 0.002 0.019 0.004 0.018 0.004 0.019 0.006 0.019 0.007 0.019 0.007 0.018 0 0 -0.132 0.059zm1.256 2.473l-0.133 0.059 -1.123 -2.532 0.132 -0.059 1.124 2.532zm0.572 0.33l0 0 -0.025 0.011 -0.026 0.009 -0.026 0.008 -0.025 0.006 -0.027 0.005 -0.026 0.004 -0.026 0.002 -0.026 0.001 -0.026 0 -0.025 -0.002 -0.026 -0.003 -0.025 -0.003 -0.026 -0.005 -0.025 -0.007 -0.024 -0.007 -0.024 -0.009 -0.024 -0.01 -0.023 -0.011 -0.023 -0.011 -0.022 -0.014 -0.021 -0.014 -0.021 -0.015 -0.021 -0.016 -0.019 -0.018 -0.019 -0.018 -0.017 -0.019 -0.017 -0.021 -0.016 -0.021 -0.015 -0.022 -0.014 -0.023 -0.013 -0.023 -0.012 -0.025 0.133 -0.059 0.008 0.018 0.009 0.017 0.011 0.017 0.011 0.016 0.011 0.016 0.012 0.014 0.013 0.014 0.014 0.014 0.014 0.012 0.014 0.012 0.016 0.011 0.016 0.011 0.016 0.009 0.016 0.009 0.017 0.008 0.017 0.007 0.018 0.006 0.018 0.006 0.018 0.004 0.019 0.004 0.018 0.003 0.019 0.002 0.019 0.001 0.019 0 0.019 -0.001 0.019 -0.001 0.019 -0.003 0.019 -0.004 0.019 -0.004 0.018 -0.006 0.019 -0.006 0.018 -0.008 0 0 0.059 0.132zm2.474 -1.255l0.058 0.132 -2.532 1.123 -0.059 -0.132 2.533 -1.123zm0.33 -0.573l0 0 0.01 0.025 0.009 0.026 0.008 0.026 0.006 0.026 0.005 0.026 0.004 0.026 0.002 0.026 0.001 0.026 0 0.026 -0.001 0.026 -0.003 0.026 -0.004 0.025 -0.005 0.025 -0.007 0.025 -0.007 0.024 -0.009 0.025 -0.009 0.023 -0.011 0.024 -0.012 0.022 -0.013 0.023 -0.015 0.021 -0.015 0.021 -0.016 0.02 -0.017 0.019 -0.019 0.019 -0.019 0.018 -0.02 0.017 -0.021 0.016 -0.022 0.014 -0.023 0.014 -0.024 0.013 -0.025 0.012 -0.058 -0.132 0.017 -0.009 0.018 -0.009 0.017 -0.011 0.016 -0.011 0.015 -0.011 0.015 -0.012 0.014 -0.013 0.013 -0.014 0.013 -0.014 0.012 -0.014 0.011 -0.016 0.01 -0.016 0.009 -0.016 0.009 -0.016 0.008 -0.017 0.007 -0.017 0.007 -0.018 0.005 -0.018 0.005 -0.018 0.003 -0.019 0.003 -0.018 0.002 -0.019 0.001 -0.019 0.001 -0.019 -0.001 -0.018 -0.002 -0.02 -0.002 -0.019 -0.004 -0.018 -0.005 -0.019 -0.005 -0.019 -0.007 -0.019 -0.007 -0.018 0 0 0.132 -0.059z"/>
   </g>
   <g id="_2557517609232">
    <circle class="fil2" transform="matrix(-0.0157402 -0.0354778 -0.0354776 0.0157403 6.51748 5.37143)" r="11.195"/>
    <circle class="fil2" transform="matrix(-0.0157402 -0.0354778 -0.0354776 0.0157403 7.25986 2.84869)" r="11.195"/>
    <circle class="fil2" transform="matrix(-0.0157401 -0.0354776 -0.0354774 0.0157402 8.07458 4.67788)" r="11.195"/>
   </g>
   <g>
    <path class="fil0" d="M6.415 3.722l-2.065 -1.847c-0.19,-0.169 -0.483,-0.153 -0.652,0.037l-1.847 2.065c-0.169,0.189 -0.152,0.482 0.037,0.652l2.065 1.846c0.189,0.169 0.483,0.153 0.652,-0.036l1.846 -2.066c0.17,-0.189 0.153,-0.482 -0.036,-0.651z"/>
    <path id="1" class="fil1" d="M4.289 1.943l0.121 -0.135 2.065 1.846 -0.12 0.135 -2.066 -1.846zm-0.659 -0.092l0 0 0.02 -0.02 0.02 -0.02 0.021 -0.018 0.022 -0.017 0.022 -0.016 0.023 -0.014 0.024 -0.014 0.024 -0.012 0.025 -0.01 0.024 -0.01 0.026 -0.008 0.026 -0.007 0.025 -0.006 0.027 -0.005 0.026 -0.003 0.026 -0.003 0.027 0 0.026 0 0.027 0.002 0.026 0.003 0.026 0.004 0.026 0.006 0.026 0.006 0.026 0.008 0.025 0.009 0.025 0.011 0.024 0.012 0.025 0.013 0.023 0.015 0.023 0.015 0.022 0.018 0.022 0.018 -0.121 0.135 -0.014 -0.013 -0.015 -0.011 -0.015 -0.011 -0.016 -0.01 -0.016 -0.008 -0.017 -0.008 -0.016 -0.007 -0.017 -0.006 -0.017 -0.006 -0.018 -0.004 -0.018 -0.004 -0.017 -0.003 -0.018 -0.002 -0.018 -0.001 -0.018 0 -0.017 0 -0.018 0.002 -0.018 0.002 -0.018 0.003 -0.017 0.004 -0.018 0.005 -0.016 0.005 -0.017 0.007 -0.017 0.007 -0.016 0.008 -0.016 0.009 -0.015 0.01 -0.015 0.01 -0.015 0.012 -0.014 0.012 -0.013 0.013 -0.013 0.014 0 0 -0.136 -0.121zm-1.711 2.186l-0.135 -0.12 0 -0.001 1.846 -2.065 0.136 0.121 -1.847 2.065zm-0.091 0.659l0 0 -0.021 -0.02 -0.019 -0.02 -0.018 -0.02 -0.018 -0.023 -0.015 -0.022 -0.015 -0.023 -0.013 -0.024 -0.012 -0.024 -0.011 -0.024 -0.01 -0.025 -0.008 -0.025 -0.007 -0.026 -0.006 -0.026 -0.004 -0.026 -0.004 -0.026 -0.002 -0.027 -0.001 -0.026 0.001 -0.027 0.001 -0.026 0.003 -0.027 0.004 -0.026 0.006 -0.026 0.006 -0.026 0.009 -0.026 0.009 -0.025 0.01 -0.025 0.012 -0.025 0.014 -0.023 0.014 -0.024 0.016 -0.023 0.017 -0.022 0.018 -0.021 0.135 0.12 -0.012 0.015 -0.012 0.015 -0.01 0.015 -0.01 0.016 -0.009 0.016 -0.008 0.016 -0.007 0.017 -0.006 0.017 -0.006 0.017 -0.004 0.017 -0.004 0.018 -0.003 0.018 -0.001 0.017 -0.002 0.018 0 0.019 0.001 0.017 0.001 0.018 0.002 0.018 0.004 0.018 0.003 0.017 0.005 0.017 0.006 0.017 0.006 0.017 0.008 0.017 0.008 0.016 0.008 0.015 0.01 0.016 0.011 0.015 0.011 0.014 0.012 0.014 0.013 0.014 0.014 0.013 0 0 -0.12 0.135zm2.186 1.712l-0.121 0.134 -2.065 -1.846 0.12 -0.135 2.066 1.847zm0.658 0.091l0 0 -0.019 0.02 -0.02 0.02 -0.021 0.018 -0.022 0.017 -0.022 0.016 -0.023 0.014 -0.024 0.014 -0.024 0.012 -0.025 0.011 -0.025 0.009 -0.025 0.009 -0.026 0.007 -0.025 0.006 -0.027 0.004 -0.026 0.004 -0.026 0.002 -0.027 0 -0.026 0 -0.027 -0.002 -0.026 -0.003 -0.026 -0.004 -0.026 -0.005 -0.026 -0.007 -0.026 -0.008 -0.025 -0.009 -0.025 -0.011 -0.024 -0.011 -0.025 -0.014 -0.023 -0.014 -0.023 -0.016 -0.023 -0.017 -0.021 -0.019 0.121 -0.134 0.014 0.012 0.015 0.011 0.015 0.011 0.016 0.01 0.016 0.008 0.017 0.009 0.016 0.007 0.017 0.006 0.017 0.005 0.018 0.005 0.017 0.003 0.018 0.003 0.018 0.002 0.018 0.001 0.017 0.001 0.018 -0.001 0.018 -0.002 0.018 -0.002 0.017 -0.003 0.018 -0.004 0.017 -0.004 0.017 -0.006 0.017 -0.007 0.017 -0.007 0.016 -0.008 0.015 -0.009 0.016 -0.01 0.015 -0.01 0.015 -0.012 0.013 -0.012 0.014 -0.013 0.013 -0.014 0 0 0.135 0.121zm1.712 -2.186l0.135 0.121 -1.847 2.065 -0.135 -0.121 1.847 -2.065zm0.091 -0.659l0 0 0.021 0.02 0.019 0.02 0.019 0.021 0.016 0.022 0.016 0.022 0.015 0.023 0.013 0.024 0.012 0.024 0.011 0.025 0.01 0.024 0.008 0.026 0.007 0.026 0.006 0.025 0.005 0.027 0.003 0.026 0.002 0.026 0.001 0.027 -0.001 0.026 -0.001 0.027 -0.003 0.026 -0.004 0.026 -0.006 0.026 -0.007 0.026 -0.008 0.026 -0.009 0.025 -0.01 0.025 -0.012 0.024 -0.014 0.025 -0.014 0.023 -0.016 0.023 -0.017 0.022 -0.018 0.022 -0.135 -0.121 0.012 -0.015 0.012 -0.014 0.01 -0.016 0.01 -0.016 0.009 -0.015 0.008 -0.017 0.007 -0.017 0.006 -0.017 0.005 -0.017 0.005 -0.017 0.004 -0.018 0.003 -0.018 0.002 -0.018 0.001 -0.017 0 -0.018 -0.001 -0.018 -0.001 -0.018 -0.002 -0.018 -0.003 -0.017 -0.004 -0.018 -0.005 -0.017 -0.006 -0.017 -0.006 -0.017 -0.008 -0.016 -0.008 -0.017 -0.008 -0.015 -0.01 -0.016 -0.011 -0.015 -0.011 -0.014 -0.012 -0.014 -0.013 -0.014 -0.014 -0.013 0 0 0.12 -0.135z"/>
   </g>
   <g>
    <circle class="fil2" transform="matrix(-0.028934 -0.0258697 -0.0258695 0.0289342 2.75073 4.23421)" r="11.195"/>
    <circle class="fil2" transform="matrix(-0.028934 -0.0258697 -0.0258695 0.0289342 4.13121 4.15702)" r="11.195"/>
    <circle class="fil2" transform="matrix(-0.0289339 -0.0258696 -0.0258694 0.0289341 5.55219 4.11603)" r="11.195"/>
   </g>
   <path class="fil3" d="M1.286 1.89c0.036,0.052 0.034,0.043 0.081,0.079l0.238 0.232c0.081,0.081 0.241,0.26 0.323,0.314l0.356 -0.348c-0.034,-0.05 -0.568,-0.605 -0.642,-0.625l-0.356 0.348z"/>
   <polygon class="fil3" points="8.654,1.857 9.007,2.217 9.636,1.596 9.283,1.236 "/>
   <path class="fil3" d="M0 5.52l0 0.47 0.788 0c0.039,0 0.051,-0.012 0.051,-0.051l0 -0.419c0,-0.039 -0.012,-0.05 -0.051,-0.05l-0.738 0c-0.038,0 -0.05,0.011 -0.05,0.05z"/>
   <polygon class="fil3" points="10.472,5.99 11.294,5.99 11.294,5.47 10.472,5.47 "/>
   <path class="fil3" d="M5.113 0.822l0.469 0c0.039,0 0.051,-0.012 0.051,-0.05l0 -0.772 -0.52 0 0 0.822z"/>
   <g>
    <circle class="fil3" transform="matrix(-0.028934 -0.0258697 -0.0258695 0.0289342 2.68291 4.23421)" r="11.195"/>
    <circle class="fil3" transform="matrix(-0.028934 -0.0258697 -0.0258695 0.0289342 4.06339 4.15702)" r="11.195"/>
    <circle class="fil3" transform="matrix(-0.0289339 -0.0258696 -0.0258694 0.0289341 5.48436 4.11603)" r="11.195"/>
   </g>
   <g>
    <circle class="fil3" transform="matrix(-0.0157402 -0.0354778 -0.0354776 0.0157403 6.51748 5.30345)" r="11.195"/>
    <circle class="fil3" transform="matrix(-0.0157402 -0.0354778 -0.0354776 0.0157403 7.25986 2.78071)" r="11.195"/>
    <circle class="fil3" transform="matrix(-0.0157401 -0.0354776 -0.0354774 0.0157402 8.07458 4.6099)" r="11.195"/>
   </g>
  </g>
 </g>
</svg>
