<?xml version="1.0" encoding="UTF-8"?>
<!DOCTYPE svg PUBLIC "-//W3C//DTD SVG 1.1//EN" "http://www.w3.org/Graphics/SVG/1.1/DTD/svg11.dtd">
<!-- Creator: CorelDRAW 2019 (64-Bit) -->
<svg xmlns="http://www.w3.org/2000/svg" xml:space="preserve" width="26px" height="25px" version="1.1" style="shape-rendering:geometricPrecision; text-rendering:geometricPrecision; image-rendering:optimizeQuality; fill-rule:evenodd; clip-rule:evenodd"
viewBox="0 0 27.03 25.27"
 xmlns:xlink="http://www.w3.org/1999/xlink">
 <defs>
  <style type="text/css">
   <![CDATA[
    .fil3 {fill:#FEFEFE}
    .fil6 {fill:#EBECEC}
    .fil5 {fill:#FFED00}
    .fil2 {fill:#2A428C}
    .fil0 {fill:#DFE8FC}
    .fil1 {fill:#F32055}
    .fil4 {fill:#44A0F1;fill-rule:nonzero}
   ]]>
  </style>
 </defs>
 <g id="Layer_x0020_1">
  <metadata id="CorelCorpID_0Corel-Layer"/>
  <g id="_2557218889552">
   <rect class="fil0" y="0.81" width="22.27" height="19.87" rx="1.05" ry="1.24"/>
   <path class="fil1" d="M0 6.25c0.97,0 1.94,0 2.91,0l19.36 0 0 -4.19c0,-0.69 -0.56,-1.25 -1.24,-1.25l-19.79 0c-0.68,0 -1.24,0.56 -1.24,1.25l0 4.19z"/>
   <g>
    <rect class="fil2" x="1.05" y="8.51" width="2.19" height="2.74"/>
    <rect class="fil2" x="4.05" y="8.51" width="2.19" height="2.74"/>
    <rect class="fil2" x="7.04" y="8.51" width="2.19" height="2.74"/>
    <rect class="fil2" x="10.04" y="8.51" width="2.19" height="2.74"/>
    <rect class="fil2" x="13.04" y="8.51" width="2.19" height="2.74"/>
    <rect class="fil2" x="16.04" y="8.51" width="2.19" height="2.74"/>
    <rect class="fil2" x="19.04" y="8.51" width="2.19" height="2.74"/>
    <rect class="fil2" x="1.05" y="8.51" width="2.19" height="2.74"/>
    <rect class="fil2" x="4.05" y="8.51" width="2.19" height="2.74"/>
    <rect class="fil2" x="7.04" y="8.51" width="2.19" height="2.74"/>
    <rect class="fil2" x="10.04" y="8.51" width="2.19" height="2.74"/>
    <rect class="fil2" x="13.04" y="8.51" width="2.19" height="2.74"/>
    <rect class="fil2" x="16.04" y="8.51" width="2.19" height="2.74"/>
    <rect class="fil2" x="19.04" y="8.51" width="2.19" height="2.74"/>
    <rect class="fil2" x="1.05" y="12.11" width="2.19" height="2.74"/>
    <rect class="fil2" x="1.05" y="15.71" width="2.19" height="2.74"/>
    <rect class="fil2" x="4.05" y="12.11" width="2.19" height="2.74"/>
    <rect class="fil2" x="4.05" y="15.71" width="2.19" height="2.74"/>
    <rect class="fil2" x="7.04" y="12.11" width="2.19" height="2.74"/>
    <rect class="fil2" x="7.04" y="15.71" width="2.19" height="2.74"/>
    <rect class="fil2" x="10.04" y="12.11" width="2.19" height="2.74"/>
    <rect class="fil2" x="10.04" y="15.71" width="2.19" height="2.74"/>
    <rect class="fil2" x="13.04" y="12.11" width="2.19" height="2.74"/>
    <rect class="fil2" x="13.04" y="15.71" width="2.19" height="2.74"/>
    <rect class="fil2" x="16.04" y="12.11" width="2.19" height="2.74"/>
    <rect class="fil2" x="16.04" y="15.71" width="2.19" height="2.74"/>
    <rect class="fil2" x="19.04" y="12.11" width="2.19" height="2.74"/>
    <rect class="fil2" x="19.04" y="15.71" width="2.19" height="2.74"/>
   </g>
   <g>
    <g>
     <path class="fil3" d="M20.19 24.57c3.39,0 6.14,-2.75 6.14,-6.14 0,-3.4 -2.75,-6.15 -6.14,-6.15 -3.39,0 -6.14,2.75 -6.14,6.15 0,3.39 2.75,6.14 6.14,6.14z"/>
     <path id="1" class="fil4" d="M25.63 18.43l1.4 0 0 0 -0.01 0.35 -0.02 0.34 -0.05 0.35 -0.06 0.33 -0.07 0.34 -0.09 0.32 -0.11 0.32 -0.13 0.31 -0.13 0.3 -0.15 0.3 -0.17 0.29 -0.18 0.27 -0.19 0.27 -0.2 0.26 -0.22 0.25 -0.22 0.24 -0.24 0.22 -0.25 0.22 -0.26 0.2 -0.26 0.19 -0.28 0.18 -0.29 0.16 -0.29 0.15 -0.31 0.14 -0.31 0.12 -0.32 0.11 -0.32 0.09 -0.33 0.08 -0.34 0.06 -0.34 0.04 -0.35 0.03 -0.35 0.01 0 -1.4 0.28 -0.01 0.28 -0.02 0.27 -0.04 0.27 -0.04 0.26 -0.06 0.26 -0.08 0.25 -0.08 0.25 -0.1 0.24 -0.11 0.23 -0.12 0.23 -0.13 0.22 -0.14 0.22 -0.15 0.2 -0.16 0.2 -0.18 0.19 -0.18 0.18 -0.18 0.17 -0.2 0.16 -0.21 0.15 -0.21 0.14 -0.22 0.14 -0.23 0.12 -0.23 0.11 -0.25 0.09 -0.24 0.09 -0.25 0.07 -0.26 0.06 -0.27 0.05 -0.26 0.03 -0.28 0.02 -0.27 0.01 -0.28 0 0zm-5.44 -5.45l0 -1.4 0 0 0.35 0.01 0.35 0.03 0.34 0.04 0.34 0.06 0.33 0.08 0.32 0.09 0.32 0.11 0.31 0.12 0.31 0.14 0.29 0.15 0.29 0.16 0.28 0.18 0.26 0.19 0.26 0.21 0.25 0.21 0.24 0.23 0.22 0.23 0.22 0.25 0.2 0.26 0.19 0.27 0.18 0.28 0.17 0.28 0.15 0.3 0.13 0.3 0.13 0.31 0.11 0.32 0.09 0.33 0.07 0.33 0.06 0.34 0.05 0.34 0.02 0.35 0.01 0.35 -1.4 0 -0.01 -0.28 -0.02 -0.28 -0.03 -0.27 -0.05 -0.27 -0.06 -0.27 -0.07 -0.25 -0.09 -0.26 -0.09 -0.24 -0.11 -0.24 -0.12 -0.24 -0.14 -0.22 -0.14 -0.23 -0.15 -0.21 -0.16 -0.21 -0.17 -0.19 -0.18 -0.19 -0.19 -0.18 -0.2 -0.17 -0.2 -0.16 -0.22 -0.16 -0.22 -0.14 -0.23 -0.13 -0.23 -0.12 -0.24 -0.11 -0.25 -0.1 -0.25 -0.08 -0.26 -0.07 -0.26 -0.06 -0.27 -0.05 -0.27 -0.04 -0.28 -0.02 -0.28 -0.01 0 0zm-5.44 5.45l-1.4 0 0 0 0.01 -0.35 0.02 -0.35 0.05 -0.34 0.05 -0.34 0.08 -0.33 0.09 -0.33 0.11 -0.32 0.13 -0.31 0.13 -0.3 0.15 -0.3 0.17 -0.28 0.17 -0.28 0.19 -0.27 0.21 -0.26 0.22 -0.25 0.22 -0.23 0.24 -0.23 0.25 -0.21 0.26 -0.21 0.26 -0.19 0.28 -0.18 0.29 -0.16 0.29 -0.15 0.31 -0.14 0.31 -0.12 0.32 -0.11 0.32 -0.09 0.33 -0.08 0.34 -0.06 0.34 -0.04 0.35 -0.03 0.35 -0.01 0 1.4 -0.28 0.01 -0.28 0.02 -0.27 0.04 -0.27 0.05 -0.26 0.06 -0.26 0.07 -0.25 0.08 -0.25 0.1 -0.24 0.11 -0.23 0.12 -0.23 0.13 -0.22 0.14 -0.22 0.16 -0.2 0.16 -0.2 0.17 -0.19 0.18 -0.18 0.19 -0.17 0.19 -0.16 0.21 -0.15 0.21 -0.14 0.23 -0.14 0.22 -0.12 0.24 -0.11 0.24 -0.09 0.24 -0.09 0.26 -0.07 0.25 -0.06 0.27 -0.05 0.27 -0.04 0.27 -0.01 0.28 -0.01 0.28 0 0zm5.44 5.44l0 1.4 0 0 -0.35 -0.01 -0.35 -0.03 -0.34 -0.04 -0.34 -0.06 -0.33 -0.08 -0.32 -0.09 -0.32 -0.11 -0.31 -0.12 -0.31 -0.14 -0.29 -0.15 -0.29 -0.16 -0.28 -0.18 -0.26 -0.19 -0.26 -0.2 -0.25 -0.22 -0.24 -0.22 -0.22 -0.24 -0.22 -0.25 -0.21 -0.26 -0.19 -0.27 -0.17 -0.27 -0.17 -0.29 -0.15 -0.3 -0.13 -0.3 -0.13 -0.31 -0.11 -0.32 -0.09 -0.32 -0.08 -0.34 -0.05 -0.33 -0.05 -0.35 -0.02 -0.34 -0.01 -0.35 1.4 0 0.01 0.28 0.01 0.27 0.04 0.28 0.05 0.26 0.06 0.27 0.07 0.26 0.09 0.25 0.09 0.24 0.11 0.25 0.12 0.23 0.14 0.23 0.14 0.22 0.15 0.21 0.16 0.21 0.17 0.2 0.18 0.18 0.19 0.18 0.2 0.18 0.2 0.16 0.22 0.15 0.22 0.14 0.23 0.13 0.23 0.12 0.24 0.11 0.25 0.1 0.25 0.08 0.26 0.08 0.26 0.06 0.27 0.04 0.27 0.04 0.28 0.02 0.28 0.01 0 0z"/>
    </g>
    <rect class="fil2" x="19.87" y="14.53" width="0.64" height="3.56" rx="0.41" ry="0.41"/>
    <rect class="fil2" transform="matrix(0.228148 -0.254859 0.169886 0.152081 20.2386 18.9531)" width="1.87" height="10.4" rx="1.21" ry="1.21"/>
    <circle class="fil5" cx="20.19" cy="18.43" r="0.93"/>
   </g>
   <g id="_2557218888528">
    <rect class="fil6" x="4.59" width="1.91" height="4.01" rx="0.83" ry="0.83"/>
    <rect class="fil6" x="15.76" width="1.91" height="4.01" rx="0.83" ry="0.83"/>
   </g>
  </g>
 </g>
</svg>
