<svg xmlns="http://www.w3.org/2000/svg" xmlns:xlink="http://www.w3.org/1999/xlink" width="44" height="32" viewBox="0 0 44 32">
  <defs>
    <filter id="Rectangle_88" x="0" y="0" width="44" height="32" filterUnits="userSpaceOnUse">
      <feOffset dy="3" input="SourceAlpha"/>
      <feGaussianBlur stdDeviation="3" result="blur"/>
      <feFlood flood-opacity="0.161"/>
      <feComposite operator="in" in2="blur"/>
      <feComposite in="SourceGraphic"/>
    </filter>
  </defs>
  <g transform="matrix(1, 0, 0, 1, 0, 0)" filter="url(#Rectangle_88)">
    <g id="Rectangle_88-2" data-name="Rectangle 88" transform="translate(9 6)" fill="#74ecf2" stroke="#fff" stroke-width="1">
      <path d="M0,0H26a0,0,0,0,1,0,0V9a5,5,0,0,1-5,5H5A5,5,0,0,1,0,9V0A0,0,0,0,1,0,0Z" stroke="none"/>
      <path d="M1,.5H25a.5.5,0,0,1,.5.5V9A4.5,4.5,0,0,1,21,13.5H5A4.5,4.5,0,0,1,.5,9V1A.5.5,0,0,1,1,.5Z" fill="none"/>
    </g>
  </g>
</svg>
