<?xml version="1.0" encoding="UTF-8"?>
<!DOCTYPE svg PUBLIC "-//W3C//DTD SVG 1.1//EN" "http://www.w3.org/Graphics/SVG/1.1/DTD/svg11.dtd">
<!-- Creator: CorelDRAW 2019 (64-Bit) -->
<svg xmlns="http://www.w3.org/2000/svg" xml:space="preserve" width="3.3866mm" height="3.3866mm" version="1.1" style="shape-rendering:geometricPrecision; text-rendering:geometricPrecision; image-rendering:optimizeQuality; fill-rule:evenodd; clip-rule:evenodd"
viewBox="0 0 501.14 501.14"
 xmlns:xlink="http://www.w3.org/1999/xlink">
 <defs>
  <style type="text/css">
   <![CDATA[
    .fil1 {fill:#FEFEFE}
    .fil0 {fill:#E51A4B}
    .fil2 {fill:#E51A4B}
   ]]>
  </style>
 </defs>
 <g id="Layer_x0020_1">
  <metadata id="CorelCorpID_0Corel-Layer"/>
  <g id="_1895363137504">
   <path class="fil0" d="M230.99 0l38.76 0c12.33,1.24 22.45,5.36 32.95,17.36 4.01,4.57 6.79,11.32 8.39,17.06 1.61,5.85 2.12,15.05 2.12,22.34 7.1,1.66 23.82,9.26 30.35,12.73 4.87,-3.26 7.93,-8.35 12.71,-11.76 5.22,-3.74 9.35,-5.98 16.6,-7.86 30.14,-7.8 46.61,14.83 62.93,31.12 7.16,7.15 16.4,17.91 16.4,31.56 0,12.68 0.36,18.59 -7.22,29.97 -4.39,6.6 -9.71,9.65 -13.33,15.06 3.39,6.41 11.14,23.57 12.73,30.35 6.97,0 17.83,0.5 23.16,2.28 16.8,5.61 33.61,20.32 33.61,40.78l0 37.69c-1.17,12.81 -5.15,23.48 -16.91,33.49 -10.08,8.54 -21.75,11.04 -39.85,11.04 -1.58,6.78 -9.34,23.94 -12.73,30.35 4.59,6.84 20.55,16.94 20.55,36.21 0,25.79 -5.64,29.62 -24.22,48.21 -9.23,9.23 -21.84,24.22 -39.39,24.22 -32.81,0 -29.97,-10.46 -45.03,-20.55 -6.53,3.46 -23.25,11.07 -30.35,12.73 0,17.93 -2.5,29.14 -10.6,39.32 -6.16,7.75 -18.96,17.45 -32.47,17.45l-37.93 0c-13.02,-1.23 -24.08,-5.34 -33.69,-17.45 -8.36,-10.54 -10.6,-20.91 -10.6,-39.32 -2.4,-1.14 -5.5,-1.94 -7.96,-2.81l-22.39 -9.91c-6.84,4.59 -16.94,20.55 -36.21,20.55 -25.79,0 -29.62,-5.64 -48.21,-24.22 -9.23,-9.23 -24.22,-21.84 -24.22,-39.39 0,-12.68 -0.36,-18.59 7.22,-29.97 4.39,-6.6 9.71,-9.65 13.33,-15.06 -2.6,-4.91 -4.56,-9.38 -6.88,-14.65 -1.63,-3.68 -4.91,-11.68 -5.85,-15.7 -17.93,0 -29.14,-2.5 -39.32,-10.6 -7.75,-6.16 -17.45,-18.96 -17.45,-32.47l0 -38.76c1.24,-12.33 5.36,-22.45 17.36,-32.95 10.46,-9.19 25.73,-10.51 39.41,-10.51 1.61,-6.94 9.32,-23.91 12.73,-30.35 -3.63,-5.42 -8.94,-8.46 -13.33,-15.06 -3.54,-5.31 -7.22,-12.83 -7.22,-21.15 0,-25.79 5.64,-29.62 24.22,-48.21 9.23,-9.23 21.84,-24.22 39.39,-24.22 32.81,0 29.97,10.46 45.03,20.55 4.82,-2.55 9.4,-4.75 14.68,-6.85 2.59,-1.04 4.94,-2.07 7.71,-3.06 2.46,-0.87 5.56,-1.67 7.96,-2.81 0,-6.97 0.5,-17.83 2.28,-23.16 2.19,-6.57 4.13,-11.66 8.24,-16.25 6.93,-7.72 18.45,-17.36 32.54,-17.36z"/>
   <path class="fil1" d="M252.52 359.21c-18.51,0 -33.47,-3.09 -47,-9.77 -6.54,-3.24 -10.85,-5.59 -16.82,-9.6l-10.8 -8.78c-1.72,-1.58 -2.49,-1.83 -3.82,-3.03 -1.21,-1.11 -1.66,-1.94 -2.66,-3.21 -10.12,-12.7 -8.95,-7.87 -19.06,-27.92 -18.08,-35.87 -11.9,-86.31 14.78,-116.06 1.27,-1.44 2.13,-2.01 3.4,-3.45 1.69,-1.92 1.42,-2.15 2.97,-3.88 6.41,-7.09 22.12,-16.84 30.72,-21.16 33.61,-16.94 79.7,-12.77 109.4,9.69 17.14,12.96 25.73,23.07 35.81,43.48 13.07,26.49 13.07,63.6 0,90.09 -3.66,7.4 -9.86,18.47 -15.45,24.68l-13.18 13.23c-15.32,14.41 -44.78,25.69 -68.29,25.69z"/>
   <path class="fil2" d="M251.72 313.13c-10.65,0 -19.27,-1.79 -27.05,-5.62 -3.77,-1.86 -6.24,-3.23 -9.69,-5.53l-6.22 -5.05c-0.99,-0.92 -1.44,-1.07 -2.2,-1.75 -0.7,-0.64 -0.95,-1.12 -1.54,-1.85 -5.82,-7.31 -5.15,-4.53 -10.97,-16.07 -10.42,-20.66 -6.85,-49.71 8.51,-66.83 0.74,-0.83 1.23,-1.17 1.95,-1.98 0.98,-1.11 0.83,-1.24 1.72,-2.23 3.7,-4.08 12.74,-9.69 17.68,-12.19 19.36,-9.75 45.89,-7.35 62.99,5.59 9.87,7.46 14.81,13.27 20.61,25.02 7.52,15.26 7.52,36.62 0,51.87 -2.1,4.26 -5.67,10.64 -8.89,14.22l-7.59 7.62c-8.82,8.29 -25.78,14.78 -39.32,14.78z"/>
  </g>
 </g>
</svg>
