<?xml version="1.0" encoding="UTF-8"?>
<!DOCTYPE svg PUBLIC "-//W3C//DTD SVG 1.1//EN" "http://www.w3.org/Graphics/SVG/1.1/DTD/svg11.dtd">
<!-- Creator: CorelDRAW 2019 (64-Bit) -->
<svg xmlns="http://www.w3.org/2000/svg" xml:space="preserve" width="3.5866mm" height="3.5866mm" version="1.1" style="shape-rendering:geometricPrecision; text-rendering:geometricPrecision; image-rendering:optimizeQuality; fill-rule:evenodd; clip-rule:evenodd"
viewBox="0 0 516.91 516.91"
 xmlns:xlink="http://www.w3.org/1999/xlink">
 <defs>
  <style type="text/css">
   <![CDATA[
    .str0 {stroke:#FEFEFE;stroke-width:28.82;stroke-miterlimit:22.9256}
    .fil0 {fill:none}
    .fil1 {fill:#FEFEFE}
   ]]>
  </style>
 </defs>
 <g id="Layer_x0020_1">
  <metadata id="CorelCorpID_0Corel-Layer"/>
  <g id="_1931244459024">
   <path class="fil0 str0" d="M239.39 14.41l37.75 0c12.01,1.21 21.86,5.22 32.1,16.91 3.91,4.45 6.62,11.03 8.17,16.62 1.57,5.69 2.06,14.66 2.06,21.76 6.92,1.61 23.2,9.02 29.56,12.39 4.74,-3.17 7.72,-8.13 12.38,-11.46 5.09,-3.65 9.11,-5.82 16.17,-7.65 29.36,-7.6 45.4,14.44 61.29,30.31 6.98,6.96 15.97,17.44 15.97,30.74 0,12.35 0.35,18.1 -7.03,29.18 -4.28,6.43 -9.45,9.4 -12.99,14.67 3.3,6.24 10.85,22.96 12.39,29.56 6.79,0 17.37,0.49 22.55,2.22 16.36,5.46 32.73,19.79 32.73,39.72l0 36.71c-1.14,12.48 -5.02,22.87 -16.47,32.61 -9.81,8.32 -21.19,10.75 -38.81,10.75 -1.54,6.6 -9.09,23.32 -12.39,29.56 4.47,6.66 20.02,16.5 20.02,35.27 0,25.12 -5.49,28.85 -23.59,46.95 -8.99,8.99 -21.27,23.59 -38.37,23.59 -31.95,0 -29.18,-10.19 -43.86,-20.02 -6.36,3.37 -22.64,10.78 -29.56,12.39 0,17.47 -2.44,28.38 -10.32,38.29 -6,7.55 -18.46,16.99 -31.62,16.99l-36.94 0c-12.68,-1.2 -23.45,-5.2 -32.82,-16.99 -8.14,-10.26 -10.32,-20.36 -10.32,-38.29 -2.33,-1.11 -5.36,-1.89 -7.75,-2.74l-21.81 -9.66c-6.66,4.47 -16.5,20.02 -35.27,20.02 -25.12,0 -28.85,-5.49 -46.95,-23.59 -8.99,-8.99 -23.59,-21.27 -23.59,-38.37 0,-12.35 -0.35,-18.1 7.03,-29.18 4.28,-6.43 9.45,-9.4 12.99,-14.67 -2.54,-4.78 -4.44,-9.14 -6.7,-14.27 -1.59,-3.59 -4.78,-11.37 -5.69,-15.29 -17.47,0 -28.38,-2.44 -38.29,-10.32 -7.55,-6 -16.99,-18.46 -16.99,-31.62l0 -37.75c1.21,-12.01 5.22,-21.86 16.91,-32.1 10.19,-8.95 25.06,-10.23 38.38,-10.23 1.57,-6.76 9.08,-23.29 12.39,-29.56 -3.53,-5.27 -8.7,-8.24 -12.99,-14.67 -3.44,-5.17 -7.03,-12.5 -7.03,-20.59 0,-25.12 5.49,-28.85 23.59,-46.95 8.99,-8.99 21.27,-23.59 38.37,-23.59 31.95,0 29.18,10.19 43.86,20.02 4.7,-2.48 9.15,-4.63 14.3,-6.67 2.52,-1.01 4.81,-2.02 7.51,-2.98 2.39,-0.85 5.42,-1.63 7.75,-2.74 0,-6.79 0.49,-17.37 2.22,-22.55 2.13,-6.4 4.02,-11.36 8.03,-15.82 6.74,-7.52 17.97,-16.91 31.69,-16.91z"/>
   <path class="fil0 str0" d="M260.35 364.27c-18.03,0 -32.6,-3.01 -45.77,-9.51 -6.37,-3.16 -10.56,-5.45 -16.39,-9.35l-10.52 -8.55c-1.67,-1.54 -2.42,-1.79 -3.72,-2.95 -1.18,-1.08 -1.61,-1.89 -2.59,-3.13 -9.86,-12.37 -8.72,-7.67 -18.56,-27.2 -17.61,-34.93 -11.59,-84.07 14.4,-113.03 1.24,-1.4 2.08,-1.96 3.31,-3.36 1.64,-1.87 1.38,-2.09 2.9,-3.78 6.24,-6.9 21.55,-16.4 29.92,-20.61 32.73,-16.5 77.62,-12.44 106.55,9.44 16.69,12.63 25.06,22.47 34.88,42.34 12.73,25.8 12.73,61.94 0,87.74 -3.56,7.21 -9.6,17.99 -15.05,24.04l-12.84 12.88c-14.92,14.04 -43.61,25.02 -66.51,25.02z"/>
   <path class="fil1" d="M259.58 319.39c-10.38,0 -18.76,-1.74 -26.35,-5.48 -3.68,-1.82 -6.08,-3.14 -9.44,-5.39l-6.05 -4.91c-0.97,-0.89 -1.4,-1.04 -2.15,-1.7 -0.68,-0.62 -0.92,-1.1 -1.5,-1.8 -5.66,-7.12 -5.02,-4.41 -10.68,-15.65 -10.15,-20.12 -6.67,-48.41 8.29,-65.09 0.72,-0.81 1.2,-1.14 1.9,-1.93 0.95,-1.08 0.81,-1.21 1.67,-2.18 3.6,-3.98 12.41,-9.44 17.22,-11.88 18.85,-9.5 44.69,-7.16 61.35,5.45 9.61,7.26 14.43,12.93 20.08,24.37 7.32,14.86 7.32,35.67 0,50.51 -2.05,4.15 -5.52,10.36 -8.66,13.85l-7.39 7.42c-8.59,8.07 -25.11,14.4 -38.29,14.4z"/>
  </g>
 </g>
</svg>
