<svg xmlns="http://www.w3.org/2000/svg" xmlns:xlink="http://www.w3.org/1999/xlink" width="44" height="32" viewBox="0 0 44 32">
  <defs>
    <filter id="Rectangle_84" x="0" y="0" width="44" height="32" filterUnits="userSpaceOnUse">
      <feOffset dy="3" input="SourceAlpha"/>
      <feGaussianBlur stdDeviation="3" result="blur"/>
      <feFlood flood-opacity="0.161"/>
      <feComposite operator="in" in2="blur"/>
      <feComposite in="SourceGraphic"/>
    </filter>
  </defs>
  <g transform="matrix(1, 0, 0, 1, 0, 0)" filter="url(#Rectangle_84)">
    <g id="Rectangle_84-2" data-name="Rectangle 84" transform="translate(9 6)" fill="#74ecf2" stroke="#fff" stroke-width="1">
      <path d="M5,0H21a5,5,0,0,1,5,5v9a0,0,0,0,1,0,0H0a0,0,0,0,1,0,0V5A5,5,0,0,1,5,0Z" stroke="none"/>
      <path d="M5,.5H21A4.5,4.5,0,0,1,25.5,5v8a.5.5,0,0,1-.5.5H1A.5.5,0,0,1,.5,13V5A4.5,4.5,0,0,1,5,.5Z" fill="none"/>
    </g>
  </g>
</svg>
