<?xml version="1.0" encoding="UTF-8"?>
<!DOCTYPE svg PUBLIC "-//W3C//DTD SVG 1.1//EN" "http://www.w3.org/Graphics/SVG/1.1/DTD/svg11.dtd">
<!-- Creator: CorelDRAW 2019 (64-Bit) -->
<svg xmlns="http://www.w3.org/2000/svg" xml:space="preserve" width="34px" height="34px" version="1.1" style="shape-rendering:geometricPrecision; text-rendering:geometricPrecision; image-rendering:optimizeQuality; fill-rule:evenodd; clip-rule:evenodd"
viewBox="0 0 3.501 3.501"
 xmlns:xlink="http://www.w3.org/1999/xlink">
 <defs>
  <style type="text/css">
   <![CDATA[
    .fil1 {fill:white;fill-rule:nonzero}
    .fil0 {fill:url(#id0);fill-rule:nonzero}
   ]]>
  </style>
  <linearGradient id="id0" gradientUnits="userSpaceOnUse" x1="3.501" y1="0" x2="0" y2="3.501">
   <stop offset="0" style="stop-opacity:1; stop-color:#4872B6"/>
   <stop offset="0.6" style="stop-opacity:1; stop-color:#3948A8"/>
   <stop offset="1" style="stop-opacity:1; stop-color:#2A1D99"/>
  </linearGradient>
 </defs>
 <g id="Layer_x0020_1">
  <metadata id="CorelCorpID_0Corel-Layer"/>
  <g id="_2789096136368">
   <path class="fil0" d="M0 2.585l0 -1.669c0,-0.504 0.412,-0.916 0.916,-0.916l1.669 0c0.504,0 0.916,0.412 0.916,0.916l0 1.669c0,0.504 -0.412,0.916 -0.916,0.916l-0.561 0 -0.294 -0.072 -0.253 0.072 -0.561 0c-0.504,0 -0.916,-0.412 -0.916,-0.916z"/>
   <path class="fil1" d="M2.432 2.314l0.077 -0.506 -0.485 0 0 -0.328c0,-0.139 0.068,-0.274 0.285,-0.274l0.221 0 0 -0.43c0,0 -0.2,-0.035 -0.392,-0.035 -0.4,0 -0.661,0.243 -0.661,0.681l0 0.386 -0.445 0 0 0.506 0.445 0 0 1.187 0.547 0 0 -1.187 0.408 0z"/>
  </g>
 </g>
</svg>
