<?xml version="1.0" encoding="UTF-8"?>
<!DOCTYPE svg PUBLIC "-//W3C//DTD SVG 1.1//EN" "http://www.w3.org/Graphics/SVG/1.1/DTD/svg11.dtd">
<!-- Creator: CorelDRAW 2019 (64-Bit) -->
<svg xmlns="http://www.w3.org/2000/svg" xml:space="preserve" width="34px" height="34px" version="1.1" style="shape-rendering:geometricPrecision; text-rendering:geometricPrecision; image-rendering:optimizeQuality; fill-rule:evenodd; clip-rule:evenodd"
viewBox="0 0 8.168 8.168"
 xmlns:xlink="http://www.w3.org/1999/xlink">
 <defs>
  <style type="text/css">
   <![CDATA[
    .fil1 {fill:white;fill-rule:nonzero}
    .fil0 {fill:url(#id0);fill-rule:nonzero}
   ]]>
  </style>
  <linearGradient id="id0" gradientUnits="userSpaceOnUse" x1="8.168" y1="0" x2="0" y2="8.168">
   <stop offset="0" style="stop-opacity:1; stop-color:#0079B5"/>
   <stop offset="0.509804" style="stop-opacity:1; stop-color:#0060CC"/>
   <stop offset="1" style="stop-opacity:1; stop-color:#0046E4"/>
  </linearGradient>
 </defs>
 <g id="Layer_x0020_1">
  <metadata id="CorelCorpID_0Corel-Layer"/>
  <g id="_2789096135120">
   <path class="fil0" d="M0 6.032l0 -3.895c0,-1.175 0.961,-2.137 2.137,-2.137l3.894 0c1.176,0 2.137,0.962 2.137,2.137l0 3.895c0,1.175 -0.961,2.136 -2.137,2.136l-3.894 0c-1.176,0 -2.137,-0.961 -2.137,-2.136z"/>
   <path class="fil1" d="M2.371 3.324l0.791 0 0 2.54 -0.791 0 0 -2.54zm0.396 -1.263l0 0c0.253,0 0.458,0.205 0.458,0.457 0,0.253 -0.205,0.459 -0.458,0.459 -0.254,0 -0.459,-0.206 -0.459,-0.459 0,-0.252 0.205,-0.457 0.459,-0.457z"/>
   <path class="fil1" d="M3.658 3.324l0.758 0 0 0.347 0.01 0c0.106,-0.2 0.363,-0.41 0.748,-0.41 0.799,0 0.947,0.525 0.947,1.21l0 1.393 -0.789 0 0 -1.235c0,-0.295 -0.006,-0.674 -0.411,-0.674 -0.411,0 -0.474,0.321 -0.474,0.652l0 1.257 -0.789 0 0 -2.54z"/>
  </g>
 </g>
</svg>
