<?xml version="1.0" encoding="UTF-8"?>
<!DOCTYPE svg PUBLIC "-//W3C//DTD SVG 1.1//EN" "http://www.w3.org/Graphics/SVG/1.1/DTD/svg11.dtd">
<!-- Creator: CorelDRAW 2019 (64-Bit) -->
<svg xmlns="http://www.w3.org/2000/svg" xml:space="preserve" width="31px" height="30px" version="1.1" style="shape-rendering:geometricPrecision; text-rendering:geometricPrecision; image-rendering:optimizeQuality; fill-rule:evenodd; clip-rule:evenodd"
viewBox="0 0 23.602 22.665"
 xmlns:xlink="http://www.w3.org/1999/xlink">
 <defs>
  <style type="text/css">
   <![CDATA[
    .fil0 {fill:white}
    .fil1 {fill:#74ECF2;fill-rule:nonzero}
   ]]>
  </style>
 </defs>
 <g id="Layer_x0020_1">
  <metadata id="CorelCorpID_0Corel-Layer"/>
  <g>
   <path class="fil0" d="M8.074 7.18l-2.187 0.192c-0.313,0.04 -0.712,0.053 -1.065,0.103l-3.301 0.291c-0.741,0.052 -1.164,0.571 -1.214,1.133l0 0.225c0.027,0.311 0.17,0.618 0.438,0.851 0.083,0.072 0.095,0.068 0.177,0.137l4.817 4.207 -1.355 5.918c-0.147,0.626 -0.36,1.195 0.197,1.751 0.831,0.828 1.703,0.074 2.525,-0.42l4.695 -2.804 5.425 3.241c0.545,0.33 1.166,0.591 1.772,0.005 0.581,-0.562 0.372,-1.11 0.23,-1.737l-1.365 -5.954 4.971 -4.324c0.28,-0.232 0.431,-0.545 0.462,-0.864l0 -0.242c-0.053,-0.555 -0.472,-1.066 -1.216,-1.122 -1.69,-0.129 -3.889,-0.411 -5.431,-0.496 -0.365,-0.021 -0.775,-0.091 -1.121,-0.091 -0.018,-0.21 -2.163,-5.126 -2.347,-5.555 -0.131,-0.307 -0.24,-0.635 -0.429,-0.874 -0.462,-0.584 -1.405,-0.593 -1.882,-0.025 -0.27,0.323 -2.065,4.667 -2.411,5.492 -0.086,0.207 -0.37,0.781 -0.385,0.962z"/>
   <path id="1" class="fil1" d="M5.86 7.067l2.187 -0.192 0.054 0.61 -2.187 0.192 -0.066 -0.609 0.012 -0.001zm-0.012 0.001l0.012 -0.001 -0.004 0 -0.008 0.001zm-0.999 0.712l-0.054 -0.61 -0.016 0.001 0.036 -0.004 0.035 -0.005 0.036 -0.005 0.035 -0.004 0.036 -0.004 0.036 -0.004 0.034 -0.003 0.037 -0.004 0.036 -0.003 0.035 -0.004 0.037 -0.003 0.034 -0.002 0.034 -0.004 0.037 -0.002 0.034 -0.003 0.035 -0.003 0.034 -0.002 0.033 -0.003 0.034 -0.003 0.034 -0.002 0.033 -0.003 0.033 -0.003 0.033 -0.002 0.03 -0.003 0.033 -0.003 0.032 -0.003 0.028 -0.003 0.032 -0.003 0.028 -0.003 0.028 -0.003 0.029 -0.004 0.028 -0.003 0.077 0.608 -0.031 0.004 -0.031 0.004 -0.033 0.004 -0.034 0.003 -0.031 0.003 -0.035 0.004 -0.032 0.002 -0.033 0.004 -0.035 0.002 -0.033 0.003 -0.033 0.003 -0.034 0.002 -0.034 0.003 -0.034 0.003 -0.034 0.002 -0.035 0.003 -0.034 0.003 -0.035 0.002 -0.032 0.003 -0.034 0.003 -0.035 0.003 -0.032 0.003 -0.035 0.003 -0.033 0.003 -0.032 0.004 -0.034 0.003 -0.032 0.003 -0.032 0.004 -0.034 0.004 -0.032 0.004 -0.031 0.004 -0.03 0.005 -0.017 0.001zm0.017 -0.001l-0.007 0 -0.01 0.001 0.017 -0.001zm-3.372 -0.318l3.301 -0.291 0.054 0.61 -3.301 0.292 -0.005 0 -0.049 -0.611zm0.054 0.611l-0.005 0 0.003 0 0.002 0zm-0.935 0.827l-0.613 0 0.001 -0.027 0.008 -0.066 0.009 -0.064 0.013 -0.064 0.015 -0.065 0.018 -0.063 0.02 -0.062 0.024 -0.062 0.026 -0.061 0.029 -0.059 0.031 -0.059 0.035 -0.058 0.035 -0.054 0.04 -0.055 0.042 -0.054 0.045 -0.052 0.046 -0.049 0.049 -0.047 0.053 -0.046 0.054 -0.044 0.057 -0.041 0.06 -0.039 0.061 -0.036 0.064 -0.034 0.066 -0.031 0.068 -0.029 0.07 -0.026 0.073 -0.023 0.074 -0.02 0.076 -0.017 0.078 -0.013 0.078 -0.011 0.082 -0.007 0.043 0.611 -0.056 0.005 -0.054 0.008 -0.052 0.009 -0.05 0.011 -0.048 0.012 -0.045 0.015 -0.044 0.016 -0.043 0.018 -0.041 0.019 -0.038 0.021 -0.038 0.022 -0.035 0.023 -0.034 0.025 -0.033 0.026 -0.03 0.027 -0.03 0.028 -0.028 0.03 -0.026 0.03 -0.024 0.03 -0.023 0.032 -0.023 0.036 -0.02 0.033 -0.018 0.035 -0.018 0.037 -0.015 0.035 -0.014 0.036 -0.012 0.039 -0.012 0.039 -0.009 0.037 -0.007 0.04 -0.006 0.041 -0.005 0.039 0.001 -0.027zm-0.613 0l0 -0.012 0.001 -0.015 -0.001 0.027zm0 0.225l0 -0.225 0.613 0 0 0.225 -0.612 0.027 -0.001 -0.027zm0.001 0.027l-0.001 -0.015 0 -0.012 0.001 0.027zm0.945 0.593l-0.403 0.462 0 0 -0.03 -0.027 -0.029 -0.028 -0.028 -0.027 -0.029 -0.03 -0.027 -0.029 -0.026 -0.03 -0.026 -0.031 -0.022 -0.028 -0.024 -0.031 -0.023 -0.032 -0.022 -0.033 -0.021 -0.031 -0.02 -0.033 -0.019 -0.033 -0.018 -0.033 -0.017 -0.033 -0.017 -0.034 -0.016 -0.036 -0.014 -0.034 -0.014 -0.034 -0.013 -0.035 -0.013 -0.035 -0.01 -0.035 -0.011 -0.035 -0.01 -0.037 -0.008 -0.034 -0.008 -0.036 -0.007 -0.038 -0.006 -0.033 -0.006 -0.037 -0.005 -0.038 -0.003 -0.035 0.611 -0.054 0.002 0.023 0.003 0.02 0.003 0.022 0.004 0.024 0.004 0.021 0.005 0.021 0.006 0.024 0.005 0.02 0.006 0.022 0.007 0.021 0.008 0.022 0.008 0.021 0.008 0.021 0.009 0.022 0.009 0.019 0.01 0.021 0.011 0.021 0.012 0.02 0.011 0.02 0.012 0.02 0.013 0.02 0.013 0.019 0.013 0.019 0.015 0.019 0.016 0.02 0.016 0.019 0.015 0.018 0.017 0.018 0.017 0.017 0.018 0.018 0.019 0.018 0.019 0.017 0 0zm0.178 0.137l-0.404 0.462 0.005 0.003 -0.008 -0.006 -0.006 -0.005 0.003 0.003 -0.009 -0.008 -0.009 -0.007 0 0 -0.01 -0.007 0.003 0.002 0.002 0.001 -0.01 -0.007 -0.003 -0.002 -0.01 -0.007 -0.005 -0.004 0.004 0.003 -0.004 -0.003 0.004 0.002 -0.013 -0.008 -0.013 -0.01 0.009 0.007 -0.013 -0.009 -0.012 -0.009 0.001 0.001 -0.007 -0.005 -0.007 -0.006 -0.012 -0.009 -0.008 -0.006 -0.007 -0.006 -0.007 -0.006 -0.008 -0.006 -0.008 -0.007 -0.008 -0.007 -0.011 -0.009 0.403 -0.462 0.005 0.004 0.005 0.005 0.006 0.005 0.005 0.004 0.005 0.004 0.006 0.004 0.003 0.003 -0.001 -0.001 0.003 0.003 0.003 0.002 0.011 0.007 -0.003 -0.001 -0.003 -0.003 0.018 0.013 -0.004 -0.002 -0.004 -0.003 0.013 0.009 0.004 0.003 0.013 0.009 0.005 0.003 -0.001 -0.001 0.006 0.005 0 0 0.013 0.009 0.013 0.01 0.002 0.002 0.012 0.009 0.003 0.002 0.003 0.003 0.017 0.013 0.008 0.007 0.007 0.006 0.005 0.004zm-0.005 -0.004l0.005 0.004 0.005 0.005 -0.01 -0.009zm4.419 4.673l-4.818 -4.207 0.404 -0.462 4.817 4.207 0.097 0.299 -0.5 0.163zm0.403 -0.462l0.138 0.121 -0.041 0.178 -0.097 -0.299zm-1.856 6.081l1.356 -5.918 0.597 0.136 -1.356 5.918 0 0.002 -0.597 -0.138zm0.597 0.136l0 0.002 -0.019 0.083 0.019 -0.085zm0.116 1.466l-0.433 0.434 0 0 -0.059 -0.062 -0.056 -0.063 -0.05 -0.065 -0.048 -0.065 -0.042 -0.067 -0.037 -0.065 -0.034 -0.069 -0.029 -0.069 -0.025 -0.067 -0.022 -0.069 -0.016 -0.069 -0.014 -0.069 -0.01 -0.068 -0.007 -0.068 -0.003 -0.067 -0.001 -0.066 0.002 -0.067 0.004 -0.065 0.005 -0.063 0.008 -0.064 0.009 -0.062 0.011 -0.061 0.011 -0.062 0.013 -0.06 0.013 -0.06 0.013 -0.059 0.014 -0.059 0.014 -0.059 0.015 -0.058 0.014 -0.056 0.014 -0.058 0.013 -0.057 0.597 0.14 -0.014 0.059 -0.014 0.06 -0.015 0.06 -0.014 0.057 -0.014 0.055 -0.013 0.055 -0.012 0.053 -0.011 0.054 -0.011 0.052 -0.01 0.05 -0.008 0.05 -0.007 0.048 -0.006 0.047 -0.004 0.046 -0.003 0.045 -0.001 0.042 0.001 0.043 0.002 0.041 0.004 0.04 0.005 0.039 0.008 0.039 0.009 0.037 0.012 0.037 0.014 0.039 0.016 0.037 0.018 0.037 0.022 0.04 0.025 0.038 0.028 0.04 0.032 0.041 0.036 0.04 0.041 0.043 0 0zm2.151 -0.467l0.314 0.527 0.001 -0.001 -0.075 0.046 -0.075 0.046 -0.076 0.049 -0.078 0.049 -0.079 0.051 -0.079 0.049 -0.081 0.051 -0.081 0.05 -0.082 0.048 -0.084 0.049 -0.085 0.047 -0.085 0.045 -0.087 0.042 -0.089 0.041 -0.09 0.037 -0.091 0.034 -0.094 0.03 -0.094 0.025 -0.096 0.02 -0.099 0.015 -0.1 0.008 -0.101 0.001 -0.103 -0.006 -0.104 -0.014 -0.104 -0.023 -0.103 -0.032 -0.101 -0.041 -0.101 -0.05 -0.099 -0.06 -0.096 -0.068 -0.095 -0.078 -0.092 -0.086 0.433 -0.434 0.064 0.06 0.061 0.051 0.061 0.042 0.059 0.036 0.056 0.028 0.057 0.022 0.054 0.017 0.056 0.013 0.054 0.008 0.056 0.003 0.058 -0.001 0.058 -0.005 0.062 -0.009 0.063 -0.013 0.064 -0.018 0.066 -0.021 0.068 -0.025 0.069 -0.029 0.07 -0.032 0.072 -0.035 0.074 -0.039 0.073 -0.04 0.074 -0.043 0.076 -0.045 0.076 -0.047 0.076 -0.047 0.078 -0.05 0.078 -0.049 0.078 -0.049 0.079 -0.051 0.08 -0.05 0.08 -0.048 0.001 -0.001zm-0.001 0.001l0.001 -0.001 -0.022 0.013 0.021 -0.012zm5.01 -2.278l-4.695 2.804 -0.314 -0.527 4.695 -2.803 0.314 0 0 0.526zm-0.314 -0.526l0.157 -0.094 0.157 0.094 -0.314 0zm5.425 3.768l-5.425 -3.242 0.314 -0.526 5.425 3.241 0.001 0.001 -0.315 0.526zm0.314 -0.527l0.001 0.001 -0.013 -0.008 0.012 0.007zm1.402 0.047l0.426 0.441 0 0 -0.067 0.062 -0.068 0.057 -0.07 0.053 -0.071 0.048 -0.072 0.044 -0.073 0.037 -0.073 0.033 -0.073 0.028 -0.076 0.024 -0.075 0.019 -0.073 0.013 -0.075 0.01 -0.073 0.005 -0.072 0.002 -0.073 -0.003 -0.072 -0.006 -0.069 -0.01 -0.069 -0.012 -0.069 -0.015 -0.065 -0.018 -0.066 -0.019 -0.065 -0.023 -0.063 -0.024 -0.062 -0.025 -0.061 -0.028 -0.061 -0.028 -0.057 -0.029 -0.059 -0.03 -0.057 -0.032 -0.055 -0.031 -0.055 -0.032 -0.055 -0.032 0.317 -0.525 0.048 0.028 0.049 0.029 0.05 0.028 0.047 0.026 0.047 0.025 0.049 0.024 0.047 0.023 0.047 0.02 0.046 0.019 0.047 0.018 0.044 0.015 0.045 0.014 0.045 0.011 0.043 0.01 0.043 0.008 0.042 0.006 0.041 0.003 0.04 0.001 0.041 0 0.04 -0.003 0.039 -0.005 0.039 -0.007 0.04 -0.01 0.038 -0.012 0.04 -0.016 0.042 -0.018 0.041 -0.022 0.042 -0.024 0.043 -0.03 0.044 -0.033 0.046 -0.038 0.046 -0.043 0 -0.001zm0.144 -1.448l0.597 -0.136 0.001 0 0.013 0.056 0.013 0.058 0.014 0.057 0.014 0.057 0.013 0.058 0.014 0.059 0.013 0.058 0.013 0.06 0.012 0.061 0.01 0.06 0.01 0.06 0.009 0.063 0.007 0.064 0.005 0.064 0.003 0.063 0.001 0.065 -0.002 0.066 -0.006 0.068 -0.007 0.067 -0.012 0.067 -0.014 0.069 -0.02 0.069 -0.022 0.068 -0.027 0.068 -0.031 0.068 -0.035 0.066 -0.04 0.067 -0.044 0.066 -0.048 0.065 -0.053 0.064 -0.057 0.062 -0.062 0.062 -0.426 -0.441 0.043 -0.043 0.038 -0.042 0.034 -0.041 0.03 -0.041 0.027 -0.039 0.022 -0.038 0.021 -0.039 0.017 -0.037 0.014 -0.037 0.013 -0.037 0.01 -0.037 0.008 -0.037 0.007 -0.039 0.005 -0.039 0.002 -0.039 0.001 -0.041 0 -0.042 -0.002 -0.044 -0.004 -0.045 -0.004 -0.045 -0.007 -0.045 -0.008 -0.05 -0.009 -0.051 -0.01 -0.05 -0.011 -0.051 -0.012 -0.054 -0.013 -0.055 -0.013 -0.055 -0.014 -0.058 -0.013 -0.058 -0.015 -0.059 -0.013 -0.06 0 0zm0.597 -0.136l0.001 0 0.036 0.163 -0.037 -0.163zm-1.364 -5.954l1.364 5.954 -0.597 0.136 -1.365 -5.954 0.098 -0.299 0.5 0.163zm-0.598 0.136l-0.041 -0.179 0.139 -0.12 -0.098 0.299zm5.471 -4.16l-4.971 4.323 -0.402 -0.462 4.97 -4.324 0.006 -0.005 0.397 0.468zm-0.403 -0.463l0.006 -0.005 -0.003 0.003 -0.003 0.002zm0.357 -0.633l0.613 0 -0.001 0.029 -0.004 0.038 -0.005 0.036 -0.006 0.037 -0.006 0.036 -0.007 0.036 -0.009 0.039 -0.01 0.036 -0.01 0.036 -0.011 0.038 -0.012 0.035 -0.012 0.033 -0.014 0.038 -0.016 0.036 -0.015 0.033 -0.017 0.036 -0.017 0.034 -0.018 0.034 -0.019 0.035 -0.021 0.033 -0.02 0.033 -0.022 0.033 -0.024 0.032 -0.023 0.031 -0.024 0.032 -0.027 0.031 -0.026 0.031 -0.026 0.028 -0.029 0.03 -0.03 0.029 -0.029 0.028 -0.031 0.028 -0.032 0.027 -0.391 -0.473 0.02 -0.017 0.019 -0.017 0.02 -0.018 0.018 -0.018 0.017 -0.017 0.018 -0.02 0.016 -0.018 0.015 -0.019 0.015 -0.019 0.015 -0.021 0.014 -0.019 0.013 -0.019 0.013 -0.021 0.013 -0.02 0.011 -0.021 0.011 -0.021 0.012 -0.021 0.009 -0.02 0.01 -0.024 0.009 -0.019 0.007 -0.021 0.009 -0.024 0.008 -0.023 0.006 -0.02 0.006 -0.023 0.006 -0.022 0.005 -0.021 0.004 -0.023 0.005 -0.023 0.003 -0.023 0.003 -0.023 0.002 -0.022 -0.001 0.029zm0.613 0l0 0.014 -0.001 0.015 0.001 -0.029zm0 -0.242l0 0.242 -0.613 0 0 -0.242 0.611 -0.029 0.002 0.029zm-0.002 -0.029l0.002 0.019 0 0.01 -0.002 -0.029zm-1.543 -0.787l0.046 -0.612 0 0 0.081 0.008 0.079 0.011 0.079 0.014 0.076 0.017 0.073 0.02 0.072 0.023 0.07 0.026 0.068 0.028 0.066 0.031 0.064 0.034 0.06 0.036 0.059 0.038 0.059 0.042 0.054 0.043 0.051 0.045 0.049 0.047 0.048 0.049 0.044 0.052 0.041 0.051 0.04 0.055 0.036 0.055 0.034 0.056 0.032 0.059 0.028 0.058 0.027 0.061 0.023 0.062 0.02 0.059 0.019 0.063 0.015 0.065 0.013 0.062 0.01 0.064 0.007 0.065 -0.609 0.058 -0.005 -0.038 -0.006 -0.039 -0.009 -0.04 -0.008 -0.038 -0.011 -0.037 -0.013 -0.039 -0.014 -0.036 -0.016 -0.035 -0.017 -0.036 -0.018 -0.033 -0.021 -0.035 -0.021 -0.033 -0.023 -0.031 -0.025 -0.032 -0.026 -0.029 -0.027 -0.028 -0.03 -0.029 -0.031 -0.027 -0.032 -0.026 -0.033 -0.023 -0.036 -0.023 -0.039 -0.023 -0.038 -0.021 -0.041 -0.019 -0.042 -0.018 -0.044 -0.016 -0.047 -0.015 -0.049 -0.013 -0.049 -0.011 -0.052 -0.01 -0.055 -0.007 -0.056 -0.005 0 0zm-5.425 -0.496l0.035 -0.612 -0.001 0 0.148 0.009 0.152 0.01 0.155 0.01 0.158 0.012 0.161 0.013 0.164 0.013 0.166 0.014 0.168 0.015 0.171 0.016 0.172 0.016 0.173 0.017 0.175 0.016 0.177 0.018 0.177 0.018 0.178 0.018 0.179 0.018 0.179 0.018 0.179 0.019 0.179 0.018 0.18 0.018 0.177 0.018 0.179 0.018 0.177 0.018 0.175 0.017 0.174 0.017 0.173 0.017 0.171 0.015 0.169 0.016 0.167 0.015 0.164 0.014 0.161 0.013 0.159 0.012 -0.046 0.612 -0.161 -0.013 -0.164 -0.013 -0.167 -0.015 -0.168 -0.015 -0.17 -0.015 -0.173 -0.016 -0.173 -0.017 -0.176 -0.017 -0.176 -0.017 -0.177 -0.018 -0.179 -0.018 -0.179 -0.018 -0.179 -0.019 -0.179 -0.017 -0.179 -0.019 -0.179 -0.018 -0.178 -0.018 -0.179 -0.018 -0.176 -0.018 -0.175 -0.018 -0.174 -0.016 -0.173 -0.017 -0.171 -0.016 -0.169 -0.015 -0.166 -0.015 -0.164 -0.014 -0.162 -0.014 -0.159 -0.012 -0.154 -0.011 -0.153 -0.011 -0.148 -0.01 -0.145 -0.008 0 0zm0 0l0 0 0.358 0.02 -0.358 -0.02zm-1.41 -0.371l0.611 -0.052 -0.305 -0.281 0.037 0.001 0.037 0.001 0.035 0 0.035 0.002 0.038 0.001 0.039 0.003 0.033 0.002 0.037 0.002 0.039 0.003 0.037 0.004 0.035 0.003 0.037 0.003 0.038 0.004 0.035 0.004 0.036 0.003 0.037 0.004 0.036 0.004 0.036 0.003 0.038 0.005 0.034 0.003 0.036 0.004 0.036 0.004 0.034 0.004 0.036 0.003 0.034 0.003 0.033 0.004 0.036 0.003 0.034 0.003 0.033 0.002 0.033 0.003 0.032 0.002 0.033 0.002 -0.035 0.612 -0.037 -0.002 -0.037 -0.003 -0.036 -0.002 -0.037 -0.003 -0.037 -0.004 -0.036 -0.003 -0.037 -0.003 -0.037 -0.004 -0.036 -0.004 -0.038 -0.003 -0.036 -0.004 -0.036 -0.004 -0.037 -0.004 -0.034 -0.004 -0.036 -0.003 -0.036 -0.004 -0.034 -0.004 -0.036 -0.004 -0.036 -0.003 -0.034 -0.003 -0.033 -0.004 -0.036 -0.003 -0.033 -0.003 -0.031 -0.002 -0.033 -0.002 -0.035 -0.003 -0.03 -0.001 -0.03 -0.002 -0.032 -0.001 -0.031 -0.001 -0.028 -0.001 -0.029 0.001 -0.306 -0.281zm0.306 0.281l-0.282 0 -0.024 -0.281 0.306 0.281zm-2.629 -5.742l0.563 -0.241 0 0 0.023 0.052 0.033 0.078 0.044 0.1 0.053 0.122 0.061 0.142 0.069 0.158 0.076 0.176 0.083 0.19 0.088 0.203 0.093 0.214 0.096 0.224 0.1 0.231 0.103 0.238 0.104 0.242 0.105 0.244 0.105 0.245 0.106 0.246 0.103 0.243 0.102 0.238 0.099 0.233 0.096 0.226 0.091 0.217 0.087 0.206 0.08 0.194 0.075 0.18 0.067 0.165 0.06 0.147 0.051 0.129 0.042 0.11 0.033 0.089 0.024 0.073 0.019 0.095 -0.611 0.052 0.005 0.028 -0.016 -0.045 -0.028 -0.077 -0.039 -0.101 -0.049 -0.125 -0.058 -0.144 -0.067 -0.162 -0.074 -0.179 -0.08 -0.192 -0.086 -0.206 -0.091 -0.215 -0.095 -0.225 -0.099 -0.232 -0.102 -0.239 -0.103 -0.242 -0.105 -0.245 -0.105 -0.245 -0.105 -0.244 -0.104 -0.242 -0.103 -0.237 -0.1 -0.231 -0.097 -0.224 -0.092 -0.213 -0.088 -0.203 -0.082 -0.19 -0.076 -0.175 -0.069 -0.16 -0.061 -0.141 -0.053 -0.122 -0.044 -0.101 -0.034 -0.078 -0.023 -0.054 0 0zm-0.387 -0.804l0.48 -0.381 0.001 0.001 0.021 0.028 0.022 0.029 0.02 0.029 0.02 0.029 0.02 0.031 0.018 0.03 0.017 0.029 0.016 0.029 0.017 0.029 0.016 0.031 0.017 0.032 0.014 0.03 0.014 0.029 0.014 0.03 0.015 0.031 0.014 0.031 0.014 0.03 0.012 0.029 0.013 0.03 0.014 0.032 0.011 0.03 0.013 0.029 0.011 0.029 0.013 0.03 0.011 0.029 0.013 0.029 0.012 0.031 0.01 0.027 0.012 0.027 0.012 0.029 0.012 0.028 0.011 0.027 -0.563 0.241 -0.013 -0.03 -0.013 -0.029 -0.012 -0.03 -0.012 -0.031 -0.013 -0.03 -0.011 -0.028 -0.012 -0.029 -0.012 -0.03 -0.011 -0.028 -0.012 -0.029 -0.012 -0.029 -0.012 -0.028 -0.01 -0.025 -0.012 -0.028 -0.013 -0.028 -0.011 -0.026 -0.011 -0.026 -0.012 -0.024 -0.011 -0.025 -0.013 -0.025 -0.013 -0.026 -0.01 -0.021 -0.012 -0.021 -0.013 -0.024 -0.013 -0.022 -0.013 -0.022 -0.012 -0.02 -0.011 -0.018 -0.013 -0.019 -0.013 -0.019 -0.013 -0.017 -0.013 -0.017 0 0zm0.48 -0.381l0.001 0.001 0.027 0.035 -0.028 -0.036zm-1.887 0.363l-0.47 -0.394 0 0 0.059 -0.066 0.062 -0.061 0.064 -0.056 0.067 -0.053 0.071 -0.048 0.072 -0.044 0.073 -0.039 0.076 -0.035 0.077 -0.031 0.079 -0.027 0.08 -0.021 0.079 -0.018 0.081 -0.014 0.082 -0.01 0.082 -0.005 0.081 -0.001 0.082 0.003 0.082 0.007 0.082 0.012 0.08 0.016 0.079 0.019 0.079 0.024 0.077 0.029 0.078 0.032 0.075 0.038 0.073 0.041 0.07 0.046 0.069 0.05 0.066 0.054 0.064 0.059 0.06 0.064 0.056 0.066 -0.48 0.381 -0.033 -0.039 -0.034 -0.036 -0.036 -0.033 -0.038 -0.031 -0.04 -0.03 -0.042 -0.027 -0.043 -0.024 -0.044 -0.022 -0.045 -0.019 -0.047 -0.017 -0.048 -0.015 -0.049 -0.012 -0.05 -0.01 -0.05 -0.007 -0.049 -0.004 -0.051 -0.002 -0.051 0.001 -0.051 0.003 -0.049 0.006 -0.049 0.008 -0.051 0.011 -0.048 0.014 -0.046 0.015 -0.046 0.019 -0.046 0.02 -0.043 0.024 -0.043 0.025 -0.04 0.028 -0.038 0.03 -0.038 0.034 -0.036 0.035 -0.033 0.037 0 0zm-2.363 5.413l-0.566 -0.237 0 0 0.037 -0.087 0.044 -0.106 0.052 -0.125 0.059 -0.141 0.065 -0.156 0.071 -0.17 0.077 -0.182 0.08 -0.193 0.085 -0.203 0.089 -0.211 0.091 -0.218 0.094 -0.223 0.097 -0.228 0.097 -0.23 0.098 -0.231 0.099 -0.231 0.099 -0.231 0.098 -0.227 0.096 -0.223 0.095 -0.218 0.092 -0.21 0.09 -0.203 0.086 -0.192 0.082 -0.183 0.078 -0.169 0.073 -0.156 0.067 -0.142 0.062 -0.126 0.056 -0.11 0.051 -0.093 0.046 -0.078 0.053 -0.074 0.47 0.394 -0.006 0.01 -0.03 0.05 -0.041 0.076 -0.051 0.1 -0.058 0.118 -0.064 0.135 -0.071 0.153 -0.077 0.167 -0.081 0.178 -0.085 0.192 -0.089 0.2 -0.092 0.209 -0.094 0.216 -0.095 0.222 -0.098 0.226 -0.098 0.229 -0.099 0.231 -0.098 0.231 -0.097 0.229 -0.096 0.227 -0.094 0.223 -0.091 0.217 -0.088 0.211 -0.085 0.202 -0.082 0.194 -0.075 0.181 -0.071 0.17 -0.065 0.156 -0.059 0.141 -0.052 0.125 -0.044 0.106 -0.037 0.088 0 0zm-0.641 1.149l-0.054 -0.61 -0.278 0.28 0.005 -0.039 0.006 -0.034 0.007 -0.035 0.009 -0.034 0.01 -0.035 0.012 -0.034 0.01 -0.032 0.012 -0.034 0.014 -0.035 0.013 -0.036 0.014 -0.035 0.015 -0.038 0.015 -0.036 0.016 -0.037 0.015 -0.037 0.017 -0.039 0.017 -0.037 0.015 -0.034 0.017 -0.038 0.017 -0.038 0.014 -0.033 0.016 -0.034 0.016 -0.036 0.015 -0.032 0.014 -0.032 0.014 -0.03 0.013 -0.028 0.012 -0.028 0.011 -0.025 0.011 -0.023 0.008 -0.019 0.007 -0.019 0.566 0.237 -0.009 0.023 -0.012 0.026 -0.011 0.025 -0.012 0.027 -0.013 0.028 -0.013 0.029 -0.014 0.031 -0.015 0.032 -0.014 0.032 -0.015 0.032 -0.015 0.035 -0.017 0.036 -0.015 0.033 -0.015 0.035 -0.016 0.037 -0.016 0.034 -0.014 0.033 -0.014 0.035 -0.015 0.035 -0.013 0.032 -0.013 0.032 -0.012 0.031 -0.012 0.03 -0.01 0.028 -0.009 0.027 -0.009 0.025 -0.007 0.021 -0.005 0.017 -0.004 0.014 -0.002 0.011 -0.001 0.006 0 -0.003 -0.279 0.28zm0.279 -0.28l-0.021 0.258 -0.258 0.022 0.279 -0.28z"/>
  </g>
 </g>
</svg>
