<?xml version="1.0" encoding="UTF-8"?>
<!DOCTYPE svg PUBLIC "-//W3C//DTD SVG 1.1//EN" "http://www.w3.org/Graphics/SVG/1.1/DTD/svg11.dtd">
<!-- Creator: CorelDRAW 2019 (64-Bit) -->
<svg xmlns="http://www.w3.org/2000/svg" xml:space="preserve" width="119px" height="108px" version="1.1" style="shape-rendering:geometricPrecision; text-rendering:geometricPrecision; image-rendering:optimizeQuality; fill-rule:evenodd; clip-rule:evenodd"
viewBox="0 0 49.524 44.954"
 xmlns:xlink="http://www.w3.org/1999/xlink">
 <defs>
  <style type="text/css">
   <![CDATA[
    .fil27 {fill:none}
    .fil13 {fill:#3D214B;fill-rule:nonzero}
    .fil17 {fill:#445BBC;fill-rule:nonzero}
    .fil3 {fill:#44707C;fill-rule:nonzero}
    .fil2 {fill:#52859A;fill-rule:nonzero}
    .fil21 {fill:#593487;fill-rule:nonzero}
    .fil24 {fill:#593490;fill-rule:nonzero}
    .fil8 {fill:#5B70D6;fill-rule:nonzero}
    .fil6 {fill:#60A0A1;fill-rule:nonzero}
    .fil23 {fill:#6B3FA3;fill-rule:nonzero}
    .fil5 {fill:#6DB3BC;fill-rule:nonzero}
    .fil4 {fill:#75BCCD;fill-rule:nonzero}
    .fil7 {fill:#779AFB;fill-rule:nonzero}
    .fil22 {fill:#7E4DB5;fill-rule:nonzero}
    .fil25 {fill:#8757C8;fill-rule:nonzero}
    .fil26 {fill:#91A0CA;fill-rule:nonzero}
    .fil20 {fill:#B34828;fill-rule:nonzero}
    .fil9 {fill:#B5BFE2;fill-rule:nonzero}
    .fil1 {fill:#BFCAEF;fill-rule:nonzero}
    .fil12 {fill:#C16666;fill-rule:nonzero}
    .fil0 {fill:#D8DFFD;fill-rule:nonzero}
    .fil11 {fill:#DB8C8C;fill-rule:nonzero}
    .fil19 {fill:#DF703A;fill-rule:nonzero}
    .fil10 {fill:#DFA7A5;fill-rule:nonzero}
    .fil18 {fill:#E8A03F;fill-rule:nonzero}
    .fil14 {fill:#EFC3BF;fill-rule:nonzero}
    .fil16 {fill:#F2D4D4;fill-rule:nonzero}
    .fil15 {fill:white;fill-rule:nonzero}
   ]]>
  </style>
   <clipPath id="id0">
    <path d="M24.762 0c13.676,0 24.762,10.063 24.762,22.477 0,12.414 -11.086,22.477 -24.762,22.477 -13.676,0 -24.762,-10.063 -24.762,-22.477 0,-12.414 11.086,-22.477 24.762,-22.477z"/>
   </clipPath>
 </defs>
 <g id="Layer_x0020_1">
  <metadata id="CorelCorpID_0Corel-Layer"/>
  <g>
  </g>
  <g style="clip-path:url(#id0)">
   <g>
    <g id="_2789090073376">
     <g>
      <path class="fil0" d="M44.679 18.762c-0.671,7.999 -6.387,17.637 -19.693,19.075 -9.608,0.443 -17.069,-7.585 -19.425,-15.8 -1.572,-5.475 -0.875,-11.033 2.964,-14.22 9.6,-7.968 18.65,8.348 18.65,8.348 0,0 3.545,-9.863 12.333,-8.424 3.625,0.593 5.643,5.403 5.171,11.021z"/>
      <path class="fil1" d="M44.679 18.762c-0.671,7.999 -6.387,17.637 -19.693,19.075 -9.608,0.443 -17.069,-7.585 -19.425,-15.8 1.105,-0.799 3.313,0.14 4.038,0.605 1.133,0.728 1.386,1.975 1.405,2.074 -0.006,-0.138 -0.114,-2.583 0.828,-3.144 0.968,-0.577 2.097,2.424 2.097,2.424 0,0 0.182,-3.579 2.417,-3.335 2.2,0.24 3.629,4.557 3.673,4.692 -0.023,-0.109 -0.675,-3.185 1.453,-3.655 2.167,-0.479 3.093,3.882 3.093,3.882 0,0 0.346,-2.154 1.41,-2.183 1.063,-0.029 1.865,2.335 1.865,2.335 0,0 1.399,-4.609 4.182,-4.288 2.782,0.32 3.098,2.892 3.098,2.892 0,0 0.288,-3.304 1.924,-3.627 1.636,-0.324 2.437,2.08 2.437,2.08 0,0 0.398,-3.347 1.738,-3.389 1.341,-0.041 1.694,2.298 1.694,2.298 0,0 0.569,-2.328 1.766,-2.936z"/>
     </g>
     <g>
      <g>
       <path class="fil2" d="M12.519 36.941c-0.039,0.977 -0.831,1.397 -0.831,1.397 -0.401,-0.311 -0.749,-0.648 -1.054,-1.006 -1.293,-1.516 -1.802,-3.401 -2.094,-5.132 -0.326,-1.944 -0.379,-3.693 -0.953,-4.508 0.814,0.654 1.535,1.598 2.161,2.63 1.258,2.075 2.127,4.503 2.579,5.63 0.152,0.378 0.203,0.706 0.192,0.989z"/>
       <path class="fil3" d="M12.519 36.941l-1.885 0.391c-1.293,-1.516 -1.802,-3.401 -2.094,-5.132 0.294,0.396 0.515,0.752 1.059,0.642 0.587,-0.119 0.421,-1.5 0.149,-2.52 1.258,2.075 2.127,4.503 2.579,5.63 0.152,0.378 0.203,0.706 0.192,0.989z"/>
       <path class="fil4" d="M12.715 40.083c-1.627,-0.684 -2.741,-1.851 -3.569,-3.137 -1.544,-2.398 -2.099,-5.211 -3.147,-6.084 1.95,0.856 3.841,2.985 5.196,4.72 0.645,0.826 1.169,1.562 1.52,2.032 1.091,1.454 0,2.469 0,2.469z"/>
       <path class="fil5" d="M12.715 40.083c-1.214,-0.51 -2.142,-1.289 -2.879,-2.187 -0.252,-0.305 -0.48,-0.624 -0.69,-0.95 1.484,0.171 2.085,-0.49 2.049,-1.364 0.278,0.356 0.534,0.696 0.762,1.003 0.302,0.407 0.558,0.761 0.758,1.029 1.091,1.454 0,2.469 0,2.469z"/>
       <path class="fil6" d="M12.715 40.083c-1.214,-0.51 -2.142,-1.289 -2.879,-2.187 1.269,-0.149 1.853,-0.765 2.121,-1.311 0.302,0.407 0.558,0.761 0.758,1.029 1.091,1.454 0,2.469 0,2.469z"/>
       <path class="fil4" d="M12.975 38.201c-3.736,-3.406 -2.172,-9.134 -3.24,-10.938 2.286,2.155 3.527,6.874 4.067,8.611 0.54,1.736 -0.827,2.327 -0.827,2.327z"/>
      </g>
      <g>
       <path class="fil2" d="M37.241 38.642c0.039,0.977 0.831,1.397 0.831,1.397 0.4,-0.31 0.749,-0.647 1.054,-1.006 1.293,-1.516 1.802,-3.401 2.093,-5.132 0.327,-1.943 0.38,-3.692 0.954,-4.507 -0.814,0.653 -1.536,1.598 -2.161,2.63 -1.258,2.074 -2.127,4.502 -2.579,5.629 -0.152,0.379 -0.204,0.707 -0.192,0.989z"/>
       <path class="fil3" d="M37.241 38.642l1.885 0.391c1.293,-1.516 1.802,-3.401 2.093,-5.132 -0.293,0.396 -0.515,0.753 -1.058,0.642 -0.588,-0.119 -0.421,-1.5 -0.149,-2.519 -1.258,2.074 -2.127,4.502 -2.579,5.629 -0.152,0.379 -0.204,0.707 -0.192,0.989z"/>
       <path class="fil4" d="M37.045 41.784c1.627,-0.683 2.741,-1.85 3.569,-3.137 1.544,-2.398 2.098,-5.211 3.147,-6.084 -1.95,0.857 -3.841,2.985 -5.196,4.721 -0.646,0.825 -1.169,1.562 -1.52,2.031 -1.091,1.455 0,2.469 0,2.469z"/>
       <path class="fil5" d="M37.045 41.784c1.214,-0.51 2.142,-1.289 2.879,-2.187 0.251,-0.305 0.48,-0.624 0.69,-0.95 -1.484,0.171 -2.085,-0.49 -2.049,-1.363 -0.278,0.355 -0.534,0.695 -0.763,1.003 -0.301,0.407 -0.558,0.76 -0.757,1.028 -1.091,1.455 0,2.469 0,2.469z"/>
       <path class="fil6" d="M37.045 41.784c1.214,-0.51 2.142,-1.289 2.879,-2.187 -1.269,-0.149 -1.853,-0.765 -2.122,-1.31 -0.301,0.407 -0.558,0.76 -0.757,1.028 -1.091,1.455 0,2.469 0,2.469z"/>
       <path class="fil4" d="M36.785 39.902c3.735,-3.405 2.172,-9.134 3.24,-10.938 -2.286,2.155 -3.527,6.875 -4.067,8.611 -0.541,1.736 0.827,2.327 0.827,2.327z"/>
      </g>
     </g>
     <g>
      <g>
       <path class="fil7" d="M26.839 45.563l-9.363 0.345 -1.611 -4.116c0,0 -0.156,0.023 -0.407,0.012 -0.691,-0.029 -2.1,-0.314 -2.903,-2.031 -0.405,-0.866 -0.798,-2.092 -1.134,-3.443 -0.263,-1.065 -0.49,-2.208 -0.657,-3.315 -0.194,-1.287 -0.306,-2.526 -0.299,-3.539 0.019,-2.991 1.802,-5.407 4.812,-6.979 0,0 2.915,-0.39 4.581,-0.048 0.783,0.16 1.606,0.421 2.39,0.916 0.886,0.561 1.722,1.423 2.387,2.778 0.336,0.687 0.651,2.405 0.932,4.552 0.171,1.315 0.33,2.79 0.473,4.286 0.493,5.161 0.799,10.582 0.799,10.582z"/>
       <path class="fil8" d="M26.04 34.981c-0.809,0.625 -1.639,1.173 -1.639,1.173l-0.629 -3.684c0,0 -0.644,-4.041 -0.826,-4.633 0.195,0.456 1.284,2.796 2.32,2.864 0.106,0.007 0.206,0.005 0.301,-0.006 0.171,1.315 0.33,2.79 0.473,4.286z"/>
       <path class="fil8" d="M21.27 37.673l-2.691 3.483c0,0 -1.382,0.484 -3.121,0.648 -0.691,-0.029 -2.1,-0.314 -2.903,-2.031 -0.405,-0.866 -0.798,-2.092 -1.134,-3.443 0.906,1.832 1.906,4.194 3.522,4.712 2.022,0.648 3.741,-2.957 4.099,-3.283l2.228 -0.086z"/>
       <path class="fil8" d="M22.248 23.365c-1.196,0.193 -1.214,1.222 -1.214,1.222 0,0 -1.529,-0.489 -2.382,-0.341 -0.853,0.146 -1.206,2.053 -1.319,2.258 -0.113,0.205 -2.771,-0.434 -3.359,-1.789 -1.548,1.356 -2.918,4.674 -3.21,8.3 -0.194,-1.287 -0.306,-2.526 -0.299,-3.539 0.019,-2.991 1.802,-5.407 4.812,-6.979 0,0 2.915,-0.39 4.581,-0.048 0.783,0.16 1.606,0.421 2.39,0.916z"/>
       <path class="fil0" d="M20.64 24.318c-0.224,-0.272 -1.086,-0.512 -1.769,-0.455 -0.117,0.009 -0.228,0.028 -0.331,0.057 -0.175,0.048 -0.371,0.168 -0.568,0.325 -0.587,0.468 -1.18,1.274 -1.257,1.575 -0.102,0.403 0.013,0.563 -0.913,-0.326 -0.335,-0.32 -0.597,-0.859 -0.739,-1.449 -0.252,-1.041 -0.132,-2.24 0.611,-2.673l2.505 -0.032c0.707,-0.056 1.202,0.256 1.892,0.921 0.211,0.203 0.37,0.504 0.483,0.815 0.255,0.706 0.268,1.465 0.086,1.242z"/>
       <path class="fil9" d="M20.554 23.076c-0.382,-0.377 -0.979,-0.933 -1.231,-0.896 -0.333,0.051 0.166,1.056 -0.452,1.683 -0.117,0.009 -0.228,0.028 -0.331,0.057 -0.175,0.048 -0.371,0.168 -0.568,0.325 -1.015,0.025 -2.067,-1.025 -2.359,-1.221 -0.194,-0.129 -0.516,0.281 -0.55,1.021 -0.252,-1.041 -0.132,-2.24 0.611,-2.673l2.505 -0.032c0.707,-0.056 1.202,0.256 1.892,0.921 0.211,0.203 0.37,0.504 0.483,0.815z"/>
       <path class="fil10" d="M18.729 21.558c0.057,0.881 0.71,2.521 -0.7,2.434 -0.757,-0.046 -1.44,-0.554 -1.908,-1.015 -0.406,-0.396 -0.652,-0.758 -0.652,-0.758 0,0 0.269,-1.86 -0.077,-2.819l3.537 0.652c0,0 -0.166,0.402 -0.202,1.018 -0.009,0.151 -0.009,0.314 0.002,0.488z"/>
       <path class="fil11" d="M18.929 20.052c0,0 -0.135,0.325 -0.187,0.84 -0.006,0.057 -0.011,0.116 -0.015,0.178 -1.424,0.308 -2.778,0.68 -2.606,1.907 -0.406,-0.396 -0.652,-0.758 -0.652,-0.758 0,0 0.072,-0.497 0.094,-1.11 0.015,-0.439 0.005,-0.936 -0.076,-1.353 -0.024,-0.127 -0.056,-0.248 -0.095,-0.356l0.406 0.075 3.131 0.577z"/>
       <path class="fil12" d="M18.929 20.052c0,0 -0.135,0.325 -0.187,0.84 -1.06,0.101 -2.295,-0.03 -3.179,0.217 0.015,-0.439 0.005,-0.936 -0.076,-1.353l0.149 -0.091 0.162 -0.19 3.131 0.577z"/>
       <path class="fil13" d="M13.13 18.017c-1.611,-1.202 -3.413,-2.876 -1.662,-3.771 -1.227,-2.135 -1.048,-3.49 1.815,-4.64 2.864,-1.151 3.848,-3.119 4.282,-3.106 0.435,0.012 2.467,0.575 1.969,2.569 1.202,-0.409 1.176,-0.895 1.432,-0.793 0.255,0.102 1.393,4.257 -0.972,5.663 -2.365,1.406 -5.189,1.925 -5.189,1.925l0.357 2.153 0.64 1.661c0,0 -1.394,0.767 -2.672,-1.661z"/>
       <path class="fil14" d="M18.691 20.586c-0.153,0.027 -0.301,0.046 -0.445,0.059 -0.921,0.078 -1.667,-0.127 -2.254,-0.437 -1.188,-0.625 -1.721,-1.68 -1.721,-1.68 0,0 -0.005,0.005 -0.016,0.014 -0.076,0.065 -0.41,0.315 -0.972,0.206 -0.495,-0.096 -0.916,-0.664 -0.763,-1.152 0.046,-0.145 0.143,-0.283 0.303,-0.4 0.683,-0.496 1.184,0.385 1.208,0.429l0 -0.002c-0.011,-0.05 -0.133,-0.617 -0.208,-1.367 -0.036,-0.347 -0.061,-0.734 -0.061,-1.126 1.476,-1.072 4.711,-0.322 6.079,-2.226 0.286,0.242 0.456,0.524 0.561,0.832 0.038,0.112 0.068,0.226 0.091,0.344 0.159,0.793 0.043,1.711 0.396,2.556 0.549,1.317 -0.524,3.656 -2.198,3.95z"/>
       <path class="fil10" d="M14.364 18.515c0,0 -0.339,-0.575 -0.582,-0.921 -0.209,-0.296 -0.812,-0.455 -1.262,0.002 0.046,-0.145 0.143,-0.283 0.303,-0.4 0.683,-0.496 1.184,0.385 1.208,0.429l0 -0.002c-0.011,-0.05 -0.133,-0.617 -0.208,-1.367l0.247 -0.016c0,0 0.428,0.958 0.459,1.233 0.033,0.275 -0.165,1.042 -0.165,1.042z"/>
       <path class="fil10" d="M15.992 20.208c-1.188,-0.625 -1.721,-1.68 -1.721,-1.68 0,0 -0.005,0.005 -0.016,0.014 -0.114,-0.274 -0.19,-0.564 -0.218,-0.863 -0.002,-0.017 -0.004,-0.035 -0.006,-0.053l0 -0.001 0 -0.002c-0.006,-0.026 -0.042,-0.194 -0.086,-0.456 -0.02,-0.118 -0.041,-0.255 -0.062,-0.406 -0.005,-0.044 -0.012,-0.09 -0.018,-0.137 -0.056,-0.43 -0.103,-0.957 -0.103,-1.494 1.254,-0.911 3.78,-0.506 5.35,-1.534 0.176,-0.115 0.34,-0.248 0.488,-0.403 0.055,-0.057 0.108,-0.118 0.158,-0.18 0.029,-0.036 0.056,-0.072 0.083,-0.109 0.286,0.242 0.456,0.524 0.561,0.832 -1.512,1.514 -4.975,0.347 -5.15,2.959 -0.192,2.859 1.687,3.738 0.74,3.513z"/>
       <path class="fil11" d="M19.758 13.013c-0.238,0.44 -0.824,1.144 -2.192,1.425 -1.961,0.401 -2.471,0.629 -3.701,2.186 -0.056,-0.43 -0.103,-0.957 -0.103,-1.494 1.254,-0.911 3.78,-0.506 5.35,-1.534 0.176,-0.115 0.34,-0.248 0.488,-0.403 0.055,-0.057 0.108,-0.118 0.158,-0.18z"/>
       <g>
        <path class="fil11" d="M13.027 17.722c-0.037,0.019 -0.083,0.006 -0.102,-0.031 -0.02,-0.036 -0.006,-0.082 0.03,-0.101l0.072 0.132zm0.644 0.639l-0.133 -0.069 0.019 -0.04 0.015 -0.04 0.012 -0.038 0.009 -0.038 0.005 -0.036 0.002 -0.036 0 -0.034 -0.003 -0.033 -0.006 -0.032 -0.008 -0.031 -0.01 -0.029 -0.013 -0.028 -0.015 -0.027 -0.016 -0.025 -0.018 -0.023 -0.02 -0.022 -0.022 -0.02 -0.023 -0.019 -0.025 -0.016 -0.025 -0.015 -0.027 -0.012 -0.028 -0.01 -0.029 -0.009 -0.029 -0.005 -0.031 -0.004 -0.031 -0.001 -0.031 0.002 -0.032 0.004 -0.033 0.007 -0.033 0.01 -0.032 0.013 -0.033 0.017 -0.072 -0.132 0.044 -0.022 0.044 -0.017 0.044 -0.014 0.045 -0.01 0.044 -0.006 0.044 -0.002 0.043 0.001 0.042 0.005 0.042 0.008 0.04 0.012 0.039 0.014 0.038 0.018 0.036 0.02 0.035 0.023 0.032 0.026 0.03 0.028 0.029 0.031 0.025 0.033 0.023 0.035 0.021 0.037 0.017 0.039 0.014 0.041 0.012 0.042 0.008 0.044 0.004 0.046 0 0.046 -0.003 0.047 -0.007 0.049 -0.011 0.048 -0.015 0.05 -0.019 0.049 -0.024 0.05zm0 0c-0.019,0.037 -0.064,0.052 -0.101,0.033 -0.037,-0.019 -0.051,-0.065 -0.032,-0.102l0.133 0.069z"/>
       </g>
       <g>
        <path class="fil11" d="M18.38 15.755c-0.014,-0.039 0.006,-0.082 0.044,-0.097 0.039,-0.014 0.082,0.006 0.097,0.044l-0.141 0.053zm1.065 1.299l-0.149 -0.018 0 0 0.003 -0.035 -0.001 -0.034 -0.004 -0.032 -0.008 -0.031 -0.01 -0.031 -0.013 -0.03 -0.017 -0.03 -0.02 -0.03 -0.022 -0.031 -0.026 -0.031 -0.028 -0.031 -0.03 -0.032 -0.033 -0.032 -0.034 -0.032 -0.036 -0.034 -0.038 -0.034 -0.038 -0.034 -0.041 -0.036 -0.04 -0.038 -0.041 -0.038 -0.041 -0.04 -0.042 -0.042 -0.041 -0.044 -0.04 -0.045 -0.04 -0.048 -0.039 -0.05 -0.037 -0.052 -0.036 -0.055 -0.034 -0.058 -0.032 -0.061 -0.03 -0.063 -0.027 -0.067 0.141 -0.053 0.024 0.06 0.027 0.057 0.028 0.054 0.031 0.051 0.032 0.05 0.034 0.048 0.035 0.045 0.036 0.044 0.038 0.042 0.038 0.041 0.039 0.039 0.04 0.038 0.039 0.037 0.04 0.037 0.039 0.035 0.039 0.035 0.038 0.035 0.037 0.034 0.037 0.034 0.035 0.035 0.033 0.035 0.032 0.035 0.03 0.036 0.028 0.038 0.025 0.039 0.022 0.04 0.019 0.042 0.015 0.044 0.011 0.046 0.006 0.047 0.001 0.049 -0.004 0.05 0 0zm0 0c-0.004,0.041 -0.042,0.071 -0.083,0.066 -0.041,-0.005 -0.07,-0.043 -0.066,-0.084l0.149 0.018zm-0.688 0.456l0.02 -0.149 0 0 0.004 0 0.007 0.001 0.008 0.001 0.011 0 0.014 0.001 0.015 0.001 0.017 0 0.018 0 0.02 -0.001 0.022 -0.002 0.021 -0.002 0.023 -0.003 0.024 -0.004 0.023 -0.004 0.024 -0.006 0.023 -0.007 0.023 -0.008 0.023 -0.01 0.023 -0.011 0.021 -0.012 0.021 -0.013 0.019 -0.016 0.019 -0.016 0.017 -0.019 0.016 -0.02 0.015 -0.023 0.013 -0.024 0.011 -0.028 0.01 -0.03 0.008 -0.033 0.006 -0.037 0.149 0.018 -0.007 0.048 -0.011 0.045 -0.014 0.042 -0.017 0.039 -0.019 0.037 -0.022 0.033 -0.024 0.031 -0.026 0.028 -0.027 0.024 -0.029 0.022 -0.029 0.02 -0.03 0.017 -0.031 0.015 -0.031 0.013 -0.03 0.01 -0.031 0.01 -0.03 0.007 -0.029 0.006 -0.029 0.005 -0.027 0.004 -0.027 0.002 -0.025 0.002 -0.024 0.001 -0.023 0 -0.02 0 -0.018 -0.001 -0.016 -0.001 -0.014 0 -0.012 -0.002 -0.007 0 -0.006 -0.001 -0.003 0zm0 0c-0.041,-0.006 -0.07,-0.044 -0.064,-0.085 0.005,-0.041 0.043,-0.07 0.084,-0.064l-0.02 0.149z"/>
       </g>
       <path class="fil13" d="M17.271 16.695c0,0.149 -0.12,0.269 -0.268,0.269 -0.148,0 -0.268,-0.12 -0.268,-0.269 0,-0.148 0.12,-0.268 0.268,-0.268 0.148,0 0.268,0.12 0.268,0.268z"/>
       <path class="fil13" d="M19.911 15.596c0,0.148 -0.12,0.268 -0.268,0.268 -0.148,0 -0.269,-0.12 -0.269,-0.268 0,-0.148 0.121,-0.268 0.269,-0.268 0.148,0 0.268,0.12 0.268,0.268z"/>
       <g>
        <path class="fil13" d="M16.256 16.297c-0.031,0.054 -0.101,0.071 -0.154,0.04 -0.053,-0.032 -0.071,-0.101 -0.039,-0.155l0.193 0.115zm0.816 -0.681l-0.01 0.225 -0.048 -0.001 -0.046 0.002 -0.045 0.005 -0.043 0.007 -0.042 0.009 -0.041 0.011 -0.039 0.013 -0.038 0.015 -0.036 0.016 -0.036 0.017 -0.034 0.019 -0.032 0.02 -0.031 0.021 -0.03 0.021 -0.028 0.022 -0.027 0.022 -0.026 0.023 -0.023 0.022 -0.023 0.022 -0.02 0.021 -0.019 0.021 -0.018 0.02 -0.016 0.02 -0.014 0.017 -0.012 0.016 -0.011 0.015 -0.009 0.012 -0.007 0.011 -0.007 0.009 -0.002 0.004 -0.002 0.003 -0.001 0.001 -0.193 -0.115 0.001 -0.002 0.003 -0.006 0.007 -0.01 0.007 -0.01 0.009 -0.014 0.012 -0.016 0.012 -0.017 0.016 -0.021 0.017 -0.021 0.019 -0.022 0.02 -0.024 0.023 -0.025 0.025 -0.026 0.027 -0.026 0.028 -0.026 0.03 -0.027 0.033 -0.027 0.034 -0.027 0.036 -0.026 0.039 -0.025 0.04 -0.025 0.043 -0.023 0.044 -0.022 0.046 -0.02 0.048 -0.019 0.051 -0.017 0.052 -0.014 0.053 -0.011 0.056 -0.009 0.058 -0.006 0.059 -0.003 0.061 0.001zm0 0c0.062,0.003 0.11,0.055 0.108,0.117 -0.003,0.062 -0.056,0.111 -0.118,0.108l0.01 -0.225z"/>
       </g>
       <g>
        <path class="fil13" d="M19.929 14.614c0.057,0.022 0.086,0.088 0.064,0.145 -0.023,0.058 -0.088,0.087 -0.146,0.064l0.082 -0.209zm-0.998 0.346l-0.146 -0.171 0.047 -0.039 0.049 -0.034 0.048 -0.031 0.05 -0.027 0.05 -0.024 0.049 -0.021 0.05 -0.018 0.05 -0.015 0.049 -0.012 0.048 -0.01 0.048 -0.008 0.047 -0.005 0.045 -0.004 0.045 -0.001 0.044 0 0.041 0.001 0.041 0.002 0.039 0.003 0.037 0.005 0.035 0.005 0.033 0.005 0.032 0.006 0.028 0.006 0.027 0.007 0.024 0.006 0.022 0.006 0.018 0.005 0.016 0.005 0.013 0.005 0.007 0.002 0.008 0.003 0.004 0.002 -0.082 0.209 0 0 -0.002 0 -0.009 -0.003 -0.009 -0.003 -0.011 -0.004 -0.016 -0.005 -0.018 -0.004 -0.019 -0.006 -0.022 -0.005 -0.024 -0.005 -0.026 -0.005 -0.028 -0.005 -0.03 -0.004 -0.031 -0.003 -0.032 -0.003 -0.034 -0.002 -0.035 -0.001 -0.036 0 -0.036 0.001 -0.038 0.003 -0.037 0.005 -0.039 0.006 -0.038 0.008 -0.039 0.009 -0.039 0.012 -0.039 0.014 -0.039 0.016 -0.038 0.019 -0.039 0.021 -0.038 0.024 -0.038 0.027 -0.037 0.03zm0 0c-0.047,0.04 -0.118,0.035 -0.159,-0.012 -0.04,-0.048 -0.034,-0.119 0.013,-0.159l0.146 0.171z"/>
       </g>
       <path class="fil15" d="M17.923 18.592c0.566,0.173 1.189,-0.077 1.189,-0.077 0,0 -0.172,0.691 -0.661,0.71 -0.489,0.019 -0.528,-0.633 -0.528,-0.633z"/>
       <path class="fil16" d="M18.691 20.586c-0.153,0.027 -0.301,0.046 -0.445,0.059 1.865,-0.736 2.39,-2.916 2.247,-3.779 -0.066,-0.393 -0.118,-0.725 -0.141,-1.056 -0.015,-0.201 0.285,-0.233 0.313,-0.033 0.041,0.29 0.106,0.578 0.224,0.859 0.549,1.317 -0.524,3.656 -2.198,3.95z"/>
       <path class="fil11" d="M13.655 18.039c-0.058,0.124 -0.224,0.17 -0.371,0.101 -0.148,-0.068 -0.22,-0.225 -0.162,-0.35 0.059,-0.124 0.225,-0.17 0.372,-0.102 0.147,0.069 0.22,0.226 0.161,0.351z"/>
       <path class="fil8" d="M22.231 37.574c-0.244,0.086 -1.797,0.148 -3.347,0.19 -1.677,0.045 -3.351,0.066 -3.351,0.066 0,0 -0.427,-4.41 -1.085,-6.871l-0.001 0c-0.062,-0.231 -0.126,-0.444 -0.191,-0.635 -0.07,-0.203 0.18,-0.363 0.335,-0.215 1.59,1.527 1.963,5.349 4.338,6.263 2.655,1.023 3.814,1.023 3.302,1.202z"/>
       <path class="fil17" d="M18.884 37.764c-1.677,0.045 -3.351,0.066 -3.351,0.066 0,0 -0.427,-4.41 -1.085,-6.871 1.106,0.548 0.211,4.595 2.885,6.078 0.536,0.297 1.059,0.535 1.551,0.727z"/>
       <path class="fil7" d="M22.928 27.787c0.005,0.011 0.011,0.028 0.017,0.048 -0.02,-0.045 -0.03,-0.071 -0.03,-0.073 0.001,-0.001 0.005,0.008 0.013,0.025z"/>
      </g>
      <g>
       <path class="fil13" d="M31.734 10.36c-0.868,-1.438 -2.651,-0.671 -2.517,1.208 0.134,1.879 1.266,2.301 1.505,4.352 0.24,2.052 0.872,3.711 -0.776,5.269 -1.649,1.557 -1.994,4.299 1.15,4.529 3.144,0.23 3.739,-2.473 6.423,-1.227 2.685,1.246 4.851,0.978 4.218,-0.594 -0.632,-1.573 -2.18,-3.168 -1.55,-6.224 0.63,-3.057 -0.301,-4.264 -0.301,-4.264 0,0 -2.164,-7.44 -8.152,-3.049z"/>
       <path class="fil18" d="M38.255 43.427l-2.347 2.75 -4.415 -0.191 -3.777 -0.162 -3.658 -0.158 -0.352 -3.516c0,0 3.485,-13.92 4.354,-16.315 0.24,-0.662 0.488,-1.139 0.757,-1.499 0.548,-0.735 1.184,-0.983 2.02,-1.317 0.239,-0.095 0.493,-0.198 0.767,-0.32l6.049 0.344c0,0 0.351,0.13 0.799,0.416 0.095,0.061 0.195,0.13 0.297,0.205 0.497,0.367 1.038,0.908 1.339,1.652 0.652,1.61 -2.109,6.825 -2.837,10.838 -0.729,4.012 1.004,7.273 1.004,7.273z"/>
       <path class="fil19" d="M31.192 32.732c-1.841,1.442 -4.059,2.669 -3.132,3.11 0.926,0.441 2.115,0.153 2.115,0.153l-1.034 1.918c0,0 -1.653,1.227 -1.805,2.934 -0.092,1.036 0.164,3.333 0.38,4.977l-3.658 -0.158 -0.352 -3.516c0,0 3.485,-13.92 4.354,-16.315 0.24,-0.662 0.488,-1.139 0.757,-1.499 1.487,1.234 2.462,2.943 1.955,4.65 -0.539,1.813 -0.903,2.436 -0.903,2.436l2.844 -0.994c0,0 0.32,0.861 -1.521,2.304z"/>
       <path class="fil19" d="M38.255 43.427l-2.347 2.75 -1.719 -0.075 -2.696 -0.116c0.815,-1.128 2.267,-3.482 1.91,-5.903 -0.486,-3.295 -4.092,-4.143 -4.092,-4.143 0,0 4.808,-1.587 5.882,-4.706 1.046,-3.039 3.403,-6.466 3.259,-7.775 0.095,0.061 0.195,0.13 0.297,0.205 0.313,0.231 0.643,0.531 0.92,0.908 0.163,0.221 0.308,0.468 0.419,0.744 0.652,1.61 -2.109,6.825 -2.837,10.838 -0.729,4.012 1.004,7.273 1.004,7.273z"/>
       <path class="fil20" d="M38.255 43.427l-2.347 2.75 -1.719 -0.075c0.559,-1.407 1.389,-3.904 1.234,-6.019 -0.23,-3.141 -3.694,-4.375 -3.694,-4.375 0,0 2.773,-1.764 3.924,-3.847 1.117,-2.022 1.678,-5.166 4.016,-7.289 0.163,0.221 0.308,0.468 0.419,0.744 0.652,1.61 -2.109,6.825 -2.837,10.838 -0.729,4.012 1.004,7.273 1.004,7.273z"/>
       <path class="fil15" d="M38.749 23.664c-0.95,1.033 -3.39,3.407 -5.499,3.045 -2.192,-0.376 -2.816,-2.201 -2.413,-3.69 0.239,-0.095 0.493,-0.198 0.767,-0.32l6.049 0.344c0,0 0.517,0.192 1.096,0.621z"/>
       <g>
        <path class="fil10" d="M37.653 23.043c0,0 -2.109,3.068 -4.448,2.771 -2.339,-0.297 -1.601,-3.115 -1.601,-3.115l0.13 -0.06 1.212 -0.554c0,0 0.006,-0.396 -0.036,-0.858 -0.033,-0.388 -0.101,-0.823 -0.233,-1.107l3.515 -1.286 0.128 -0.047c-0.027,0.026 -0.051,0.057 -0.074,0.091 -0.438,0.673 -0.018,2.817 0.024,3.028 0.002,0.01 0.003,0.016 0.003,0.016l1.38 1.121z"/>
        <path class="fil11" d="M36.27 21.906c-0.966,0.172 -2.116,-0.403 -3.36,-0.679 -0.006,-0.075 -0.014,-0.152 -0.024,-0.229 -0.038,-0.322 -0.103,-0.648 -0.209,-0.878l3.476 -1.272 0.039 -0.014 0.054 0.044c-0.001,0.003 -0.002,0.004 -0.003,0.006 -0.225,0.353 -0.22,1.1 -0.158,1.764 0.057,0.613 0.165,1.157 0.185,1.258z"/>
        <path class="fil12" d="M36.085 20.648c-0.935,0.442 -2.252,0.341 -3.199,0.35 -0.038,-0.322 -0.103,-0.648 -0.209,-0.878l3.476 -1.272c0.028,0.011 0.058,0.023 0.09,0.036 -0.225,0.353 -0.22,1.1 -0.158,1.764z"/>
        <path class="fil14" d="M38.506 18.605c-0.795,0.403 -1.198,-0.231 -1.198,-0.231 0,0 -0.644,0.818 -1.634,1.485 -0.001,0.001 -0.002,0.001 -0.004,0.002 -0.815,0.55 -1.866,0.997 -2.983,0.8 -1.835,-0.323 -2.277,-2.027 -2.234,-3.311 0.015,-0.446 0.088,-0.841 0.183,-1.11 0.221,-0.632 0.222,-1.399 0.43,-2.337 0.135,-0.607 0.356,-1.287 0.778,-2.048 1.101,2.506 3.745,3.793 4.997,4.417 0.405,0.201 0.664,0.334 0.678,0.415 0.058,0.335 -0.096,1.275 -0.096,1.275 0,0 0.633,-0.68 0.863,-1.131 0.7,0.268 1.017,1.371 0.22,1.774z"/>
        <path class="fil16" d="M35.67 19.861c-0.815,0.55 -1.866,0.997 -2.983,0.8 -1.835,-0.323 -2.277,-2.027 -2.234,-3.311 0.252,0.707 0.525,1.916 1.18,2.426 0.824,0.641 2.582,0.892 4.037,0.085z"/>
        <path class="fil11" d="M32.879 23.194c-0.089,-0.065 -0.602,-0.436 -1.145,-0.555l1.212 -0.554c0,0 0.074,1.211 -0.067,1.109z"/>
        <g>
         <path class="fil11" d="M32.467 16.273c0.002,-0.041 0.037,-0.073 0.079,-0.071 0.041,0.003 0.073,0.038 0.071,0.08l-0.15 -0.009zm-0.34 1.505l-0.137 0.063 0 0 -0.019 -0.047 -0.013 -0.047 -0.008 -0.047 -0.004 -0.047 0.002 -0.047 0.005 -0.045 0.009 -0.046 0.012 -0.044 0.015 -0.044 0.018 -0.044 0.02 -0.043 0.021 -0.044 0.024 -0.043 0.024 -0.044 0.025 -0.044 0.026 -0.044 0.027 -0.045 0.027 -0.046 0.027 -0.046 0.026 -0.048 0.026 -0.048 0.025 -0.049 0.025 -0.05 0.023 -0.051 0.021 -0.053 0.021 -0.054 0.018 -0.056 0.016 -0.057 0.013 -0.058 0.011 -0.06 0.008 -0.063 0.006 -0.064 0.15 0.009 -0.006 0.071 -0.009 0.07 -0.013 0.067 -0.015 0.066 -0.018 0.063 -0.019 0.061 -0.022 0.06 -0.024 0.057 -0.025 0.055 -0.026 0.054 -0.027 0.053 -0.027 0.05 -0.028 0.049 -0.028 0.048 -0.027 0.046 -0.026 0.045 -0.026 0.044 -0.025 0.043 -0.023 0.041 -0.021 0.04 -0.019 0.039 -0.018 0.039 -0.015 0.036 -0.012 0.036 -0.01 0.035 -0.007 0.034 -0.003 0.033 -0.002 0.032 0.003 0.032 0.006 0.032 0.008 0.032 0.014 0.033 0 0zm0 0c0.017,0.038 0,0.083 -0.037,0.1 -0.038,0.017 -0.083,0 -0.1,-0.037l0.137 -0.063zm0.592 0.154l0.065 0.136 -0.004 0.002 -0.005 0.002 -0.007 0.003 -0.01 0.004 -0.013 0.006 -0.016 0.005 -0.017 0.006 -0.019 0.006 -0.022 0.007 -0.022 0.006 -0.025 0.006 -0.026 0.005 -0.028 0.005 -0.028 0.004 -0.03 0.004 -0.031 0.001 -0.032 0.001 -0.032 -0.001 -0.034 -0.003 -0.033 -0.005 -0.034 -0.008 -0.034 -0.009 -0.034 -0.013 -0.034 -0.015 -0.032 -0.019 -0.033 -0.022 -0.031 -0.025 -0.029 -0.029 -0.028 -0.032 -0.026 -0.037 -0.023 -0.039 -0.022 -0.043 0.137 -0.063 0.016 0.034 0.018 0.029 0.018 0.026 0.02 0.022 0.02 0.02 0.02 0.017 0.022 0.014 0.022 0.013 0.023 0.01 0.023 0.009 0.023 0.007 0.025 0.005 0.024 0.004 0.025 0.002 0.024 0 0.025 0 0.024 -0.001 0.024 -0.003 0.024 -0.003 0.023 -0.004 0.021 -0.004 0.02 -0.006 0.02 -0.005 0.017 -0.005 0.016 -0.005 0.015 -0.006 0.013 -0.004 0.009 -0.004 0.009 -0.003 0.007 -0.003 0.003 -0.002 -0.001 0zm0 0c0.038,-0.017 0.083,-0.001 0.1,0.036 0.018,0.037 0.002,0.082 -0.035,0.1l-0.065 -0.136z"/>
        </g>
        <path class="fil13" d="M33.956 16.846c0.045,0.142 0.196,0.22 0.337,0.176 0.141,-0.045 0.22,-0.195 0.175,-0.337 -0.044,-0.141 -0.195,-0.22 -0.336,-0.175 -0.141,0.044 -0.22,0.195 -0.176,0.336z"/>
        <path class="fil13" d="M31.108 16.589c0.045,0.141 0.196,0.22 0.337,0.175 0.142,-0.044 0.22,-0.195 0.176,-0.336 -0.045,-0.141 -0.195,-0.22 -0.337,-0.176 -0.141,0.045 -0.22,0.196 -0.176,0.337z"/>
        <g>
         <path class="fil13" d="M34.956 15.994c0.046,0.042 0.05,0.113 0.009,0.159 -0.042,0.046 -0.113,0.051 -0.159,0.009l0.15 -0.168zm-1.056 -0.025l-0.077 -0.212 0.058 -0.019 0.057 -0.016 0.057 -0.011 0.056 -0.009 0.055 -0.004 0.054 -0.002 0.053 0 0.051 0.004 0.05 0.005 0.049 0.008 0.048 0.01 0.045 0.011 0.044 0.013 0.043 0.014 0.041 0.015 0.039 0.015 0.037 0.017 0.035 0.017 0.033 0.017 0.032 0.017 0.029 0.017 0.027 0.016 0.024 0.016 0.023 0.015 0.02 0.015 0.018 0.013 0.016 0.012 0.013 0.01 0.01 0.008 0.008 0.006 0.005 0.005 0.003 0.002 -0.15 0.168 -0.001 0 -0.002 -0.002 -0.005 -0.004 -0.009 -0.007 -0.01 -0.008 -0.012 -0.009 -0.015 -0.011 -0.016 -0.012 -0.019 -0.012 -0.021 -0.014 -0.023 -0.013 -0.024 -0.015 -0.026 -0.014 -0.028 -0.014 -0.03 -0.014 -0.03 -0.014 -0.033 -0.013 -0.034 -0.013 -0.034 -0.011 -0.036 -0.01 -0.037 -0.01 -0.038 -0.007 -0.039 -0.007 -0.039 -0.004 -0.041 -0.003 -0.042 0 -0.042 0.001 -0.043 0.004 -0.043 0.007 -0.044 0.009 -0.045 0.012 -0.045 0.015zm0 0c-0.059,0.021 -0.123,-0.009 -0.144,-0.068 -0.022,-0.058 0.009,-0.123 0.067,-0.144l0.077 0.212z"/>
        </g>
        <g>
         <path class="fil13" d="M30.938 15.833c-0.048,0.038 -0.12,0.03 -0.158,-0.018 -0.039,-0.048 -0.031,-0.12 0.018,-0.158l0.14 0.176zm1.003 -0.352l-0.088 0.207 -0.045 -0.017 -0.044 -0.015 -0.043 -0.011 -0.043 -0.008 -0.043 -0.007 -0.042 -0.004 -0.041 -0.001 -0.04 0 -0.041 0.002 -0.039 0.004 -0.038 0.006 -0.037 0.007 -0.037 0.009 -0.035 0.009 -0.034 0.011 -0.034 0.011 -0.031 0.012 -0.03 0.013 -0.028 0.012 -0.027 0.013 -0.026 0.013 -0.023 0.013 -0.021 0.012 -0.02 0.011 -0.017 0.011 -0.015 0.01 -0.013 0.009 -0.011 0.008 -0.009 0.006 -0.005 0.003 -0.002 0.002 -0.001 0.001 -0.14 -0.176 0.002 -0.002 0.006 -0.005 0.009 -0.007 0.01 -0.007 0.013 -0.009 0.016 -0.011 0.018 -0.011 0.022 -0.014 0.023 -0.014 0.026 -0.015 0.028 -0.014 0.03 -0.016 0.032 -0.015 0.034 -0.015 0.036 -0.015 0.038 -0.015 0.04 -0.013 0.041 -0.013 0.044 -0.012 0.044 -0.01 0.046 -0.009 0.049 -0.007 0.049 -0.005 0.05 -0.003 0.052 -0.001 0.053 0.003 0.053 0.005 0.055 0.007 0.055 0.012 0.056 0.015 0.057 0.018 0.056 0.022zm0 0c0.058,0.024 0.084,0.091 0.06,0.148 -0.025,0.057 -0.091,0.084 -0.148,0.059l0.088 -0.207z"/>
        </g>
        <path class="fil15" d="M32.748 18.829c0.248,0.046 0.721,0.067 1.245,-0.247 0.053,-0.031 0.113,0.024 0.085,0.078 -0.183,0.358 -0.659,1.026 -1.383,0.271 -0.04,-0.042 -0.005,-0.112 0.053,-0.102z"/>
        <g>
         <path class="fil11" d="M38.688 17.553c0.037,0.019 0.05,0.065 0.031,0.101 -0.02,0.037 -0.066,0.051 -0.102,0.031l0.071 -0.132zm-0.582 0.702l-0.134 0.069 -0.023 -0.05 -0.019 -0.049 -0.015 -0.049 -0.012 -0.049 -0.007 -0.049 -0.003 -0.047 0.001 -0.046 0.004 -0.045 0.008 -0.044 0.011 -0.042 0.014 -0.041 0.018 -0.04 0.02 -0.037 0.023 -0.035 0.026 -0.033 0.028 -0.031 0.031 -0.028 0.032 -0.026 0.034 -0.023 0.037 -0.02 0.037 -0.018 0.04 -0.014 0.04 -0.011 0.042 -0.009 0.042 -0.004 0.043 -0.002 0.044 0.003 0.044 0.006 0.044 0.009 0.045 0.014 0.044 0.017 0.043 0.022 -0.071 0.132 -0.033 -0.017 -0.033 -0.013 -0.033 -0.009 -0.032 -0.008 -0.032 -0.004 -0.031 -0.001 -0.031 0.001 -0.031 0.003 -0.029 0.006 -0.029 0.008 -0.028 0.01 -0.027 0.012 -0.025 0.015 -0.025 0.016 -0.023 0.019 -0.022 0.02 -0.02 0.022 -0.018 0.023 -0.017 0.026 -0.014 0.026 -0.013 0.028 -0.01 0.029 -0.008 0.031 -0.006 0.032 -0.003 0.033 -0.001 0.034 0.003 0.036 0.005 0.036 0.009 0.038 0.012 0.039 0.015 0.039 0.019 0.04zm0 0c0.019,0.037 0.004,0.083 -0.032,0.102 -0.037,0.019 -0.083,0.004 -0.102,-0.033l0.134 -0.069z"/>
        </g>
        <path class="fil11" d="M37.988 18.002c0.059,0.125 0.225,0.17 0.372,0.102 0.147,-0.069 0.219,-0.226 0.161,-0.35 -0.058,-0.125 -0.224,-0.171 -0.371,-0.102 -0.148,0.068 -0.22,0.225 -0.162,0.35z"/>
        <path class="fil10" d="M36.841 16.272c-0.759,-0.153 -1.742,-0.454 -2.78,-1.042 -1.781,-1.009 -2.196,-1.476 -2.994,-1.327 0.052,-0.236 0.118,-0.483 0.203,-0.743 0.133,-0.406 0.316,-0.84 0.574,-1.305 0.78,1.776 2.335,2.939 3.621,3.688 0.528,0.308 1.011,0.546 1.376,0.729z"/>
        <path class="fil11" d="M35.465 15.543c-1.518,-0.548 -2.845,-2.053 -4.195,-2.383 0.133,-0.406 0.316,-0.84 0.574,-1.305 0.78,1.776 2.335,2.939 3.621,3.688z"/>
       </g>
      </g>
      <g>
       <path class="fil14" d="M29.523 30.533c0,0.299 -0.242,0.541 -0.541,0.541 -0.299,0 -0.542,-0.242 -0.542,-0.541 0,-0.3 0.243,-0.542 0.542,-0.542 0.299,0 0.541,0.242 0.541,0.542z"/>
       <path class="fil11" d="M29.311 30.533c0,0.181 -0.148,0.328 -0.329,0.328 -0.182,0 -0.329,-0.147 -0.329,-0.328 0,-0.182 0.147,-0.329 0.329,-0.329 0.181,0 0.329,0.147 0.329,0.329z"/>
       <path class="fil13" d="M24.737 28.792c-0.205,-1.15 -0.409,-2.505 0.549,-2.39 0.473,-1.968 3.158,-1.713 4.576,-0.524 1.419,1.189 0.956,2.842 0.115,3.707 -0.84,0.864 -1.316,1.035 -1.316,1.035l-1.892 0 -2.032 -1.828z"/>
       <path class="fil21" d="M19.099 41.78c0.755,0.383 0.831,0.204 0.831,0.204l0.384 -1.099 -0.345 -0.598 -0.78 0.106 -0.09 1.387z"/>
       <path class="fil14" d="M20.748 39.964c-0.012,0.189 -0.075,0.358 -0.163,0.506 -0.284,0.474 -0.833,0.734 -0.833,0.734l-0.371 3.835 -0.134 -0.006 -1.401 -0.071c0,0 -0.035,-0.246 -0.091,-0.63 -0.082,-0.565 -0.208,-1.425 -0.33,-2.233 -0.046,-0.308 -0.076,-0.609 -0.087,-0.892 -0.025,-0.637 0.042,-1.189 0.213,-1.569 0.087,-0.193 0.2,-0.342 0.341,-0.435l1.08 -0.249 0.971 -0.038c0,0 0.329,0.098 0.566,0.362 0.147,0.162 0.259,0.385 0.239,0.686z"/>
       <path class="fil16" d="M17.91 43.55c0.004,0.431 -0.062,0.664 -0.155,0.782 -0.082,-0.565 -0.208,-1.425 -0.33,-2.233 -0.046,-0.308 -0.076,-0.609 -0.087,-0.892 0.224,0.278 0.563,1.249 0.572,2.343z"/>
       <path class="fil10" d="M20.64 39.83l-0.055 0.64c-0.054,0.089 -0.117,0.171 -0.185,0.245 -0.287,0.318 -0.648,0.489 -0.648,0.489l-0.004 0.041 -0.367 3.794 -0.134 -0.006c0.335,-4.888 -0.758,-5.687 -1.696,-5.395 0.062,-0.138 0.138,-0.254 0.228,-0.342 0.035,-0.035 0.073,-0.067 0.113,-0.093l1.08 -0.249 0.832 -0.033 0.139 -0.005c0,0 0.329,0.098 0.566,0.362l0.131 0.552z"/>
       <path class="fil11" d="M20.537 40.287l-0.137 0.428c-0.287,0.318 -0.648,0.489 -0.648,0.489l-0.004 0.041c-0.101,-0.354 -0.222,-0.763 -0.329,-1.095 -0.208,-0.648 -0.892,-0.979 -1.64,-0.854 0.035,-0.035 0.073,-0.067 0.113,-0.093l1.08 -0.249 0.832 -0.033 0.389 0.146 0.344 1.22z"/>
       <path class="fil21" d="M22.41 42.905c0.933,1.022 1.317,0.524 1.317,0.524l0.214 -0.282 0.041 -0.447 -0.277 -0.55 -0.451 0.077 -0.844 0.678z"/>
       <path class="fil14" d="M24.056 41.735c-0.051,0.792 -0.997,1.24 -0.997,1.24l-0.371 3.835 -0.562 -0.028 -0.971 -0.049c0,0 -0.218,-1.508 -0.422,-2.863 -0.085,-0.562 -0.113,-1.095 -0.077,-1.551 0.05,-0.643 0.226,-1.136 0.544,-1.345l1.079 -0.249 0.972 -0.038c0,0 0.857,0.256 0.805,1.048z"/>
       <path class="fil10" d="M24.056 41.735c-0.051,0.792 -0.997,1.24 -0.997,1.24l-0.102 1.057 -0.269 2.778 -0.562 -0.028c0.001,-0.029 0.003,-0.058 0.006,-0.087 0.238,-3.143 -0.603,-4.408 -1.476,-4.376 0.017,-0.215 0.048,-0.413 0.094,-0.59 0.09,-0.351 0.238,-0.616 0.45,-0.755l1.079 -0.249 0.972 -0.038c0,0 0.857,0.256 0.805,1.048z"/>
       <path class="fil11" d="M24.056 41.735c-0.051,0.792 -0.997,1.24 -0.997,1.24l-0.102 1.057c-0.31,-1.312 -1.136,-2.243 -2.207,-2.303 0.09,-0.351 0.238,-0.616 0.45,-0.755l1.079 -0.249 0.972 -0.038c0,0 0.857,0.256 0.805,1.048z"/>
       <path class="fil22" d="M24.826 37.894c0.013,0.9 -4.819,4.041 -4.895,4.09 0.01,-0.03 0.245,-0.748 0.064,-1.585 -0.032,-0.151 -0.078,-0.306 -0.141,-0.46 -0.422,-1.036 -2.008,-0.729 -2.008,-0.729l3.424 -2.223 0.591 -0.384c0,0 0.786,0.102 1.549,0.326 0.185,0.054 0.368,0.116 0.539,0.184 0.489,0.197 0.872,0.456 0.877,0.781z"/>
       <path class="fil23" d="M23.949 37.113l-0.12 0.666c0,0 -1.16,1.294 -0.968,0.679 0.163,-0.523 -0.484,-1.582 -1.591,-1.471l0.591 -0.384c0,0 0.786,0.102 1.549,0.326 0.185,0.054 0.368,0.116 0.539,0.184z"/>
       <path class="fil23" d="M24.826 37.894c0.013,0.9 -4.819,4.041 -4.895,4.09 0.01,-0.03 0.245,-0.748 0.064,-1.585 1.496,-0.22 3.521,-2.47 3.383,-3.186 -0.025,-0.129 -0.01,-0.222 0.032,-0.284 0.715,0.209 1.409,0.526 1.416,0.965z"/>
       <path class="fil22" d="M25.043 41.984c-0.535,0.971 -1.277,1.42 -1.315,1.443 0.021,-0.027 0.34,-0.449 -0.291,-1.268 -0.081,-0.106 -0.18,-0.22 -0.298,-0.341 -1.049,-1.074 -2.33,-0.422 -2.33,-0.422 0.017,-0.117 0.055,-0.238 0.11,-0.365 0.36,-0.832 1.469,-1.837 2.414,-2.584 0.162,-0.128 0.319,-0.248 0.467,-0.359 0.587,-0.443 1.026,-0.731 1.026,-0.731l1.547 1.189c0.818,1.815 -0.78,2.441 -1.33,3.438z"/>
       <path class="fil23" d="M25.043 41.984c-0.257,0.467 -0.562,0.813 -0.814,1.049 -0.272,0.255 -0.481,0.382 -0.501,0.394 0.021,-0.027 0.34,-0.449 -0.291,-1.268 0.36,0.157 0.891,0.247 1.3,-0.507 0.588,-1.087 1.291,-1.535 1.01,-2.196 -0.231,-0.543 -1.123,-1.247 -1.947,-1.368 0.587,-0.443 1.026,-0.731 1.026,-0.731l1.433 1.101 0.114 0.088c0.818,1.815 -0.78,2.441 -1.33,3.438z"/>
       <path class="fil24" d="M25.043 41.984c-0.257,0.467 -0.562,0.813 -0.814,1.049 0.1,-0.223 0.237,-0.499 0.418,-0.819 0.514,-0.906 0.831,-0.933 1.318,-1.598 0.488,-0.664 0.459,-1.189 -0.244,-2.07l0.538 -0.088 0.114 0.088c0.818,1.815 -0.78,2.441 -1.33,3.438z"/>
       <path class="fil14" d="M33.128 31.363c-0.527,0.105 -1.026,0.095 -1.026,0.095 0,0 -0.47,0.623 -1.376,1.258 -0.289,0.204 -0.624,0.409 -1.003,0.595 -0.105,0.052 -0.213,0.102 -0.325,0.151l0 -1.825c0.198,-0.058 0.412,-0.133 0.629,-0.215 1.047,-0.395 2.191,-0.98 2.191,-0.98 0,0 0.201,-1.074 0.421,-1.151 0.221,-0.076 0.135,0.889 0.135,0.889 0,0 1.083,-0.623 1.207,-0.464 0.096,0.123 -0.438,0.495 -0.693,0.663 0.22,-0.131 0.652,-0.347 0.751,-0.1 0.135,0.336 -0.384,0.978 -0.911,1.084z"/>
       <path class="fil11" d="M30.726 32.716c-0.289,0.204 -0.624,0.409 -1.003,0.595l-0.325 -0.236 0 -1.438c0.198,-0.058 0.412,-0.133 0.629,-0.215 0.205,0.425 0.514,0.963 0.699,1.294z"/>
       <path class="fil14" d="M22.973 34.557l-0.067 0.528 -0.061 0.495c0,0 -1.036,0.958 -1.982,0.805 -0.945,-0.153 -1.342,-3.08 -1.342,-3.08 0,0 -0.703,-0.614 -0.869,-0.818 -0.166,-0.205 -0.025,-0.921 0.217,-1.049 0.243,-0.127 0.703,0.78 0.703,0.78 0,0 -0.268,-1.342 -0.076,-1.256 0.191,0.087 0.511,1.32 0.511,1.32 0,0 0.294,-0.729 0.461,-0.485 0.165,0.242 -0.219,0.971 0,1.431 0.216,0.46 0.868,1.617 0.868,1.617l0.486 -0.825 1.151 0.537z"/>
       <path class="fil10" d="M22.973 34.557l-0.052 0.409 -0.015 0.119c-0.045,0.133 -0.089,0.249 -0.127,0.321 -0.153,0.292 -1.026,0.748 -1.026,0.748 0,0 -0.264,-1.05 -0.417,-1.309l0.073 -0.124 0.229 -0.387 0.12 -0.204 0.064 -0.11 0.144 0.067 0.436 0.204 0.571 0.266z"/>
       <path class="fil11" d="M22.928 34.759l-0.007 0.207 -0.015 0.119c-0.045,0.133 -0.089,0.249 -0.127,0.321 -0.153,0.292 -1.026,0.748 -1.026,0.748 0,0 -0.264,-1.05 -0.417,-1.309l0.073 -0.124c0.076,0.055 0.222,0.173 0.311,0.321 0.116,0.19 0.285,-0.179 -0.082,-0.708l0.12 -0.204 0.159 -0.057 0.049 0.014 0.31 0.092 0.126 0.112 0.526 0.468z"/>
       <path class="fil0" d="M30.175 33.119c0,0 -0.931,0.336 -1.645,0.76 -0.125,0.075 -0.243,0.151 -0.349,0.229 -0.709,0.526 -1.361,3.383 -1.495,4.303 -0.134,0.921 -1.605,0.186 -2.563,-0.581 -0.205,-0.164 -0.448,-0.302 -0.703,-0.42 -0.935,-0.436 -2.024,-0.61 -1.943,-0.872 0.103,-0.332 0.946,-1.648 0.946,-1.648l-0.631 -0.654 -0.123 -0.128c0,0 0.652,-1.723 1.815,-2.286 0.728,-0.352 1.233,-0.344 1.808,-0.258 0.343,0.051 0.711,0.129 1.167,0.175 0.335,0.034 0.649,0.045 0.94,0.04 1.406,-0.021 2.259,-0.404 2.259,-0.404l0.517 1.744z"/>
       <path class="fil15" d="M27.399 31.779c0,0.511 -0.14,1.55 -1.308,1.302 -1.226,-0.261 -0.957,-1.166 -0.799,-1.517 0.343,0.051 0.711,0.129 1.167,0.175 0.335,0.034 0.649,0.045 0.94,0.04z"/>
       <path class="fil10" d="M27.433 31.471c-0.492,0.509 -0.115,1.102 -0.825,1.288 -0.051,0.014 -0.108,0.025 -0.171,0.034 -0.939,0.135 -0.953,-0.718 -0.953,-0.718 0,0 0.062,-0.123 0.126,-0.322l0 -0.001c0.065,-0.2 0.133,-0.478 0.146,-0.79l1.677 0.509z"/>
       <path class="fil11" d="M27.433 31.471c-0.28,0.29 -0.278,0.606 -0.356,0.86 -0.059,0.193 -0.163,0.348 -0.469,0.428 -0.035,-0.464 -0.542,-0.647 -0.998,-1.006l0 -0.001c0.011,-0.035 0.023,-0.072 0.033,-0.112 0.053,-0.186 0.102,-0.42 0.113,-0.678l1.677 0.509z"/>
       <path class="fil12" d="M27.433 31.471c-0.28,0.29 -0.278,0.606 -0.356,0.86 -0.6,0.006 -1.078,-0.458 -1.434,-0.691 0.053,-0.186 0.102,-0.42 0.113,-0.678l1.677 0.509z"/>
       <path class="fil14" d="M25.484 28.986c0,0.299 -0.242,0.541 -0.541,0.541 -0.3,0 -0.542,-0.242 -0.542,-0.541 0,-0.3 0.242,-0.542 0.542,-0.542 0.299,0 0.541,0.242 0.541,0.542z"/>
       <path class="fil11" d="M25.266 28.986c0,0.178 -0.145,0.323 -0.323,0.323 -0.179,0 -0.324,-0.145 -0.324,-0.323 0,-0.179 0.145,-0.324 0.324,-0.324 0.178,0 0.323,0.145 0.323,0.324z"/>
       <path class="fil14" d="M29.786 29.354c0,0 -0.253,0.579 -0.717,1.185 -0.409,0.535 -0.983,1.09 -1.693,1.287 -0.294,0.083 -0.612,0.103 -0.952,0.034 -1.258,-0.254 -1.524,-1.318 -1.536,-2.123 -0.009,-0.528 0.091,-0.944 0.091,-0.944 0.011,-0.059 0.044,-0.128 0.091,-0.206 0.21,-0.342 0.696,-0.867 0.728,-1.533 0.306,1.073 1.572,1.381 2.697,1.649 1.125,0.268 1.291,0.651 1.291,0.651z"/>
       <path class="fil16" d="M27.376 31.826c-0.294,0.083 -0.612,0.103 -0.952,0.034 -1.258,-0.254 -1.524,-1.318 -1.536,-2.123 0.09,0.053 0.133,0.605 0.489,1.125 0.431,0.627 1.004,1.069 1.855,0.973 0.057,-0.007 0.105,-0.009 0.144,-0.009z"/>
       <path class="fil10" d="M29.786 29.354c0,0 -0.1,0.227 -0.288,0.546 -0.112,0.19 -0.255,0.412 -0.429,0.639 -0.036,-1.026 -1.256,-1.284 -2.088,-1.695 -0.914,-0.451 -1.064,-0.758 -1.064,-0.758 0,0 -0.19,0.211 -0.851,0.576l0.004 -0.075c0.066,-0.108 0.16,-0.234 0.258,-0.378 0.214,-0.31 0.448,-0.699 0.47,-1.155 0.306,1.073 1.572,1.381 2.697,1.649 1.125,0.268 1.291,0.651 1.291,0.651z"/>
       <path class="fil11" d="M29.786 29.354c0,0 -0.1,0.227 -0.288,0.546 -0.21,-0.268 -0.572,-0.57 -1.195,-0.839 -1.585,-0.684 -2.435,-1.323 -2.435,-1.323 0,0 -0.214,0.258 -0.54,0.471 0.214,-0.31 0.448,-0.699 0.47,-1.155 0.306,1.073 1.572,1.381 2.697,1.649 1.125,0.268 1.291,0.651 1.291,0.651z"/>
       <path class="fil25" d="M22.276 39.878c-0.825,0.7 -0.988,1.247 -1.357,1.153 0.36,-0.832 1.469,-1.837 2.414,-2.584 0.155,0.091 -0.405,0.877 -1.057,1.431z"/>
       <g>
        <path class="fil11" d="M26.769 29.668c0.029,-0.029 0.077,-0.029 0.106,0 0.029,0.029 0.029,0.077 0,0.106l-0.106 -0.106zm0.21 0.477l-0.018 0.149 -0.03 -0.005 -0.029 -0.006 -0.029 -0.007 -0.027 -0.01 -0.025 -0.011 -0.024 -0.012 -0.023 -0.014 -0.022 -0.016 -0.019 -0.017 -0.019 -0.018 -0.016 -0.019 -0.014 -0.02 -0.013 -0.022 -0.011 -0.022 -0.009 -0.023 -0.007 -0.023 -0.006 -0.025 -0.003 -0.024 -0.002 -0.025 0.001 -0.025 0.002 -0.024 0.004 -0.026 0.005 -0.024 0.007 -0.024 0.009 -0.025 0.011 -0.024 0.012 -0.024 0.014 -0.023 0.015 -0.023 0.017 -0.022 0.019 -0.022 0.02 -0.021 0.106 0.106 -0.015 0.015 -0.013 0.016 -0.012 0.015 -0.01 0.016 -0.009 0.016 -0.008 0.016 -0.007 0.015 -0.006 0.015 -0.004 0.016 -0.004 0.015 -0.002 0.014 -0.001 0.014 -0.001 0.014 0.001 0.014 0.002 0.013 0.003 0.012 0.004 0.012 0.004 0.012 0.006 0.012 0.006 0.01 0.008 0.01 0.008 0.011 0.01 0.009 0.01 0.009 0.012 0.009 0.013 0.008 0.015 0.007 0.016 0.007 0.017 0.006 0.019 0.005 0.02 0.004 0.022 0.004zm0 0c0.041,0.005 0.07,0.042 0.066,0.083 -0.005,0.041 -0.043,0.071 -0.084,0.066l0.018 -0.149z"/>
       </g>
       <g>
        <path class="fil13" d="M28.261 29.887c-0.028,0.142 -0.141,0.239 -0.252,0.217 -0.111,-0.022 -0.178,-0.155 -0.15,-0.297 0.028,-0.141 0.141,-0.239 0.252,-0.217 0.111,0.022 0.178,0.154 0.15,0.297z"/>
        <g>
         <path class="fil13" d="M28 29.183c-0.016,0.012 -0.04,0.008 -0.052,-0.008 -0.012,-0.017 -0.009,-0.041 0.008,-0.053l0.044 0.061zm0.521 0.031l-0.051 0.056 -0.025 -0.023 -0.024 -0.019 -0.024 -0.018 -0.024 -0.015 -0.023 -0.013 -0.022 -0.012 -0.022 -0.009 -0.022 -0.008 -0.021 -0.006 -0.02 -0.005 -0.019 -0.004 -0.019 -0.002 -0.019 -0.001 -0.017 -0.001 -0.017 0.001 -0.016 0.001 -0.016 0.003 -0.015 0.002 -0.014 0.003 -0.013 0.004 -0.012 0.004 -0.011 0.004 -0.011 0.004 -0.009 0.004 -0.009 0.004 -0.007 0.003 -0.006 0.004 -0.004 0.003 -0.005 0.003 -0.003 0.001 0 0.001 -0.001 0 -0.044 -0.061 0.001 0 0.004 -0.003 0.004 -0.003 0.004 -0.002 0.007 -0.004 0.008 -0.005 0.01 -0.005 0.01 -0.004 0.012 -0.006 0.012 -0.005 0.014 -0.005 0.015 -0.004 0.016 -0.005 0.017 -0.003 0.018 -0.004 0.019 -0.002 0.02 -0.002 0.021 -0.001 0.022 0.001 0.022 0.001 0.023 0.003 0.024 0.004 0.024 0.006 0.025 0.008 0.026 0.009 0.026 0.012 0.026 0.012 0.026 0.016 0.027 0.017 0.027 0.02 0.028 0.022 0.027 0.024zm0 0c0.015,0.015 0.016,0.039 0.002,0.054 -0.014,0.015 -0.038,0.016 -0.053,0.002l0.051 -0.056z"/>
        </g>
       </g>
       <g>
        <path class="fil13" d="M25.86 29.392c-0.034,0.14 0.027,0.276 0.137,0.303 0.11,0.026 0.226,-0.066 0.261,-0.207 0.034,-0.141 -0.028,-0.276 -0.137,-0.303 -0.11,-0.027 -0.227,0.066 -0.261,0.207z"/>
        <g>
         <path class="fil13" d="M26.457 28.826c0.01,0.018 0.004,0.041 -0.014,0.051 -0.018,0.009 -0.041,0.003 -0.051,-0.015l0.065 -0.036zm-0.528 -0.082l-0.024 -0.072 0.036 -0.01 0.033 -0.009 0.033 -0.006 0.032 -0.005 0.031 -0.002 0.029 -0.002 0.028 0.001 0.027 0.002 0.026 0.004 0.025 0.005 0.023 0.006 0.022 0.007 0.021 0.008 0.02 0.008 0.019 0.01 0.017 0.01 0.016 0.01 0.015 0.011 0.014 0.01 0.013 0.011 0.012 0.01 0.01 0.011 0.01 0.01 0.008 0.009 0.007 0.009 0.007 0.008 0.005 0.008 0.005 0.006 0.003 0.005 0.003 0.004 0.001 0.003 0.001 0.002 -0.065 0.036 0 0 -0.001 -0.001 -0.002 -0.003 -0.002 -0.004 -0.004 -0.005 -0.004 -0.005 -0.005 -0.007 -0.006 -0.007 -0.007 -0.008 -0.008 -0.008 -0.008 -0.008 -0.009 -0.009 -0.011 -0.008 -0.011 -0.009 -0.012 -0.008 -0.014 -0.009 -0.014 -0.008 -0.015 -0.008 -0.016 -0.007 -0.017 -0.006 -0.019 -0.006 -0.019 -0.005 -0.02 -0.004 -0.021 -0.003 -0.024 -0.002 -0.023 0 -0.026 0 -0.026 0.003 -0.028 0.004 -0.029 0.006 -0.03 0.007 -0.032 0.01zm0 0c-0.02,0.006 -0.041,-0.004 -0.048,-0.024 -0.006,-0.02 0.004,-0.041 0.024,-0.048l0.024 0.072z"/>
        </g>
       </g>
       <path class="fil15" d="M26.604 30.79l0.762 0.086c0,0 0.068,0.398 -0.416,0.355 -0.462,-0.041 -0.346,-0.441 -0.346,-0.441z"/>
       <path class="fil9" d="M28.53 33.879c-0.125,0.075 -0.243,0.151 -0.349,0.229 -0.19,0.141 -0.377,0.451 -0.551,0.847 0,0 0,0.001 0,0.001 -0.471,1.075 -0.846,2.783 -0.944,3.455 -0.125,0.858 -1.409,0.279 -2.358,-0.423 -0.071,-0.053 -0.139,-0.105 -0.205,-0.158 -0.205,-0.164 -0.448,-0.302 -0.703,-0.42 0.325,0.036 0.69,0.055 1.01,0.023 0.799,-0.08 1.725,0.512 2.224,-0.753 0.499,-1.266 0.55,-2.148 1.876,-2.801z"/>
       <path class="fil26" d="M27.63 34.956c-0.471,1.075 -0.846,2.783 -0.944,3.455 -0.125,0.858 -1.409,0.279 -2.358,-0.423 0.63,0.006 1.505,0.314 2.131,-0.008 0.668,-0.344 0.422,-2.353 1.171,-3.024z"/>
       <path class="fil9" d="M22.423 34.89l-0.631 -0.654c0.069,-0.068 0.177,-0.128 0.34,-0.163 0.556,-0.12 1.332,-1.558 1.429,-1.314 0.096,0.244 -0.451,0.821 -1.138,2.131z"/>
       <path class="fil11" d="M19.937 32.515c-0.096,0.216 -0.083,0.559 -0.055,0.496 0.029,-0.064 0.09,-0.393 0.128,-0.477 0.039,-0.083 -0.045,-0.083 -0.073,-0.019z"/>
       <path class="fil11" d="M32.713 30.429c0.006,0.223 -0.288,0.434 -0.185,0.533 0.102,0.099 0.364,-0.501 0.185,-0.533z"/>
      </g>
      <g>
       <path class="fil14" d="M36.177 37.971c-0.055,0.013 -0.116,0.024 -0.182,0.035 -1.758,0.284 -7.075,-0.308 -7.335,-0.176 -0.267,0.137 -1.227,0.859 -2.201,0.794 -0.975,-0.066 -1.441,-0.625 -1.439,-0.721 0.001,-0.079 0.858,-0.225 1.156,-0.274 -0.19,0.027 -0.621,0.082 -1.024,0.082 -0.538,0 -1.084,-0.46 -0.7,-0.402 0.384,0.058 2.924,-0.566 2.924,-0.566 0,0 -0.939,-1.016 -0.668,-1.227 0.272,-0.211 1.167,0.747 1.646,0.638 0.479,-0.11 4.468,-1.04 6.059,-0.945 1.175,-2.993 2.788,-7.079 4.233,-8.976 0.488,-0.643 0.958,-1.035 1.385,-1.049 2.858,1.9 -2.32,12.422 -3.854,12.787z"/>
       <path class="fil10" d="M40.585 29.515c-0.862,3.668 -3.408,8.218 -4.408,8.456 -0.055,0.013 -0.116,0.024 -0.182,0.035 1.061,-1.001 1.676,-2.905 2.54,-5.274 0.886,-2.428 1.293,-6.351 0.111,-6.499 0.084,-0.11 0.166,-0.213 0.249,-0.307 0.399,-0.459 0.782,-0.731 1.136,-0.742 0.996,0.661 1.016,2.37 0.554,4.331z"/>
       <path class="fil11" d="M40.585 29.515c0.177,-2.187 -0.727,-3.583 -1.69,-3.589 0.399,-0.459 0.782,-0.731 1.136,-0.742 0.996,0.661 1.016,2.37 0.554,4.331z"/>
      </g>
     </g>
    </g>
   </g>
  </g>
  <path class="fil27" d="M24.762 0c13.676,0 24.762,10.063 24.762,22.477 0,12.414 -11.086,22.477 -24.762,22.477 -13.676,0 -24.762,-10.063 -24.762,-22.477 0,-12.414 11.086,-22.477 24.762,-22.477z"/>
 </g>
</svg>
