<?xml version="1.0" encoding="UTF-8"?>
<!DOCTYPE svg PUBLIC "-//W3C//DTD SVG 1.1//EN" "http://www.w3.org/Graphics/SVG/1.1/DTD/svg11.dtd">
<!-- Creator: CorelDRAW 2019 (64-Bit) -->
<svg xmlns="http://www.w3.org/2000/svg" xml:space="preserve" width="31px" height="30px" version="1.1" style="shape-rendering:geometricPrecision; text-rendering:geometricPrecision; image-rendering:optimizeQuality; fill-rule:evenodd; clip-rule:evenodd"
viewBox="0 0 42.449 40.763"
 xmlns:xlink="http://www.w3.org/1999/xlink">
 <defs>
  <style type="text/css">
   <![CDATA[
    .fil0 {fill:#F5427B}
    .fil1 {fill:#74ECF2;fill-rule:nonzero}
   ]]>
  </style>
 </defs>
 <g id="Layer_x0020_1">
  <metadata id="CorelCorpID_0Corel-Layer"/>
  <g>
   <path class="fil0" d="M14.522 12.913l-3.935 0.346c-0.563,0.072 -1.279,0.094 -1.914,0.185l-5.937 0.524c-1.332,0.093 -2.095,1.026 -2.184,2.037l0 0.404c0.049,0.56 0.306,1.112 0.787,1.531 0.149,0.13 0.172,0.123 0.319,0.246l8.664 7.567 -2.438 10.644c-0.263,1.125 -0.647,2.149 0.355,3.149 1.495,1.49 3.062,0.133 4.541,-0.756l8.444 -5.042 9.757 5.829c0.98,0.593 2.098,1.063 3.187,0.008 1.045,-1.01 0.669,-1.996 0.413,-3.124l-2.454 -10.708 8.939 -7.776c0.504,-0.418 0.777,-0.981 0.831,-1.555l0 -0.435c-0.095,-0.997 -0.848,-1.917 -2.186,-2.018 -3.04,-0.231 -6.994,-0.738 -9.767,-0.892 -0.658,-0.037 -1.395,-0.164 -2.017,-0.164 -0.032,-0.377 -3.89,-9.22 -4.221,-9.991 -0.236,-0.551 -0.432,-1.142 -0.771,-1.572 -0.831,-1.049 -2.528,-1.067 -3.385,-0.044 -0.486,0.581 -3.715,8.394 -4.336,9.876 -0.156,0.373 -0.665,1.406 -0.692,1.731z"/>
   <path id="1" class="fil1" d="M10.539 12.71l3.935 -0.346 0.096 1.098 -3.934 0.346 -0.118 -1.096 0.021 -0.002zm-0.021 0.002l0.021 -0.002 -0.007 0 -0.014 0.002zm-1.796 1.281l-0.097 -1.098 -0.029 0.003 0.063 -0.008 0.064 -0.009 0.065 -0.008 0.062 -0.007 0.065 -0.008 0.065 -0.007 0.061 -0.006 0.067 -0.007 0.065 -0.006 0.062 -0.006 0.066 -0.006 0.062 -0.005 0.061 -0.005 0.066 -0.005 0.063 -0.005 0.061 -0.005 0.061 -0.005 0.061 -0.004 0.061 -0.005 0.061 -0.005 0.06 -0.005 0.059 -0.005 0.059 -0.005 0.055 -0.005 0.058 -0.005 0.057 -0.005 0.052 -0.005 0.056 -0.006 0.051 -0.005 0.05 -0.006 0.053 -0.006 0.05 -0.006 0.139 1.094 -0.057 0.007 -0.056 0.006 -0.059 0.008 -0.061 0.005 -0.056 0.006 -0.062 0.006 -0.059 0.005 -0.058 0.006 -0.063 0.005 -0.059 0.005 -0.06 0.004 -0.062 0.005 -0.06 0.005 -0.062 0.005 -0.06 0.005 -0.063 0.005 -0.062 0.004 -0.062 0.005 -0.058 0.005 -0.061 0.006 -0.063 0.005 -0.059 0.005 -0.062 0.006 -0.059 0.005 -0.058 0.006 -0.061 0.007 -0.058 0.005 -0.058 0.008 -0.06 0.007 -0.057 0.006 -0.056 0.008 -0.055 0.008 -0.029 0.003zm0.029 -0.003l-0.012 0.001 -0.017 0.002 0.029 -0.003zm-6.063 -0.571l5.937 -0.524 0.097 1.098 -5.937 0.524 -0.011 0.001 -0.086 -1.099zm0.097 1.098l-0.011 0.001 0.007 -0.001 0.004 0zm-1.682 1.488l-1.103 0 0.002 -0.049 0.013 -0.118 0.018 -0.115 0.022 -0.115 0.028 -0.118 0.032 -0.112 0.037 -0.111 0.043 -0.113 0.046 -0.11 0.052 -0.106 0.056 -0.106 0.063 -0.104 0.064 -0.098 0.07 -0.098 0.076 -0.097 0.081 -0.093 0.084 -0.088 0.088 -0.086 0.094 -0.083 0.098 -0.077 0.102 -0.076 0.109 -0.07 0.109 -0.064 0.115 -0.062 0.119 -0.056 0.121 -0.051 0.126 -0.047 0.132 -0.041 0.134 -0.036 0.136 -0.031 0.139 -0.024 0.141 -0.018 0.148 -0.014 0.076 1.1 -0.099 0.009 -0.098 0.014 -0.094 0.016 -0.089 0.019 -0.086 0.023 -0.081 0.026 -0.08 0.029 -0.077 0.033 -0.074 0.034 -0.068 0.038 -0.069 0.04 -0.063 0.041 -0.06 0.045 -0.059 0.046 -0.054 0.048 -0.055 0.052 -0.05 0.052 -0.047 0.054 -0.043 0.055 -0.041 0.058 -0.041 0.064 -0.036 0.059 -0.033 0.064 -0.032 0.065 -0.028 0.064 -0.025 0.066 -0.022 0.069 -0.021 0.07 -0.015 0.067 -0.014 0.072 -0.011 0.073 -0.008 0.07 0.002 -0.048zm-1.103 0l0 -0.021 0.002 -0.028 -0.002 0.049zm0 0.404l0 -0.404 1.103 0 0 0.404 -1.101 0.049 -0.002 -0.049zm0.002 0.049l-0.002 -0.028 0 -0.021 0.002 0.049zm1.699 1.066l-0.724 0.832 0 0 -0.055 -0.049 -0.052 -0.05 -0.05 -0.048 -0.053 -0.054 -0.047 -0.053 -0.048 -0.053 -0.045 -0.056 -0.041 -0.052 -0.042 -0.055 -0.042 -0.058 -0.04 -0.059 -0.037 -0.056 -0.036 -0.058 -0.034 -0.06 -0.033 -0.06 -0.03 -0.06 -0.03 -0.06 -0.03 -0.065 -0.026 -0.061 -0.025 -0.061 -0.023 -0.063 -0.022 -0.063 -0.02 -0.063 -0.019 -0.063 -0.018 -0.067 -0.014 -0.06 -0.015 -0.065 -0.013 -0.069 -0.01 -0.059 -0.01 -0.066 -0.009 -0.069 -0.006 -0.063 1.099 -0.097 0.004 0.042 0.004 0.035 0.006 0.04 0.008 0.044 0.006 0.036 0.01 0.039 0.009 0.043 0.01 0.035 0.011 0.04 0.013 0.038 0.013 0.039 0.015 0.038 0.015 0.039 0.016 0.039 0.016 0.034 0.018 0.038 0.02 0.037 0.021 0.037 0.02 0.035 0.022 0.036 0.023 0.037 0.023 0.033 0.025 0.035 0.026 0.033 0.029 0.037 0.028 0.033 0.028 0.033 0.03 0.033 0.03 0.03 0.034 0.034 0.033 0.031 0.034 0.03 0 0zm0.32 0.247l-0.726 0.83 0.009 0.007 -0.015 -0.012 -0.01 -0.008 0.006 0.004 -0.018 -0.013 -0.016 -0.013 0 0 -0.017 -0.013 0.006 0.004 0.003 0.002 -0.018 -0.013 -0.005 -0.004 -0.019 -0.013 -0.008 -0.006 0.007 0.005 -0.008 -0.006 0.007 0.005 -0.023 -0.015 -0.024 -0.017 0.017 0.012 -0.023 -0.016 -0.022 -0.017 0.002 0.001 -0.013 -0.009 -0.013 -0.009 -0.021 -0.016 -0.014 -0.012 -0.013 -0.01 -0.012 -0.011 -0.015 -0.012 -0.014 -0.011 -0.015 -0.013 -0.019 -0.016 0.724 -0.832 0.009 0.008 0.01 0.008 0.011 0.01 0.009 0.007 0.009 0.007 0.009 0.008 0.006 0.004 -0.002 -0.001 0.007 0.005 0.005 0.004 0.019 0.013 -0.006 -0.003 -0.005 -0.005 0.033 0.024 -0.008 -0.004 -0.007 -0.006 0.024 0.016 0.008 0.006 0.023 0.016 0.008 0.006 -0.002 -0.001 0.012 0.009 0 0 0.023 0.015 0.023 0.019 0.004 0.003 0.021 0.016 0.005 0.004 0.006 0.005 0.03 0.024 0.015 0.012 0.013 0.012 0.008 0.006zm-0.008 -0.006l0.008 0.006 0.009 0.009 -0.017 -0.015zm7.947 8.403l-8.665 -7.567 0.726 -0.83 8.664 7.567 0.174 0.538 -0.899 0.292zm0.725 -0.83l0.248 0.216 -0.074 0.322 -0.174 -0.538zm-3.338 10.936l2.438 -10.644 1.074 0.246 -2.438 10.643 0 0.004 -1.074 -0.249zm1.074 0.245l0 0.004 -0.035 0.149 0.035 -0.153zm0.208 2.636l-0.779 0.781 0 0 -0.106 -0.111 -0.101 -0.114 -0.09 -0.116 -0.085 -0.117 -0.076 -0.121 -0.067 -0.118 -0.061 -0.123 -0.053 -0.125 -0.043 -0.12 -0.04 -0.124 -0.03 -0.125 -0.025 -0.122 -0.018 -0.124 -0.012 -0.122 -0.005 -0.119 -0.003 -0.119 0.003 -0.121 0.008 -0.117 0.01 -0.113 0.014 -0.115 0.017 -0.112 0.019 -0.11 0.02 -0.111 0.022 -0.108 0.024 -0.108 0.024 -0.107 0.025 -0.106 0.026 -0.106 0.026 -0.105 0.026 -0.1 0.024 -0.103 0.024 -0.103 1.074 0.252 -0.026 0.106 -0.026 0.108 -0.026 0.107 -0.025 0.103 -0.024 0.098 -0.024 0.099 -0.023 0.097 -0.02 0.096 -0.019 0.093 -0.017 0.09 -0.015 0.09 -0.012 0.087 -0.011 0.084 -0.007 0.083 -0.006 0.081 -0.002 0.076 0.001 0.076 0.004 0.075 0.008 0.072 0.009 0.07 0.014 0.069 0.017 0.068 0.02 0.066 0.026 0.071 0.028 0.066 0.034 0.067 0.04 0.071 0.043 0.069 0.051 0.072 0.058 0.072 0.065 0.074 0.073 0.076 0 0zm3.868 -0.839l0.566 0.947 0.001 -0.001 -0.135 0.082 -0.135 0.084 -0.137 0.087 -0.14 0.089 -0.142 0.09 -0.141 0.089 -0.145 0.092 -0.147 0.089 -0.147 0.088 -0.151 0.088 -0.154 0.084 -0.153 0.08 -0.155 0.077 -0.16 0.072 -0.162 0.067 -0.165 0.061 -0.168 0.054 -0.17 0.045 -0.173 0.037 -0.177 0.026 -0.181 0.016 -0.181 0.001 -0.185 -0.01 -0.187 -0.026 -0.186 -0.041 -0.186 -0.058 -0.183 -0.075 -0.181 -0.089 -0.177 -0.108 -0.174 -0.122 -0.17 -0.14 -0.166 -0.155 0.779 -0.781 0.115 0.108 0.111 0.091 0.109 0.077 0.106 0.064 0.101 0.051 0.101 0.04 0.099 0.031 0.099 0.021 0.098 0.015 0.101 0.006 0.104 -0.002 0.105 -0.009 0.111 -0.017 0.113 -0.023 0.115 -0.031 0.118 -0.038 0.123 -0.046 0.124 -0.051 0.126 -0.058 0.13 -0.064 0.132 -0.068 0.132 -0.073 0.133 -0.077 0.136 -0.081 0.138 -0.084 0.137 -0.086 0.14 -0.089 0.14 -0.089 0.14 -0.089 0.142 -0.09 0.145 -0.09 0.143 -0.087 0.001 -0.001zm-0.001 0.001l0.001 -0.001 -0.039 0.024 0.038 -0.023zm9.011 -4.096l-8.444 5.042 -0.566 -0.947 8.445 -5.042 0.565 0 0 0.947zm-0.565 -0.947l0.282 -0.169 0.283 0.169 -0.565 0zm9.756 6.776l-9.756 -5.829 0.565 -0.947 9.756 5.83 0.003 0.001 -0.568 0.945zm0.565 -0.946l0.003 0.001 -0.024 -0.014 0.021 0.013zm2.522 0.085l0.767 0.793 0 -0.001 -0.122 0.112 -0.122 0.103 -0.125 0.095 -0.128 0.086 -0.13 0.078 -0.131 0.068 -0.13 0.059 -0.133 0.051 -0.136 0.042 -0.134 0.033 -0.133 0.026 -0.135 0.016 -0.131 0.01 -0.13 0.003 -0.13 -0.005 -0.13 -0.012 -0.125 -0.017 -0.123 -0.021 -0.124 -0.028 -0.118 -0.032 -0.117 -0.035 -0.117 -0.04 -0.114 -0.043 -0.111 -0.046 -0.11 -0.049 -0.109 -0.051 -0.104 -0.053 -0.105 -0.053 -0.104 -0.057 -0.098 -0.057 -0.1 -0.056 -0.097 -0.059 0.57 -0.944 0.086 0.051 0.088 0.052 0.089 0.05 0.085 0.046 0.085 0.045 0.088 0.043 0.084 0.041 0.084 0.037 0.084 0.034 0.084 0.032 0.08 0.027 0.081 0.025 0.081 0.021 0.077 0.018 0.076 0.014 0.077 0.01 0.073 0.007 0.072 0.001 0.073 0 0.072 -0.005 0.07 -0.009 0.071 -0.014 0.071 -0.017 0.069 -0.022 0.073 -0.028 0.075 -0.033 0.073 -0.039 0.075 -0.044 0.078 -0.054 0.08 -0.059 0.082 -0.069 0.083 -0.077 0 0zm0.259 -2.605l1.074 -0.246 0.001 0.001 0.023 0.101 0.025 0.104 0.024 0.103 0.025 0.103 0.025 0.104 0.024 0.105 0.023 0.105 0.024 0.108 0.021 0.11 0.019 0.107 0.018 0.108 0.015 0.113 0.013 0.116 0.008 0.114 0.006 0.114 0.002 0.118 -0.004 0.118 -0.009 0.122 -0.014 0.121 -0.021 0.12 -0.026 0.124 -0.035 0.125 -0.04 0.121 -0.048 0.123 -0.057 0.122 -0.063 0.119 -0.071 0.12 -0.08 0.119 -0.086 0.116 -0.096 0.115 -0.102 0.113 -0.11 0.112 -0.767 -0.793 0.077 -0.078 0.069 -0.076 0.061 -0.074 0.054 -0.073 0.048 -0.07 0.04 -0.069 0.038 -0.07 0.03 -0.066 0.026 -0.067 0.023 -0.067 0.018 -0.066 0.015 -0.067 0.011 -0.07 0.009 -0.07 0.005 -0.071 0.001 -0.073 0 -0.075 -0.004 -0.079 -0.006 -0.082 -0.008 -0.08 -0.012 -0.082 -0.015 -0.089 -0.016 -0.091 -0.018 -0.091 -0.019 -0.092 -0.023 -0.098 -0.022 -0.097 -0.024 -0.1 -0.025 -0.104 -0.024 -0.104 -0.026 -0.106 -0.025 -0.109 0.001 0.001zm1.074 -0.246l0.001 0.001 0.066 0.293 -0.067 -0.294zm-2.454 -10.708l2.454 10.708 -1.074 0.246 -2.454 -10.708 0.175 -0.539 0.899 0.293zm-1.074 0.246l-0.074 -0.323 0.249 -0.216 -0.175 0.539zm9.838 -7.483l-8.94 7.776 -0.723 -0.832 8.939 -7.776 0.011 -0.009 0.713 0.841zm-0.724 -0.832l0.011 -0.009 -0.006 0.005 -0.005 0.004zm0.642 -1.139l1.103 0 -0.002 0.052 -0.008 0.069 -0.009 0.065 -0.01 0.065 -0.011 0.066 -0.013 0.065 -0.017 0.07 -0.016 0.064 -0.018 0.066 -0.021 0.067 -0.022 0.064 -0.021 0.059 -0.026 0.067 -0.027 0.067 -0.027 0.059 -0.031 0.064 -0.031 0.062 -0.032 0.06 -0.035 0.062 -0.037 0.061 -0.037 0.058 -0.039 0.06 -0.042 0.058 -0.041 0.056 -0.045 0.056 -0.048 0.058 -0.047 0.054 -0.047 0.051 -0.053 0.055 -0.052 0.051 -0.053 0.05 -0.056 0.05 -0.057 0.049 -0.703 -0.85 0.036 -0.031 0.034 -0.03 0.035 -0.033 0.033 -0.032 0.03 -0.031 0.032 -0.036 0.03 -0.033 0.027 -0.033 0.026 -0.034 0.029 -0.038 0.024 -0.034 0.023 -0.035 0.025 -0.038 0.021 -0.036 0.021 -0.036 0.021 -0.038 0.02 -0.039 0.016 -0.035 0.018 -0.043 0.017 -0.036 0.013 -0.036 0.016 -0.044 0.013 -0.041 0.012 -0.036 0.011 -0.041 0.011 -0.041 0.008 -0.037 0.008 -0.041 0.008 -0.041 0.005 -0.042 0.006 -0.041 0.004 -0.039 -0.002 0.051zm1.103 0l0 0.026 -0.002 0.026 0.002 -0.052zm0 -0.435l0 0.435 -1.103 0 0 -0.435 1.1 -0.052 0.003 0.052zm-0.003 -0.052l0.003 0.033 0 0.019 -0.003 -0.052zm-2.777 -1.416l0.084 -1.1 0 0 0.145 0.014 0.143 0.02 0.141 0.025 0.137 0.031 0.132 0.036 0.128 0.041 0.126 0.046 0.123 0.052 0.119 0.055 0.115 0.062 0.108 0.064 0.106 0.068 0.105 0.076 0.098 0.078 0.092 0.08 0.088 0.084 0.086 0.088 0.08 0.093 0.074 0.093 0.072 0.099 0.064 0.099 0.062 0.101 0.056 0.105 0.051 0.105 0.048 0.109 0.042 0.111 0.036 0.108 0.033 0.113 0.029 0.115 0.021 0.112 0.02 0.116 0.013 0.117 -1.097 0.104 -0.008 -0.069 -0.011 -0.069 -0.016 -0.073 -0.015 -0.067 -0.02 -0.066 -0.024 -0.071 -0.024 -0.064 -0.028 -0.064 -0.032 -0.065 -0.032 -0.059 -0.037 -0.063 -0.039 -0.059 -0.041 -0.056 -0.045 -0.057 -0.046 -0.053 -0.049 -0.051 -0.054 -0.051 -0.057 -0.049 -0.057 -0.047 -0.058 -0.042 -0.065 -0.041 -0.07 -0.041 -0.069 -0.037 -0.073 -0.035 -0.076 -0.032 -0.079 -0.029 -0.085 -0.026 -0.088 -0.025 -0.089 -0.02 -0.093 -0.017 -0.098 -0.013 -0.102 -0.009 0 0zm-9.757 -0.892l0.063 -1.1 -0.001 -0.001 0.267 0.016 0.272 0.018 0.279 0.019 0.285 0.021 0.29 0.023 0.294 0.024 0.298 0.025 0.303 0.027 0.306 0.028 0.311 0.03 0.31 0.03 0.315 0.03 0.319 0.032 0.319 0.032 0.319 0.032 0.322 0.032 0.323 0.034 0.321 0.033 0.323 0.032 0.323 0.033 0.319 0.033 0.32 0.032 0.319 0.032 0.315 0.032 0.314 0.029 0.311 0.03 0.307 0.029 0.304 0.027 0.3 0.027 0.295 0.026 0.29 0.023 0.286 0.022 -0.084 1.1 -0.289 -0.024 -0.295 -0.023 -0.299 -0.026 -0.303 -0.027 -0.306 -0.027 -0.311 -0.03 -0.311 -0.03 -0.316 -0.03 -0.318 -0.031 -0.318 -0.033 -0.321 -0.031 -0.322 -0.033 -0.322 -0.033 -0.322 -0.033 -0.323 -0.033 -0.322 -0.033 -0.319 -0.032 -0.322 -0.032 -0.317 -0.033 -0.315 -0.031 -0.314 -0.03 -0.31 -0.03 -0.307 -0.028 -0.305 -0.028 -0.299 -0.027 -0.294 -0.025 -0.291 -0.024 -0.285 -0.022 -0.279 -0.021 -0.274 -0.019 -0.267 -0.018 -0.26 -0.014 -0.001 -0.001zm0.001 0.001l-0.001 -0.001 0.645 0.036 -0.644 -0.035zm-2.535 -0.669l1.098 -0.092 -0.549 -0.505 0.066 0 0.067 0.002 0.063 0.002 0.064 0.002 0.068 0.002 0.069 0.005 0.061 0.004 0.066 0.004 0.07 0.006 0.066 0.006 0.063 0.005 0.068 0.006 0.067 0.007 0.063 0.007 0.064 0.006 0.068 0.007 0.065 0.007 0.064 0.006 0.068 0.008 0.062 0.007 0.064 0.006 0.065 0.008 0.061 0.006 0.065 0.007 0.061 0.005 0.06 0.006 0.064 0.006 0.06 0.005 0.061 0.004 0.059 0.005 0.058 0.004 0.058 0.004 -0.063 1.1 -0.066 -0.004 -0.066 -0.004 -0.066 -0.005 -0.065 -0.005 -0.067 -0.006 -0.064 -0.006 -0.068 -0.005 -0.066 -0.008 -0.065 -0.006 -0.068 -0.007 -0.064 -0.007 -0.065 -0.006 -0.068 -0.008 -0.061 -0.007 -0.065 -0.006 -0.064 -0.008 -0.062 -0.006 -0.064 -0.007 -0.065 -0.006 -0.06 -0.006 -0.06 -0.005 -0.065 -0.006 -0.059 -0.006 -0.055 -0.004 -0.06 -0.004 -0.062 -0.004 -0.055 -0.003 -0.054 -0.002 -0.057 -0.003 -0.056 -0.001 -0.051 -0.002 -0.052 0.001 -0.549 -0.506zm0.549 0.506l-0.507 0 -0.042 -0.506 0.549 0.506zm-4.728 -10.326l1.013 -0.434 0 0 0.04 0.093 0.061 0.14 0.078 0.181 0.095 0.22 0.11 0.254 0.125 0.285 0.137 0.316 0.148 0.342 0.158 0.365 0.167 0.385 0.174 0.402 0.18 0.416 0.184 0.427 0.188 0.436 0.188 0.439 0.19 0.442 0.189 0.441 0.187 0.437 0.183 0.428 0.178 0.42 0.173 0.406 0.164 0.391 0.155 0.37 0.145 0.349 0.134 0.323 0.121 0.297 0.108 0.264 0.092 0.232 0.076 0.198 0.058 0.161 0.043 0.131 0.035 0.171 -1.098 0.092 0.007 0.052 -0.027 -0.081 -0.05 -0.139 -0.072 -0.182 -0.088 -0.225 -0.105 -0.259 -0.119 -0.292 -0.133 -0.32 -0.144 -0.347 -0.154 -0.369 -0.164 -0.387 -0.172 -0.405 -0.177 -0.418 -0.184 -0.428 -0.186 -0.437 -0.187 -0.44 -0.19 -0.44 -0.189 -0.439 -0.188 -0.436 -0.184 -0.425 -0.18 -0.416 -0.174 -0.402 -0.165 -0.385 -0.158 -0.365 -0.148 -0.341 -0.137 -0.315 -0.125 -0.287 -0.11 -0.255 -0.095 -0.219 -0.078 -0.181 -0.061 -0.14 -0.042 -0.097 0 0zm-0.696 -1.446l0.864 -0.685 0.001 0.001 0.039 0.05 0.038 0.053 0.036 0.051 0.036 0.052 0.036 0.057 0.032 0.053 0.031 0.052 0.03 0.053 0.029 0.052 0.03 0.057 0.03 0.057 0.025 0.052 0.025 0.053 0.026 0.054 0.027 0.057 0.025 0.055 0.024 0.054 0.022 0.053 0.023 0.053 0.025 0.058 0.021 0.054 0.022 0.052 0.021 0.052 0.023 0.053 0.021 0.053 0.022 0.052 0.022 0.055 0.019 0.048 0.021 0.051 0.022 0.05 0.021 0.051 0.02 0.049 -1.013 0.434 -0.023 -0.055 -0.023 -0.052 -0.022 -0.054 -0.022 -0.055 -0.023 -0.055 -0.02 -0.05 -0.022 -0.053 -0.021 -0.052 -0.021 -0.052 -0.021 -0.052 -0.022 -0.052 -0.021 -0.05 -0.018 -0.045 -0.022 -0.05 -0.022 -0.05 -0.021 -0.047 -0.02 -0.046 -0.02 -0.044 -0.021 -0.044 -0.023 -0.046 -0.023 -0.046 -0.019 -0.038 -0.022 -0.039 -0.022 -0.042 -0.024 -0.041 -0.022 -0.038 -0.023 -0.037 -0.02 -0.033 -0.023 -0.033 -0.024 -0.035 -0.023 -0.03 -0.024 -0.031 0.001 0.001zm0.864 -0.685l0.001 0.001 0.049 0.063 -0.05 -0.064zm-3.394 0.652l-0.845 -0.708 0 0 0.105 -0.119 0.112 -0.109 0.116 -0.103 0.121 -0.094 0.125 -0.087 0.13 -0.078 0.132 -0.071 0.137 -0.063 0.138 -0.056 0.143 -0.048 0.143 -0.038 0.142 -0.033 0.145 -0.025 0.149 -0.017 0.147 -0.009 0.145 -0.002 0.147 0.006 0.149 0.013 0.145 0.021 0.146 0.028 0.143 0.035 0.141 0.043 0.139 0.051 0.139 0.059 0.135 0.067 0.131 0.074 0.127 0.083 0.123 0.089 0.119 0.098 0.115 0.107 0.108 0.114 0.102 0.12 -0.864 0.685 -0.06 -0.07 -0.061 -0.066 -0.065 -0.06 -0.068 -0.055 -0.072 -0.053 -0.075 -0.048 -0.077 -0.044 -0.08 -0.04 -0.081 -0.034 -0.084 -0.03 -0.087 -0.027 -0.087 -0.022 -0.089 -0.017 -0.091 -0.013 -0.088 -0.008 -0.091 -0.003 -0.094 0.001 -0.09 0.006 -0.089 0.01 -0.089 0.016 -0.09 0.019 -0.087 0.024 -0.083 0.028 -0.083 0.034 -0.082 0.037 -0.077 0.042 -0.077 0.046 -0.072 0.05 -0.071 0.055 -0.067 0.059 -0.064 0.063 -0.059 0.067 0 0zm-4.25 9.736l-1.018 -0.427 0 0 0.066 -0.156 0.08 -0.192 0.093 -0.224 0.106 -0.253 0.117 -0.28 0.127 -0.307 0.138 -0.327 0.145 -0.347 0.152 -0.366 0.16 -0.379 0.165 -0.392 0.169 -0.401 0.173 -0.409 0.176 -0.414 0.177 -0.416 0.176 -0.416 0.178 -0.415 0.176 -0.408 0.174 -0.401 0.17 -0.392 0.166 -0.378 0.161 -0.365 0.155 -0.346 0.148 -0.328 0.14 -0.304 0.131 -0.281 0.122 -0.256 0.111 -0.227 0.101 -0.197 0.091 -0.167 0.084 -0.141 0.095 -0.132 0.845 0.708 -0.012 0.018 -0.053 0.09 -0.074 0.136 -0.092 0.18 -0.105 0.212 -0.115 0.244 -0.128 0.275 -0.138 0.299 -0.144 0.322 -0.154 0.344 -0.16 0.36 -0.165 0.375 -0.169 0.389 -0.172 0.401 -0.176 0.406 -0.176 0.412 -0.177 0.414 -0.177 0.416 -0.175 0.413 -0.172 0.407 -0.169 0.401 -0.165 0.391 -0.158 0.379 -0.153 0.364 -0.146 0.348 -0.136 0.326 -0.127 0.305 -0.117 0.282 -0.106 0.253 -0.094 0.224 -0.08 0.191 -0.065 0.159 0 0zm-1.153 2.066l-0.096 -1.098 -0.501 0.504 0.008 -0.07 0.011 -0.062 0.013 -0.061 0.016 -0.061 0.019 -0.064 0.02 -0.061 0.019 -0.058 0.022 -0.061 0.024 -0.063 0.025 -0.064 0.025 -0.064 0.026 -0.067 0.028 -0.066 0.027 -0.066 0.029 -0.066 0.029 -0.07 0.03 -0.067 0.028 -0.062 0.03 -0.068 0.03 -0.068 0.027 -0.059 0.027 -0.062 0.03 -0.064 0.026 -0.057 0.025 -0.058 0.026 -0.055 0.023 -0.05 0.022 -0.05 0.02 -0.045 0.019 -0.042 0.015 -0.034 0.013 -0.034 1.018 0.427 -0.017 0.04 -0.021 0.047 -0.02 0.045 -0.022 0.049 -0.023 0.05 -0.024 0.053 -0.024 0.055 -0.027 0.057 -0.026 0.059 -0.026 0.057 -0.028 0.063 -0.03 0.065 -0.027 0.06 -0.027 0.061 -0.029 0.067 -0.028 0.062 -0.025 0.059 -0.027 0.063 -0.026 0.063 -0.024 0.058 -0.023 0.057 -0.022 0.056 -0.02 0.054 -0.019 0.05 -0.017 0.048 -0.016 0.046 -0.012 0.038 -0.009 0.03 -0.006 0.025 -0.005 0.02 -0.002 0.011 0 -0.006 -0.501 0.504zm0.501 -0.504l-0.038 0.464 -0.463 0.04 0.501 -0.504z"/>
  </g>
 </g>
</svg>
