<?xml version="1.0" encoding="UTF-8"?>
<!DOCTYPE svg PUBLIC "-//W3C//DTD SVG 1.1//EN" "http://www.w3.org/Graphics/SVG/1.1/DTD/svg11.dtd">
<!-- Creator: CorelDRAW 2019 (64-Bit) -->
<svg xmlns="http://www.w3.org/2000/svg" xml:space="preserve" width="112px" height="109px" version="1.1" style="shape-rendering:geometricPrecision; text-rendering:geometricPrecision; image-rendering:optimizeQuality; fill-rule:evenodd; clip-rule:evenodd"
viewBox="0 0 139.06 135.179"
 xmlns:xlink="http://www.w3.org/1999/xlink">
 <defs>
  <style type="text/css">
   <![CDATA[
    .str0 {stroke:white;stroke-width:1.462;stroke-miterlimit:22.9256}
    .fil0 {fill:white;fill-rule:nonzero}
   ]]>
  </style>
 </defs>
 <g id="Layer_x0020_1">
  <metadata id="CorelCorpID_0Corel-Layer"/>
  <path class="fil0 str0" d="M128.173 41.42c-0.922,10.991 -4.92,22.979 -12.681,33.308 -0.776,3.299 -1.991,6.828 -3.401,10.195 -0.011,0.164 -0.022,0.33 -0.033,0.495 0.526,-0.986 1.078,-1.966 1.657,-2.921 1.938,-3.196 4.174,-6.122 6.695,-8.146 -1.78,2.524 -1.942,7.942 -2.954,13.962 -0.089,0.527 -0.184,1.06 -0.288,1.595 2.582,-2.42 5.351,-4.506 8.16,-5.741 -3.248,2.706 -4.964,11.419 -9.747,18.847l-0.006 0.009c7.334,-1.263 14.667,-2.994 22.001,-2.994 -2.503,3.26 -5.007,6.723 -7.511,10.3 2.491,2.928 4.981,5.97 7.472,9.211 -6.847,0.006 -13.694,1.516 -20.542,2.744l0 0.001c-0.777,0.139 -1.554,0.275 -2.331,0.404l1.349 7.731c-30.773,5.371 -62.244,5.371 -93.016,0l1.35 -7.74 -0.091 -0.014 -0.024 -0.005 -0.077 -0.012 -0.455 -0.078 -0.008 -0.001 -0.059 -0.01 -0.482 -0.084 -0.041 -0.007 -0.499 -0.087 -0.001 0 -0.023 -0.004 -0.517 -0.092 -0.006 -0.001c-6.847,-1.228 -13.694,-2.739 -20.541,-2.745 2.49,-3.241 4.981,-6.283 7.471,-9.211 -2.503,-3.577 -5.007,-7.04 -7.51,-10.3 6.895,0 13.792,1.53 20.688,2.764 -1.492,-1.459 -2.766,-3.076 -3.878,-4.765l-0.031 -0.048 -0.062 -0.094 -0.03 -0.048 -0.031 -0.046 -0.031 -0.048c-4.782,-7.427 -6.499,-16.141 -9.746,-18.846 2.809,1.234 5.578,3.321 8.16,5.741 -0.104,-0.536 -0.199,-1.068 -0.288,-1.596 -1.012,-6.02 -1.175,-11.437 -2.954,-13.961 2.521,2.024 4.757,4.95 6.694,8.146 0.579,0.955 1.131,1.934 1.657,2.922 -0.031,-0.47 -0.06,-0.933 -0.085,-1.39 -6.773,-8.062 -11.785,-17.588 -14.541,-27.195 -4.869,-16.959 -2.712,-34.174 9.182,-44.046 10.184,-8.454 20.168,-8.081 28.895,-3.94 1.089,0.261 2.736,0.91 3.933,2.163 1.703,1.062 3.347,2.247 4.921,3.516 0.307,-0.294 0.483,-0.438 0.784,-0.317 0.16,0.064 0.432,0.64 0.703,1.555 11.172,9.618 18.53,22.879 18.53,22.879 0,0 2.083,-5.794 6.683,-11.966 -0.172,-0.682 -0.298,-1.43 -0.358,-2.272 -0.376,-5.263 4.104,-7.709 6.955,-4.836 6.004,-5.098 14.203,-8.773 24.922,-7.018 11.228,1.839 17.478,16.735 16.017,34.137z"/>
 </g>
</svg>
