<svg xmlns="http://www.w3.org/2000/svg" xmlns:xlink="http://www.w3.org/1999/xlink" width="240" height="98" viewBox="0 0 240 98">
  <defs>
    <filter id="Path_31" x="85" y="42.889" width="64" height="55.111" filterUnits="userSpaceOnUse">
      <feOffset dy="3" input="SourceAlpha"/>
      <feGaussianBlur stdDeviation="3" result="blur"/>
      <feFlood flood-opacity="0.161"/>
      <feComposite operator="in" in2="blur"/>
      <feComposite in="SourceGraphic"/>
    </filter>
    <filter id="Rectangle_130" x="0" y="0" width="240" height="63" filterUnits="userSpaceOnUse">
      <feOffset dy="5" input="SourceAlpha"/>
      <feGaussianBlur stdDeviation="3" result="blur-2"/>
      <feFlood flood-opacity="0.161"/>
      <feComposite operator="in" in2="blur-2"/>
      <feComposite in="SourceGraphic"/>
    </filter>
  </defs>
  <g id="Group_652" data-name="Group 652" transform="translate(-349 -195)">
    <g transform="matrix(1, 0, 0, 1, 349, 195)" filter="url(#Path_31)">
      <g id="Path_31-2" data-name="Path 31" transform="translate(94 39)" fill="#fff">
        <path d="M 30 45.00000381469727 L 16 45.00000381469727 C 12.26045989990234 45.00000381469727 8.744750022888184 43.54375076293945 6.100500106811523 40.89949417114258 C 3.456249952316284 38.25524139404297 2 34.73953247070313 2 31.00000190734863 L 2 16.00000190734863 C 2 15.0650053024292 2.363997459411621 13.33548927307129 2.729882717132568 11.90004539489746 L 43.37752914428711 12.18546581268311 C 43.67555618286133 13.39967918395996 44 14.97942066192627 44 16.00000190734863 L 44 31.00000190734863 C 44 34.73953247070313 42.54375076293945 38.25524139404297 39.89950180053711 40.89949417114258 C 37.2552490234375 43.54375076293945 33.73954010009766 45.00000381469727 30 45.00000381469727 Z" stroke="none"/>
        <path d="M 4.313148498535156 13.91120147705078 C 4.126041412353516 14.795654296875 4 15.57609939575195 4 16.00000381469727 L 4 31.00000190734863 C 4 34.20531463623047 5.248218536376953 37.21878051757813 7.514720916748047 39.48528289794922 C 9.781219482421875 41.75178146362305 12.79468154907227 43.00000381469727 16 43.00000381469727 L 30 43.00000381469727 C 33.2053108215332 43.00000381469727 36.21878051757813 41.75178146362305 38.48527908325195 39.48528289794922 C 40.75178146362305 37.21878051757813 42 34.20531463623047 42 31.00000190734863 L 42 16.00000381469727 C 42 15.55052947998047 41.90620040893555 14.88769912719727 41.7691535949707 14.17422103881836 L 4.313148498535156 13.91120147705078 M 1.208328247070313 9.889301300048828 L 44.91487884521484 10.19621276855469 C 44.91487884521484 10.19621276855469 46 13.8438835144043 46 16.00000381469727 L 46 31.00000190734863 C 46 39.83655166625977 38.83655166625977 47.00000381469727 30 47.00000381469727 L 16 47.00000381469727 C 7.163440704345703 47.00000381469727 0 39.83655166625977 0 31.00000190734863 L 0 16.00000381469727 C 0 13.94108200073242 1.208328247070313 9.889301300048828 1.208328247070313 9.889301300048828 Z" stroke="none" fill="#fff"/>
      </g>
    </g>
    <g transform="matrix(1, 0, 0, 1, 349, 195)" filter="url(#Rectangle_130)">
      <g id="Rectangle_130-2" data-name="Rectangle 130" transform="translate(9 4)" fill="#fff" stroke="#74ecf2" stroke-width="3" opacity="0.89">
        <rect width="222" height="45" rx="12" stroke="none"/>
        <rect x="1.5" y="1.5" width="219" height="42" rx="10.5" fill="none"/>
      </g>
    </g>
  </g>
</svg>
