<?xml version="1.0" encoding="UTF-8"?>
<!DOCTYPE svg PUBLIC "-//W3C//DTD SVG 1.1//EN" "http://www.w3.org/Graphics/SVG/1.1/DTD/svg11.dtd">
<!-- Creator: CorelDRAW 2019 (64-Bit) -->
<svg xmlns="http://www.w3.org/2000/svg" xml:space="preserve" width="3.5936mm" height="4.0574mm" version="1.1" style="shape-rendering:geometricPrecision; text-rendering:geometricPrecision; image-rendering:optimizeQuality; fill-rule:evenodd; clip-rule:evenodd"
viewBox="0 0 78.5 88.63"
 xmlns:xlink="http://www.w3.org/1999/xlink">
 <defs>
  <style type="text/css">
   <![CDATA[
    .str0 {stroke:#FEFEFE;stroke-width:4.37;stroke-miterlimit:22.9256}
    .fil0 {fill:none}
    .fil1 {fill:#FEFEFE}
   ]]>
  </style>
 </defs>
 <g id="Layer_x0020_1">
  <metadata id="CorelCorpID_0Corel-Layer"/>
  <path class="fil0 str0" d="M51.11 60.94c-0.34,0.6 -0.37,0.45 -0.88,0.98 -0.9,0.96 -1.7,2.61 -2.14,3.02 -0.38,1.4 -1.36,2.9 -1.48,5.38 -0.5,9.92 6.74,15.79 14.26,16.13l1.42 0c4.16,-0.2 8.27,-2.11 11.08,-5.99 4.55,-6.3 3.8,-14.47 -2.11,-19.97 -1.06,-0.99 -2.8,-2.03 -4.29,-2.63 -4.65,-1.86 -9.74,-1.26 -13.88,1.5 -0.86,0.57 -1.27,0.98 -1.99,1.58z"/>
  <path class="fil0 str0" d="M48.1 23.7l0.17 0.18c0.1,0.12 0.11,0.12 0.22,0.29 0.13,0.2 0.2,0.36 0.3,0.52 0.93,1.63 2.02,2.45 2.33,2.99 2.72,2.29 5.62,4.14 9.65,4.12 4.15,-0.02 7.47,-0.97 10.41,-3.58 5.89,-5.24 6.8,-13.66 2.2,-20.05 -2.81,-3.9 -7.05,-5.84 -11.32,-5.99l-1.09 0c-7.43,0.26 -14.62,5.88 -14.35,15.97 0.03,0.98 0.3,2.07 0.53,2.92 0.25,0.92 0.73,1.78 0.95,2.62z"/>
  <path class="fil0 str0" d="M36.74 44.33c0,-1.66 -0.07,-2.37 -0.37,-3.76 -0.23,-1.1 -0.66,-2.05 -0.95,-3.11 -0.55,-0.59 -0.81,-1.49 -1.27,-2.24 -0.43,-0.69 -1.16,-1.46 -1.37,-2.09 -1.13,-0.78 -1.33,-1.61 -3.61,-3.13 -1.47,-0.98 -2.64,-1.57 -4.55,-2.2 -3.92,-1.31 -8.09,-0.9 -11.56,0.41 -2.95,1.11 -5.89,3.5 -7.59,5.9 -1.87,2.65 -3.29,5.69 -3.29,10.21 0,2.31 0.27,4.1 0.93,5.8 0.67,1.71 1.36,3.07 2.36,4.39 4.48,5.96 11.69,8.53 19.19,6.35 4.98,-1.44 6.82,-4.51 8.14,-5.37 0.32,-0.74 0.9,-1.29 1.37,-2.08 0.39,-0.66 0.77,-1.64 1.26,-2.2 0.15,-0.64 0.32,-0.88 0.52,-1.45 0.16,-0.46 0.32,-1.22 0.44,-1.7 0.31,-1.21 0.36,-2.25 0.36,-3.74z"/>
  <path class="fil1" d="M32.8 55.51l13.36 8.2c0.66,0.42 1.3,0.78 1.94,1.23 0.43,-0.41 1.23,-2.06 2.14,-3.02 0.5,-0.53 0.54,-0.38 0.88,-0.98 -0.7,-0.5 -1.21,-0.78 -1.93,-1.25l-13.76 -8.46c-0.48,0.56 -0.87,1.54 -1.26,2.2 -0.47,0.79 -1.05,1.34 -1.37,2.08z"/>
  <path class="fil1" d="M32.79 33.13c0.21,0.63 0.94,1.4 1.37,2.09 0.46,0.75 0.72,1.66 1.27,2.24 0.44,-0.19 0.59,-0.35 0.96,-0.58l14.73 -9.18c-0.31,-0.55 -1.39,-1.36 -2.33,-2.99 -0.1,-0.17 -0.17,-0.33 -0.3,-0.52 -0.11,-0.17 -0.12,-0.17 -0.22,-0.29l-0.17 -0.18c-2.98,2.05 -8.03,4.92 -11.39,7.09l-3.92 2.34z"/>
 </g>
</svg>
