<?xml version="1.0" encoding="UTF-8"?>
<!DOCTYPE svg PUBLIC "-//W3C//DTD SVG 1.1//EN" "http://www.w3.org/Graphics/SVG/1.1/DTD/svg11.dtd">
<!-- Creator: CorelDRAW 2019 (64-Bit) -->
<svg xmlns="http://www.w3.org/2000/svg" xml:space="preserve" width="3.3936mm" height="3.8574mm" version="1.1" style="shape-rendering:geometricPrecision; text-rendering:geometricPrecision; image-rendering:optimizeQuality; fill-rule:evenodd; clip-rule:evenodd"
viewBox="0 0 70.87 80.55"
 xmlns:xlink="http://www.w3.org/1999/xlink">
 <defs>
  <style type="text/css">
   <![CDATA[
    .fil0 {fill:#EA556F}
    .fil1 {fill:#384949}
    .fil2 {fill:#4A696F}
   ]]>
  </style>
 </defs>
 <g id="Layer_x0020_1">
  <metadata id="CorelCorpID_0Corel-Layer"/>
  <g id="_2788954198624">
   <path class="fil0" d="M46.78 56.17c-0.33,0.57 -0.36,0.43 -0.84,0.94 -0.86,0.92 -1.63,2.49 -2.04,2.88 -0.36,1.34 -1.3,2.77 -1.42,5.14 -0.47,9.48 6.44,15.09 13.63,15.42l1.36 0c3.98,-0.19 7.91,-2.02 10.59,-5.73 4.35,-6.02 3.63,-13.83 -2.02,-19.09 -1.02,-0.95 -2.68,-1.94 -4.1,-2.51 -4.45,-1.78 -9.31,-1.21 -13.27,1.43 -0.82,0.55 -1.22,0.94 -1.9,1.51z"/>
   <path class="fil0" d="M43.89 20.57l0.16 0.18c0.09,0.12 0.1,0.12 0.21,0.28 0.13,0.19 0.19,0.34 0.28,0.5 0.89,1.56 1.93,2.34 2.22,2.86 2.6,2.19 5.38,3.95 9.23,3.94 3.97,-0.02 7.14,-0.93 9.95,-3.43 5.63,-5.01 6.5,-13.06 2.1,-19.17 -2.69,-3.73 -6.74,-5.58 -10.82,-5.73l-1.04 0c-7.1,0.25 -13.98,5.63 -13.72,15.27 0.03,0.94 0.29,1.98 0.51,2.79 0.24,0.88 0.7,1.7 0.91,2.51z"/>
   <path class="fil0" d="M33.04 40.29c0,-1.59 -0.07,-2.27 -0.35,-3.59 -0.22,-1.05 -0.63,-1.96 -0.91,-2.97 -0.53,-0.56 -0.77,-1.43 -1.22,-2.14 -0.41,-0.66 -1.11,-1.39 -1.31,-2 -1.08,-0.74 -1.28,-1.54 -3.45,-2.99 -1.41,-0.94 -2.52,-1.5 -4.35,-2.1 -3.75,-1.25 -7.73,-0.86 -11.05,0.39 -2.82,1.07 -5.63,3.34 -7.26,5.64 -1.79,2.54 -3.15,5.44 -3.15,9.76 0,2.21 0.26,3.92 0.89,5.54 0.64,1.64 1.3,2.93 2.25,4.2 4.28,5.69 11.18,8.15 18.34,6.07 4.76,-1.38 6.52,-4.31 7.78,-5.13 0.31,-0.71 0.86,-1.23 1.31,-1.99 0.37,-0.63 0.74,-1.57 1.2,-2.1 0.14,-0.61 0.31,-0.84 0.49,-1.39 0.15,-0.44 0.31,-1.17 0.42,-1.62 0.29,-1.16 0.34,-2.15 0.34,-3.58z"/>
   <path class="fil1" d="M29.27 50.97l12.77 7.84c0.63,0.4 1.24,0.74 1.86,1.18 0.42,-0.39 1.18,-1.97 2.04,-2.88 0.48,-0.51 0.51,-0.37 0.84,-0.94 -0.67,-0.47 -1.15,-0.74 -1.84,-1.19l-13.15 -8.09c-0.46,0.53 -0.83,1.48 -1.2,2.1 -0.45,0.76 -1,1.28 -1.31,1.99z"/>
   <path class="fil2" d="M29.26 29.58c0.2,0.6 0.9,1.33 1.31,2 0.44,0.72 0.69,1.58 1.22,2.14 0.42,-0.18 0.56,-0.33 0.91,-0.56l14.08 -8.78c-0.29,-0.52 -1.33,-1.3 -2.22,-2.86 -0.09,-0.16 -0.16,-0.31 -0.28,-0.5 -0.11,-0.16 -0.12,-0.16 -0.21,-0.28l-0.16 -0.18c-2.85,1.96 -7.68,4.7 -10.89,6.78l-3.75 2.23z"/>
  </g>
 </g>
</svg>
