<?xml version="1.0" encoding="UTF-8"?>
<!DOCTYPE svg PUBLIC "-//W3C//DTD SVG 1.1//EN" "http://www.w3.org/Graphics/SVG/1.1/DTD/svg11.dtd">
<!-- Creator: CorelDRAW 2019 (64-Bit) -->
<svg xmlns="http://www.w3.org/2000/svg" xml:space="preserve" width="34px" height="34px" version="1.1" style="shape-rendering:geometricPrecision; text-rendering:geometricPrecision; image-rendering:optimizeQuality; fill-rule:evenodd; clip-rule:evenodd"
viewBox="0 0 3.454 3.454"
 xmlns:xlink="http://www.w3.org/1999/xlink">
 <defs>
  <style type="text/css">
   <![CDATA[
    .fil1 {fill:white;fill-rule:nonzero}
    .fil0 {fill:url(#id0);fill-rule:nonzero}
   ]]>
  </style>
  <linearGradient id="id0" gradientUnits="userSpaceOnUse" x1="3.454" y1="0" x2="0" y2="3.454">
   <stop offset="0" style="stop-opacity:1; stop-color:#33CCFF"/>
   <stop offset="1" style="stop-opacity:1; stop-color:#337EFF"/>
  </linearGradient>
 </defs>
 <g id="Layer_x0020_1">
  <metadata id="CorelCorpID_0Corel-Layer"/>
  <g id="_2789096138864">
   <path class="fil0" d="M0 2.55l0 -1.647c0,-0.496 0.407,-0.903 0.903,-0.903l1.647 0c0.497,0 0.904,0.407 0.904,0.903l0 1.647c0,0.497 -0.407,0.904 -0.904,0.904l-1.647 0c-0.496,0 -0.903,-0.407 -0.903,-0.904z"/>
   <path class="fil1" d="M2.681 1.135c-0.06,0.027 -0.126,0.044 -0.191,0.054 0.031,-0.005 0.076,-0.06 0.094,-0.083 0.028,-0.034 0.051,-0.073 0.063,-0.115 0.002,-0.003 0.003,-0.007 0,-0.01 -0.004,-0.001 -0.007,-0.001 -0.01,0.001 -0.072,0.039 -0.147,0.067 -0.226,0.086 -0.007,0.002 -0.011,0 -0.016,-0.004 -0.006,-0.007 -0.012,-0.014 -0.019,-0.02 -0.034,-0.028 -0.069,-0.05 -0.11,-0.067 -0.053,-0.021 -0.11,-0.031 -0.167,-0.027 -0.056,0.004 -0.11,0.019 -0.16,0.045 -0.049,0.026 -0.093,0.062 -0.128,0.105 -0.036,0.045 -0.063,0.098 -0.077,0.154 -0.013,0.054 -0.012,0.107 -0.004,0.162 0.001,0.009 0.001,0.01 -0.008,0.009 -0.31,-0.046 -0.567,-0.157 -0.776,-0.395 -0.009,-0.01 -0.014,-0.01 -0.021,0.001 -0.091,0.137 -0.047,0.356 0.067,0.465 0.015,0.014 0.031,0.028 0.048,0.042 -0.006,0.001 -0.082,-0.008 -0.15,-0.042 -0.009,-0.006 -0.014,-0.003 -0.014,0.007 -0.001,0.015 0,0.029 0.002,0.045 0.018,0.139 0.114,0.267 0.245,0.317 0.016,0.007 0.033,0.012 0.05,0.015 -0.03,0.007 -0.061,0.012 -0.147,0.005 -0.01,-0.002 -0.015,0.003 -0.01,0.013 0.064,0.176 0.204,0.229 0.308,0.259 0.014,0.002 0.028,0.002 0.042,0.005 -0.001,0.002 -0.002,0.002 -0.002,0.003 -0.035,0.053 -0.155,0.092 -0.211,0.112 -0.102,0.035 -0.213,0.051 -0.32,0.041 -0.017,-0.003 -0.021,-0.003 -0.026,0 -0.004,0.003 0,0.007 0.005,0.011 0.022,0.015 0.044,0.027 0.067,0.04 0.068,0.036 0.139,0.065 0.214,0.085 0.384,0.106 0.817,0.028 1.106,-0.258 0.227,-0.226 0.306,-0.536 0.306,-0.847 0,-0.013 0.015,-0.019 0.023,-0.026 0.059,-0.044 0.107,-0.097 0.151,-0.156 0.01,-0.014 0.01,-0.025 0.01,-0.03 0,-0.001 0,-0.002 0,-0.002 0,-0.005 0,-0.003 -0.008,0z"/>
  </g>
 </g>
</svg>
