<?xml version="1.0" encoding="UTF-8"?>
<!DOCTYPE svg PUBLIC "-//W3C//DTD SVG 1.1//EN" "http://www.w3.org/Graphics/SVG/1.1/DTD/svg11.dtd">
<!-- Creator: CorelDRAW 2019 (64-Bit) -->
<svg xmlns="http://www.w3.org/2000/svg" xml:space="preserve" width="3.3866mm" height="3.3866mm" version="1.1" style="shape-rendering:geometricPrecision; text-rendering:geometricPrecision; image-rendering:optimizeQuality; fill-rule:evenodd; clip-rule:evenodd"
viewBox="0 0 263.32 263.32"
 xmlns:xlink="http://www.w3.org/1999/xlink">
 <defs>
  <style type="text/css">
   <![CDATA[
    .fil0 {fill:#FEFEFE}
   ]]>
  </style>
 </defs>
 <g id="Layer_x0020_1">
  <metadata id="CorelCorpID_0Corel-Layer"/>
  <g id="_1896041910176">
   <path class="fil0" d="M15.94 248.12l46.29 -0.23c0,-8.18 0.51,-83.27 -0.04,-87.38 -1.12,-8.41 -12.6,-6.22 -23.1,-6.22 -5.88,0 -17,-0.98 -20.17,1.44 -1.34,1.02 -2.54,2.68 -2.87,4.33 -0.63,3.29 -0.11,80.73 -0.11,88.06z"/>
   <path class="fil0" d="M247.38 247.88l-23.12 0 -23.16 0 -15.43 0 -23.15 0 -23.13 0 -15.43 0.04 -23.15 0 -23.14 0 -15.43 -0.04 -46.29 0.23c-11.08,-1.89 -15.19,1.73 -15.94,5.74l0 3c0.26,1.49 0.89,2.85 1.66,3.77 1.66,2 3.09,2.6 6.13,2.69l3.12 0c66.56,-0.54 135.25,0 202.01,0 13.22,0 26.48,-0.09 39.7,0l2.76 0c2.88,-0.06 4.28,-0.5 6.04,-2.41 0.88,-0.96 1.62,-2.33 1.9,-3.92l0 -2.87c-0.07,-0.41 -0.18,-0.84 -0.33,-1.27 -2.08,-6.13 -7.99,-4.93 -15.61,-4.97z"/>
   <path class="fil0" d="M201.09 247.88l23.16 0 0 -170.75c-3.95,0 -7.9,0.02 -11.85,0 -13.93,-0.03 -11.31,4.88 -11.31,25.21l0 145.54z"/>
   <path class="fil0" d="M224.25 247.88l23.12 0 0 -156.86c0,-9.98 0.61,-13.93 -10.8,-13.89 -4.11,0.02 -8.22,0 -12.32,0l0 170.75z"/>
   <path class="fil0" d="M162.5 247.88l23.15 0 0 -110.56c0,-16.62 -2.21,-13.89 -23.15,-13.89l0 124.45z"/>
   <path class="fil0" d="M139.37 247.88l23.13 0 0 -124.45c-3.42,0 -15.38,-0.43 -17.78,0.2 -6.52,1.71 -5.35,8.92 -5.35,13.16l0 111.09z"/>
   <path class="fil0" d="M55.43 117.26c1.1,-2.21 2.77,-3.48 4.21,-6.2 1.06,-2.01 2.16,-4.98 2.5,-7.68 0.24,-4.07 0.26,-6.23 -0.71,-9.49 -0.76,-2.57 -1.87,-5.23 -3.24,-7.05 -11.48,-15.2 -32.5,-11.45 -39.7,2.64 -10.47,20.46 11.35,41.43 30.71,31.74 5.18,-2.59 4.15,-3.34 6.22,-3.95z"/>
   <path class="fil0" d="M100.8 247.92l23.15 0 0.02 -53.53c0.1,-12.42 -10.3,-9.24 -23.16,-9.24l0 62.78z"/>
   <path class="fil0" d="M77.66 247.92l23.14 0 0 -62.78c-4.46,0 -16.86,-0.86 -19.87,1.22 -4.66,3.22 -3.27,9.98 -3.27,18.33 0,14.41 0,28.82 0,43.23z"/>
   <path class="fil0" d="M100.82 154.28c12.63,0 22.63,-10.04 23.14,-20.56 0.11,-2.22 0.23,-4.89 -0.23,-7.01 -0.44,-2.06 -1.42,-4.07 -1.85,-5.78 -1.08,-1.14 -1.99,-3.68 -4.6,-6.28 -2.8,-2.81 -5.08,-3.44 -6.28,-4.6 -1.31,-0.33 -3.16,-1.09 -4.59,-1.51 -2.25,-0.66 -2.75,-0.55 -5.6,-0.55l0 46.29z"/>
   <path class="fil0" d="M224.28 46.29c21.78,0 30.31,-25.76 16.44,-39.63 -3.81,-3.81 -8.83,-6.66 -16.44,-6.66l0 46.29z"/>
   <path class="fil0" d="M162.52 92.57c5.12,0 7.46,-0.89 10.81,-2.57l5.92 -4.36c5.62,-6.05 8.46,-15.33 5.2,-23.42 -0.79,-2.66 -1.98,-4.98 -3.63,-6.98 -0.92,-1.1 -1.5,-2.01 -2.69,-2.97 -1.26,-1.01 -1.53,-1.2 -2.63,-2.39 -4.46,-2.05 -6.34,-3.6 -12.98,-3.6l0 46.29z"/>
   <path class="fil0" d="M202.12 30.42c1.48,2.27 2.09,4.7 3.87,6.85 1.95,2.35 3.65,3.37 5.36,5.41 3.93,2 6.97,3.6 12.93,3.6l0 -46.29c-8.89,0 -14.24,3.97 -18.42,8.88 -2.03,2.39 -3.39,5.7 -4.28,9.1 -1.22,4.66 -0.33,8.46 0.54,12.45z"/>
   <path class="fil0" d="M84.7 114.17c-1.43,2.23 -2.74,3.25 -4.39,6.26 -1.48,2.7 -1.65,5.43 -2.65,7.62 0,7.37 0.6,13.26 6.03,18.66 2.44,2.43 3.59,3.78 6.98,5.36 3.1,1.45 5.78,2.22 10.15,2.22l0 -46.29c-3.98,0 -6.1,0.57 -9.07,1.75 -1.51,0.61 -2.5,1.13 -3.72,1.94 -1.53,1.01 -1.87,1.67 -3.34,2.49z"/>
   <path class="fil0" d="M141.43 79.4c1.26,1.28 2.72,5.4 7.82,8.95 1.16,0.8 2.27,1.16 3.29,2.16 3.09,1.21 5.61,2.06 9.98,2.06l0 -46.29c-8.93,0 -15.34,4.58 -19.05,9.76 -4.73,6.6 -5.4,14.79 -2.04,23.36z"/>
   <path class="fil0" d="M111.01 110.06c1.21,1.15 3.48,1.79 6.28,4.6 2.6,2.6 3.51,5.15 4.6,6.28l30.66 -30.42c-1.02,-1 -2.13,-1.36 -3.29,-2.16 -5.1,-3.55 -6.56,-7.67 -7.82,-8.95l-30.42 30.66z"/>
   <path class="fil0" d="M175.5 49.89c1.1,1.19 1.37,1.38 2.63,2.39 1.19,0.96 1.77,1.87 2.69,2.97 1.65,2 2.84,4.32 3.63,6.98 1.87,-0.42 5.21,-3.39 6.87,-4.63 2.27,-1.7 4.42,-3.32 6.76,-5.07 4.47,-3.35 8.75,-6.69 13.27,-9.84 -1.7,-2.04 -3.41,-3.06 -5.36,-5.41 -1.78,-2.15 -2.39,-4.58 -3.87,-6.85 -1.86,0.35 -23.96,17.33 -26.61,19.46z"/>
   <path class="fil0" d="M55.43 117.26l22.23 10.79c1,-2.19 1.17,-4.92 2.65,-7.62 1.64,-3.01 2.95,-4.03 4.39,-6.26l-22.55 -10.8c-0.34,2.71 -1.45,5.68 -2.5,7.68 -1.45,2.72 -3.12,4 -4.21,6.2z"/>
  </g>
 </g>
</svg>
