<?xml version="1.0" encoding="UTF-8"?>
<!DOCTYPE svg PUBLIC "-//W3C//DTD SVG 1.1//EN" "http://www.w3.org/Graphics/SVG/1.1/DTD/svg11.dtd">
<!-- Creator: CorelDRAW 2019 (64-Bit) -->
<svg xmlns="http://www.w3.org/2000/svg" xml:space="preserve" width="3.4714mm" height="3.4714mm" version="1.1" style="shape-rendering:geometricPrecision; text-rendering:geometricPrecision; image-rendering:optimizeQuality; fill-rule:evenodd; clip-rule:evenodd"
viewBox="0 0 1623.2 1623.2"
 xmlns:xlink="http://www.w3.org/1999/xlink">
 <defs>
  <style type="text/css">
   <![CDATA[
    .str0 {stroke:#FEFEFE;stroke-width:39.61;stroke-miterlimit:22.9256}
    .fil0 {fill:none}
    .fil4 {fill:#FEFEFE}
    .fil2 {fill:#FEFEFE}
    .fil3 {fill:#FAFAFA}
    .fil1 {fill:white}
   ]]>
  </style>
 </defs>
 <g id="Layer_x0020_1">
  <metadata id="CorelCorpID_0Corel-Layer"/>
  <path class="fil0 str0" d="M19.83 783.78c0,146.03 17.25,242.54 72.15,360.84 80.47,173.62 214.39,303.93 384.5,385.62 92.07,44.19 191.01,68.13 290.65,73.13l79.3 0c194,-9.63 384.5,-89.92 525.76,-231.18 66.02,-66.02 113.77,-135.6 157.02,-223.42 44.65,-90.62 68.88,-188.86 74.16,-288.22l0 -84.12c-10.19,-193.91 -90.81,-385.06 -231.18,-525.43 -136.21,-136.26 -336.62,-231.18 -538.95,-231.18 -139.72,0 -244.32,19.12 -356.77,73.13 -175.39,84.21 -297.06,208.08 -382.49,381.46 -36.1,73.27 -74.16,200.36 -74.16,309.36z"/>
  <g>
   <path class="fil1" d="M372.9 963.85l0.98 1.36 0.61 0.89 0 0.05 2.2 3.88 0.33 0.56 0 0 10.47 17.77c2.67,3.27 5.66,6.36 9.07,8.88 3.51,2.62 7.57,4.86 12.39,6.64 14.17,5.24 39.7,4.63 60.09,4.21l14.68 -0.23c20.43,0 41.1,-0.33 61.72,-0.56 30.07,-0.33 60.27,-0.7 89.87,-0.33l19.12 -0.09c19.87,-0.37 23.1,-0.42 38.9,15.76 9.54,9.77 18.28,18.42 27.31,27.4l11.36 11.27 4.49 4.54c16.27,16.46 67.05,67.8 75.1,72.01 10.89,-5.61 43.16,-39.04 63.83,-60.55l14.12 -14.54c12.06,-12.06 21.23,-21.7 28.29,-29.08 11.97,-12.53 18.42,-19.31 24.41,-22.77l0.05 0c6.78,-3.88 13.19,-3.74 26.7,-3.46l15.8 0.23 23.15 0.14c57.14,0.37 187.32,1.31 203.78,-3.41 18.7,-5.33 25.53,-17.11 33.43,-30.81l5.42 -9.12 -0.09 -227.11c0,-33.48 0.56,-62.47 0.94,-87.49 1.31,-78.42 2.01,-118.72 -15.38,-139.06 -18.19,-21.37 -56.49,-20.9 -134.71,-20.06 -18,0.19 -38.25,0.47 -60.83,0.47l-572.19 0c-85.15,0 -97.4,16.69 -97.4,98.43 0,14.12 0.37,30.21 0.75,48.35 0.28,13.28 0.56,27.77 0.79,43.53 -2.34,-162.16 -14.82,-190.4 95.86,-190.36l572.19 0c243.47,0 210.04,-27.59 210.04,246.19l0.09 227.16c-11.04,17.58 -16.09,33.39 -38.9,39.93 -19.59,5.66 -199.1,3.27 -226.92,3.27 -2.15,0 -4.21,0 -6.13,-0.05l-2.29 -0.05c-41.52,-0.7 -27.07,-4.58 -86.78,55.18 -15.15,15.15 -63.83,67.8 -77.99,75.1 -9.26,-4.86 -72.8,-69.72 -79.63,-76.54 -13.65,-13.61 -25.2,-24.88 -38.67,-38.67 -16.83,-17.21 -19.26,-16.09 -42.69,-15.71l-12.58 0.09c-0.89,0 -1.78,-0.05 -2.71,-0.05 -49.94,-0.75 -101.33,0.89 -151.59,0.89 -21.04,0 -56.86,2.67 -74.77,-3.97 -9.87,-3.65 -16.09,-8.84 -21.51,-15.52l-10.47 -17.77c-3.46,-6.22 -2.2,-3.97 -4.11,-6.73 3.93,-70.65 -0.65,-154.02 -0.19,-226.55 0.09,-15.94 0.05,-30.86 -0.09,-44.84 0.14,14.03 0.23,28.94 0.14,44.84 -0.14,26.75 0.37,55.13 0.89,83.65 0.84,48.72 1.73,98.33 -0.7,142.85zm-0.47 -280.37c0.05,1.73 0.05,3.51 0.09,5.24 -0.05,-1.73 -0.05,-3.51 -0.09,-5.24z"/>
  </g>
  <path class="fil2" d="M1250.62 961.7c-11.04,17.58 -16.09,33.39 -38.9,39.93 -19.59,5.66 -199.1,3.27 -226.92,3.27 -52.04,-0.05 -31.8,-8.37 -95.2,55.08 -15.15,15.15 -63.83,67.8 -77.99,75.1 -9.26,-4.86 -72.8,-69.72 -79.63,-76.54 -13.65,-13.61 -25.2,-24.88 -38.67,-38.67 -19.92,-20.39 -19.69,-15.06 -57.98,-15.66 -49.94,-0.75 -101.33,0.89 -151.59,0.89 -21.04,0 -56.86,2.67 -74.77,-3.97 -9.87,-3.65 -16.09,-8.84 -21.51,-15.52l-10.47 -17.77c-3.46,-6.22 -2.2,-3.97 -4.11,-6.73 -3.27,57.7 -3.09,107.64 58.17,110.59 27.92,1.36 237.77,-4.58 251.05,2.76 7.62,4.26 115.12,118.07 129.52,127.37 26.65,-17.21 99.74,-102.82 126.06,-124.66 14.4,-12.02 58.54,-5.42 81.17,-5.42 55.83,0 114.84,1.59 170.25,0.05 62.94,-1.78 65.51,-50.83 61.54,-110.07z"/>
  <g>
   <path class="fil3" d="M558.87 752.87c13.56,19.87 -4.21,1.54 25.72,38.34 10.47,12.91 18.38,20.25 29.97,31.84 120.59,120.55 121.43,134.06 211.87,43.58l184.04 -184c32.5,-32.5 36.38,-30.44 54.19,-68.27 1.17,-45.03 -29.79,-85.24 -78.74,-70.93 -28.34,8.28 -136.4,124.66 -163.7,151.97 -26.14,26.19 -54.29,51.81 -78.65,79.21 -10.1,-5.7 -34.74,-32.73 -44.42,-42.32 -13.75,-13.75 -29.83,-31.75 -46.99,-42.6 -46.85,-29.65 -96.04,9.35 -93.28,63.17z"/>
   <g>
    <path class="fil4" d="M558.91 752.73c0.42,54.75 6.03,60.09 28.34,81.36l11.22 10.94 98.99 98.85c34.46,38.02 71.07,16.93 97.4,-6.97 8.23,-7.43 15.62,-15.34 21.51,-21.65l7.67 -8.04 199.47 -199.52 11.6 -11.22c21.79,-20.57 29.97,-28.48 29.51,-82.25 -13.93,29.46 -19.36,34.74 -36.61,51.15 -4.72,4.49 -10.52,10.01 -17.49,16.97l-184.04 184c-84.54,84.59 -90.9,78.27 -189.84,-21.37l-22.12 -22.21 -5.42 -5.42c-8.79,-8.7 -15.85,-15.66 -24.55,-26.42 -18.19,-22.35 -18.75,-24.41 -19.45,-27.03 -0.42,-1.59 -1.03,-3.55 -6.17,-11.18zm-0.05 -0.19c0.56,63.27 7.72,60.69 39.56,92.54l98.99 98.85c50.69,55.88 105.54,-15.57 126.67,-36.66l199.47 -199.52c30.63,-30.63 41.71,-30.95 41.1,-93.71 -17.82,37.83 -21.7,35.77 -54.19,68.27l-184.04 184c-90.43,90.48 -91.27,76.97 -211.87,-43.58 -11.6,-11.6 -19.5,-18.94 -29.97,-31.84 -29.93,-36.8 -12.16,-18.47 -25.72,-38.34z"/>
   </g>
  </g>
 </g>
</svg>
