<?xml version="1.0" encoding="UTF-8"?>
<!DOCTYPE svg PUBLIC "-//W3C//DTD SVG 1.1//EN" "http://www.w3.org/Graphics/SVG/1.1/DTD/svg11.dtd">
<!-- Creator: CorelDRAW 2019 (64-Bit) -->
<svg xmlns="http://www.w3.org/2000/svg" xml:space="preserve" width="3.3866mm" height="3.3866mm" version="1.1" style="shape-rendering:geometricPrecision; text-rendering:geometricPrecision; image-rendering:optimizeQuality; fill-rule:evenodd; clip-rule:evenodd"
viewBox="0 0 1744.08 1744.08"
 xmlns:xlink="http://www.w3.org/1999/xlink">
 <defs>
  <style type="text/css">
   <![CDATA[
    .fil0 {fill:#3E2D79}
    .fil2 {fill:#A62A72}
    .fil4 {fill:#CFD1D1}
    .fil1 {fill:#EC599B}
    .fil3 {fill:#FAFAFA}
   ]]>
  </style>
 </defs>
 <g id="Layer_x0020_1">
  <metadata id="CorelCorpID_0Corel-Layer"/>
  <g id="_1895086107728">
   <path class="fil0" d="M-0 841.4c0,160.83 19,267.13 79.46,397.42 88.63,191.22 236.12,334.75 423.48,424.72 101.4,48.67 210.38,75.03 320.12,80.55l87.34 0c213.67,-10.61 423.48,-99.03 579.06,-254.61 72.72,-72.72 125.3,-149.35 172.93,-246.06 49.18,-99.81 75.86,-208.01 81.68,-317.44l0 -92.65c-11.23,-213.57 -100.01,-424.1 -254.61,-578.7 -150.02,-150.07 -370.74,-254.61 -593.58,-254.61 -153.88,0 -269.08,21.06 -392.94,80.55 -193.17,92.75 -327.18,229.17 -421.27,420.13 -39.76,80.7 -81.68,220.67 -81.68,340.72z"/>
   <path class="fil1" d="M388.82 1039.77c2.11,3.04 0.72,0.57 4.53,7.42l11.54 19.57c5.97,7.36 12.82,13.08 23.69,17.1 19.72,7.31 59.17,4.38 82.35,4.38 55.36,0 111.96,-1.8 166.96,-0.98 42.18,0.67 41.92,-5.2 63.86,17.25 14.83,15.19 27.55,27.6 42.59,42.59 7.52,7.52 77.51,78.95 87.7,84.3 15.6,-8.03 69.22,-66.02 85.9,-82.71 69.83,-69.88 47.53,-60.72 104.85,-60.67 30.64,0 228.35,2.63 249.93,-3.6 25.13,-7.21 30.69,-24.62 42.85,-43.98l-0.1 -250.18c0,-301.53 36.82,-271.14 -231.34,-271.14l-630.2 0c-134.77,-0.05 -103.72,37.96 -105.32,271.14 -0.51,79.88 4.53,171.7 0.21,249.51z"/>
   <path class="fil2" d="M1355.57 1040.44c-12.15,19.36 -17.72,36.77 -42.85,43.98 -21.58,6.23 -219.28,3.6 -249.93,3.6 -57.32,-0.05 -35.02,-9.22 -104.85,60.67 -16.69,16.69 -70.3,74.67 -85.9,82.71 -10.2,-5.36 -80.18,-76.79 -87.7,-84.3 -15.04,-14.99 -27.76,-27.4 -42.59,-42.59 -21.94,-22.45 -21.68,-16.58 -63.86,-17.25 -55,-0.82 -111.6,0.98 -166.96,0.98 -23.17,0 -62.62,2.94 -82.35,-4.38 -10.87,-4.02 -17.72,-9.73 -23.69,-17.1l-11.54 -19.57c-3.81,-6.85 -2.42,-4.38 -4.53,-7.42 -3.6,63.55 -3.4,118.55 64.07,121.8 30.75,1.49 261.87,-5.05 276.5,3.04 8.39,4.69 126.79,130.04 142.65,140.28 29.35,-18.95 109.85,-113.25 138.84,-137.3 15.86,-13.24 64.48,-5.97 89.4,-5.97 61.49,0 126.48,1.75 187.51,0.05 69.32,-1.96 72.15,-55.98 67.77,-121.23z"/>
   <g>
    <path class="fil3" d="M593.68 807.36c14.93,21.89 -4.63,1.7 28.32,42.23 11.54,14.21 20.24,22.3 33.01,35.07 132.82,132.77 133.74,147.65 233.34,48l202.7 -202.65c35.79,-35.79 40.07,-33.53 59.69,-75.19 1.29,-49.59 -32.81,-93.88 -86.72,-78.12 -31.21,9.12 -150.22,137.3 -180.3,167.37 -28.79,28.84 -59.79,57.06 -86.62,87.24 -11.12,-6.28 -38.26,-36.05 -48.92,-46.61 -15.14,-15.14 -32.86,-34.97 -51.76,-46.92 -51.6,-32.65 -105.78,10.3 -102.74,69.58z"/>
    <path class="fil4" d="M593.68 807.36c0.62,69.68 8.5,66.85 43.57,101.92l109.02 108.87c55.83,61.54 116.23,-17.15 139.51,-40.38l219.7 -219.75c33.73,-33.73 45.94,-34.09 45.27,-103.2 -19.62,41.66 -23.9,39.4 -59.69,75.19l-202.7 202.65c-99.6,99.65 -100.53,84.77 -233.34,-48 -12.77,-12.77 -21.48,-20.86 -33.01,-35.07 -32.96,-40.53 -13.39,-20.34 -28.32,-42.23z"/>
   </g>
  </g>
 </g>
</svg>
