<svg xmlns="http://www.w3.org/2000/svg" xmlns:xlink="http://www.w3.org/1999/xlink" width="77" height="49" viewBox="0 0 77 49">
  <defs>
    <filter id="Rectangle_61" x="0" y="0" width="77" height="49" filterUnits="userSpaceOnUse">
      <feOffset dy="3" input="SourceAlpha"/>
      <feGaussianBlur stdDeviation="3" result="blur"/>
      <feFlood flood-opacity="0.161"/>
      <feComposite operator="in" in2="blur"/>
      <feComposite in="SourceGraphic"/>
    </filter>
  </defs>
  <g id="Group_649" data-name="Group 649" transform="translate(-124 -253)">
    <g transform="matrix(1, 0, 0, 1, 124, 253)" filter="url(#Rectangle_61)">
      <path id="Rectangle_61-2" data-name="Rectangle 61" d="M0,0H59a0,0,0,0,1,0,0V31a0,0,0,0,1,0,0H6a6,6,0,0,1-6-6V0A0,0,0,0,1,0,0Z" transform="translate(9 6)" fill="#19399f"/>
    </g>
    <path id="Polygon_8" data-name="Polygon 8" d="M5.768,3A2,2,0,0,1,9.232,3l4.037,7a2,2,0,0,1-1.732,3H3.463A2,2,0,0,1,1.73,10Z" transform="translate(200 267) rotate(90)" fill="#19399f"/>
  </g>
</svg>
