<?xml version="1.0" encoding="UTF-8"?>
<!DOCTYPE svg PUBLIC "-//W3C//DTD SVG 1.1//EN" "http://www.w3.org/Graphics/SVG/1.1/DTD/svg11.dtd">
<!-- Creator: CorelDRAW 2019 (64-Bit) -->
<svg xmlns="http://www.w3.org/2000/svg" xml:space="preserve" width="12px" height="19px" version="1.1" style="shape-rendering:geometricPrecision; text-rendering:geometricPrecision; image-rendering:optimizeQuality; fill-rule:evenodd; clip-rule:evenodd"
viewBox="0 0 1.291 2.128"
 xmlns:xlink="http://www.w3.org/1999/xlink">
 <defs>
  <style type="text/css">
   <![CDATA[
    .fil1 {fill:#25898F}
    .fil0 {fill:#25898F;fill-rule:nonzero}
   ]]>
  </style>
 </defs>
 <g id="Layer_x0020_1">
  <metadata id="CorelCorpID_0Corel-Layer"/>
  <g id="_2789096760736">
   <g>
    <path class="fil0" d="M0.214 0.821l-0.059 0.059 0 0 -0.004 -0.004 -0.005 -0.005 -0.005 -0.004 -0.005 -0.005 -0.005 -0.005 -0.006 -0.005 -0.006 -0.005 -0.006 -0.006 -0.006 -0.006 -0.006 -0.006 -0.006 -0.006 -0.006 -0.006 -0.007 -0.006 -0.006 -0.007 -0.006 -0.007 -0.006 -0.006 -0.006 -0.008 -0.006 -0.007 -0.006 -0.007 -0.006 -0.008 -0.005 -0.008 -0.005 -0.008 -0.005 -0.008 -0.005 -0.009 -0.004 -0.009 -0.004 -0.008 -0.003 -0.01 -0.003 -0.009 -0.003 -0.01 -0.001 -0.01 -0.002 -0.011 0 -0.01 0.084 0 0 0.004 0 0.005 0.001 0.005 0.001 0.005 0.002 0.004 0.002 0.006 0.002 0.005 0.002 0.005 0.003 0.006 0.004 0.005 0.003 0.006 0.004 0.006 0.004 0.005 0.005 0.006 0.005 0.006 0.005 0.005 0.005 0.006 0.005 0.006 0.005 0.005 0.006 0.006 0.005 0.006 0.006 0.005 0.006 0.006 0.006 0.005 0.005 0.005 0.006 0.006 0.006 0.005 0.005 0.005 0.006 0.005 0.005 0.005 0.005 0.005 0.005 0.005 0 0zm0.139 0.247l-0.002 -0.084 -0.034 0.065 -0.004 -0.006 -0.004 -0.005 -0.004 -0.006 -0.004 -0.005 -0.004 -0.005 -0.004 -0.005 -0.005 -0.006 -0.004 -0.005 -0.005 -0.005 -0.005 -0.005 -0.004 -0.005 -0.005 -0.006 -0.005 -0.005 -0.005 -0.005 -0.006 -0.005 -0.005 -0.005 -0.005 -0.005 -0.005 -0.005 -0.006 -0.005 -0.005 -0.005 -0.006 -0.006 -0.005 -0.005 -0.006 -0.005 -0.005 -0.005 -0.006 -0.005 -0.006 -0.006 -0.005 -0.005 -0.006 -0.006 -0.006 -0.005 -0.005 -0.006 -0.006 -0.005 -0.006 -0.006 0.059 -0.059 0.005 0.005 0.006 0.005 0.005 0.006 0.006 0.005 0.005 0.005 0.006 0.005 0.005 0.006 0.006 0.005 0.005 0.005 0.006 0.005 0.006 0.006 0.005 0.005 0.006 0.005 0.005 0.005 0.006 0.006 0.006 0.005 0.005 0.006 0.006 0.005 0.005 0.006 0.006 0.006 0.005 0.005 0.006 0.006 0.005 0.006 0.005 0.006 0.006 0.006 0.005 0.006 0.005 0.006 0.005 0.007 0.005 0.006 0.005 0.007 0.005 0.007 0.004 0.007 -0.033 0.065zm0.033 -0.065l0.043 0.063 -0.076 0.002 0.033 -0.065zm-0.238 0.424l-0.082 -0.02 0 0 0.006 -0.022 0.005 -0.023 0.005 -0.021 0.005 -0.021 0.005 -0.021 0.005 -0.02 0.004 -0.019 0.005 -0.019 0.005 -0.018 0.005 -0.017 0.005 -0.018 0.005 -0.016 0.005 -0.016 0.006 -0.015 0.006 -0.015 0.006 -0.014 0.007 -0.014 0.008 -0.013 0.008 -0.013 0.01 -0.012 0.009 -0.012 0.011 -0.01 0.011 -0.01 0.013 -0.009 0.013 -0.008 0.014 -0.007 0.014 -0.006 0.016 -0.005 0.016 -0.004 0.016 -0.002 0.018 -0.002 0.018 -0.001 0.002 0.084 -0.014 0 -0.012 0.002 -0.012 0.001 -0.01 0.003 -0.01 0.003 -0.008 0.003 -0.008 0.004 -0.007 0.004 -0.007 0.005 -0.006 0.006 -0.006 0.006 -0.006 0.007 -0.006 0.007 -0.006 0.009 -0.005 0.009 -0.005 0.011 -0.005 0.011 -0.005 0.012 -0.005 0.013 -0.005 0.014 -0.004 0.015 -0.005 0.015 -0.004 0.017 -0.005 0.017 -0.004 0.018 -0.005 0.019 -0.005 0.019 -0.004 0.021 -0.005 0.021 -0.005 0.021 -0.006 0.023 -0.005 0.023 0 0zm0.163 0.454l-0.058 0.06 0 0 -0.026 -0.025 -0.025 -0.024 -0.022 -0.022 -0.021 -0.021 -0.019 -0.02 -0.018 -0.018 -0.016 -0.017 -0.014 -0.017 -0.013 -0.015 -0.012 -0.015 -0.01 -0.015 -0.01 -0.014 -0.008 -0.014 -0.007 -0.014 -0.005 -0.014 -0.005 -0.014 -0.003 -0.015 -0.001 -0.014 -0.001 -0.014 0 -0.014 0.002 -0.014 0.002 -0.014 0.003 -0.014 0.003 -0.014 0.004 -0.015 0.005 -0.015 0.004 -0.016 0.005 -0.017 0.005 -0.018 0.006 -0.019 0.005 -0.02 0.005 -0.022 0.082 0.02 -0.006 0.023 -0.006 0.021 -0.005 0.02 -0.006 0.018 -0.005 0.017 -0.004 0.016 -0.004 0.014 -0.004 0.013 -0.002 0.012 -0.003 0.011 -0.001 0.01 -0.001 0.009 0 0.008 0 0.007 0.001 0.008 0.001 0.007 0.003 0.007 0.003 0.008 0.004 0.009 0.006 0.01 0.006 0.01 0.009 0.012 0.01 0.012 0.011 0.014 0.013 0.015 0.015 0.016 0.017 0.017 0.018 0.019 0.021 0.02 0.022 0.022 0.024 0.024 0.026 0.025 0 0zm0.348 0.163l0 0.084 -0.003 0 -0.014 -0.001 -0.013 -0.002 -0.013 -0.001 -0.013 -0.002 -0.013 -0.003 -0.014 -0.002 -0.013 -0.003 -0.013 -0.003 -0.013 -0.004 -0.013 -0.004 -0.013 -0.004 -0.013 -0.004 -0.013 -0.005 -0.013 -0.005 -0.013 -0.005 -0.013 -0.006 -0.012 -0.006 -0.013 -0.006 -0.013 -0.007 -0.012 -0.007 -0.013 -0.007 -0.012 -0.007 -0.012 -0.008 -0.012 -0.008 -0.012 -0.009 -0.012 -0.009 -0.012 -0.009 -0.012 -0.009 -0.012 -0.01 -0.011 -0.01 -0.012 -0.01 -0.011 -0.011 0.058 -0.06 0.01 0.01 0.01 0.009 0.01 0.009 0.011 0.008 0.01 0.009 0.011 0.008 0.01 0.007 0.011 0.008 0.01 0.007 0.011 0.007 0.011 0.006 0.011 0.007 0.011 0.006 0.011 0.005 0.011 0.006 0.011 0.005 0.011 0.005 0.011 0.004 0.011 0.005 0.012 0.004 0.011 0.004 0.011 0.003 0.012 0.004 0.011 0.003 0.011 0.002 0.012 0.003 0.011 0.002 0.011 0.002 0.012 0.002 0.011 0.001 0.011 0.002 0.012 0.001 -0.003 -0.001zm0 0.084l-0.002 0 -0.001 0 0.003 0zm0.084 0l-0.084 0 0 -0.084 0.084 0 0.003 0.084 -0.003 0zm0.003 0l-0.002 0 -0.001 0 0.003 0zm0.461 -0.629l0.084 0 0 0 -0.001 0.034 -0.002 0.034 -0.004 0.032 -0.005 0.032 -0.006 0.031 -0.007 0.031 -0.009 0.029 -0.01 0.028 -0.011 0.028 -0.013 0.027 -0.013 0.026 -0.015 0.024 -0.015 0.024 -0.017 0.023 -0.017 0.022 -0.019 0.021 -0.019 0.02 -0.02 0.018 -0.021 0.018 -0.021 0.017 -0.023 0.015 -0.022 0.014 -0.024 0.014 -0.024 0.012 -0.024 0.011 -0.025 0.01 -0.026 0.008 -0.026 0.008 -0.026 0.006 -0.026 0.005 -0.027 0.004 -0.027 0.003 -0.007 -0.083 0.024 -0.003 0.023 -0.003 0.022 -0.004 0.023 -0.006 0.022 -0.006 0.022 -0.008 0.021 -0.008 0.021 -0.01 0.021 -0.01 0.02 -0.011 0.019 -0.013 0.019 -0.013 0.019 -0.014 0.018 -0.015 0.017 -0.016 0.016 -0.017 0.016 -0.018 0.015 -0.018 0.014 -0.02 0.013 -0.021 0.013 -0.021 0.011 -0.022 0.011 -0.023 0.01 -0.024 0.008 -0.025 0.008 -0.026 0.007 -0.026 0.005 -0.027 0.005 -0.029 0.003 -0.029 0.002 -0.029 0 -0.031 0 0zm0.084 -0.751l0 0.751 -0.084 0 0 -0.751 0 0 0.084 0zm-0.293 0.082l-0.068 -0.048 0 0 0.009 -0.013 0.01 -0.012 0.011 -0.012 0.011 -0.011 0.012 -0.011 0.012 -0.01 0.013 -0.009 0.012 -0.009 0.013 -0.008 0.014 -0.008 0.013 -0.007 0.014 -0.006 0.013 -0.006 0.014 -0.005 0.013 -0.004 0.014 -0.004 0.014 -0.002 0.013 -0.002 0.014 -0.002 0.013 0 0.013 0.001 0.013 0.002 0.013 0.004 0.013 0.005 0.012 0.007 0.011 0.008 0.011 0.011 0.008 0.012 0.007 0.013 0.004 0.014 0.003 0.015 0.001 0.015 -0.084 0 0 -0.005 -0.001 -0.005 -0.001 -0.003 -0.001 -0.002 -0.001 -0.001 -0.001 -0.001 -0.001 -0.001 -0.003 -0.001 -0.003 -0.002 -0.004 -0.001 -0.005 -0.001 -0.007 0 -0.007 0 -0.007 0.001 -0.009 0.001 -0.009 0.002 -0.009 0.002 -0.01 0.003 -0.01 0.004 -0.01 0.004 -0.011 0.005 -0.01 0.005 -0.01 0.006 -0.011 0.007 -0.009 0.006 -0.01 0.008 -0.009 0.008 -0.009 0.008 -0.009 0.008 -0.008 0.009 -0.007 0.009 -0.007 0.009 0 0zm-0.115 0.279l0.047 -0.069 -0.065 0.035 0 -0.013 0 -0.012 0 -0.011 0 -0.012 0 -0.01 0 -0.011 0 -0.01 0 -0.01 0 -0.009 0.001 -0.01 0 -0.009 0.001 -0.009 0.001 -0.009 0.001 -0.008 0.001 -0.009 0.001 -0.009 0.002 -0.008 0.002 -0.008 0.002 -0.009 0.002 -0.008 0.003 -0.008 0.003 -0.008 0.003 -0.008 0.003 -0.008 0.004 -0.009 0.004 -0.008 0.004 -0.008 0.005 -0.008 0.005 -0.008 0.005 -0.009 0.006 -0.008 0.006 -0.009 0.068 0.048 -0.005 0.007 -0.004 0.007 -0.005 0.007 -0.004 0.007 -0.003 0.006 -0.004 0.007 -0.003 0.006 -0.002 0.005 -0.003 0.006 -0.002 0.006 -0.002 0.006 -0.002 0.005 -0.001 0.006 -0.002 0.006 -0.001 0.006 -0.001 0.006 -0.001 0.006 -0.001 0.007 -0.001 0.007 -0.001 0.007 0 0.007 -0.001 0.008 0 0.009 0 0.008 -0.001 0.01 0 0.009 0 0.01 0 0.011 0 0.011 0 0.011 0 0.012 0 0.013 -0.065 0.034zm0.065 -0.034l0 0.078 -0.065 -0.044 0.065 -0.034zm-0.393 -0.285l0.059 -0.059 0 0 0.008 0.008 0.008 0.009 0.009 0.009 0.009 0.009 0.01 0.01 0.009 0.01 0.01 0.011 0.011 0.01 0.01 0.011 0.011 0.012 0.011 0.011 0.011 0.011 0.011 0.012 0.011 0.012 0.011 0.011 0.011 0.012 0.012 0.011 0.011 0.011 0.011 0.011 0.011 0.011 0.011 0.011 0.01 0.01 0.011 0.01 0.01 0.01 0.01 0.009 0.009 0.008 0.01 0.009 0.009 0.007 0.008 0.007 0.008 0.006 0.007 0.005 0.007 0.005 -0.047 0.069 -0.009 -0.006 -0.009 -0.007 -0.009 -0.007 -0.01 -0.008 -0.01 -0.008 -0.01 -0.009 -0.01 -0.009 -0.011 -0.01 -0.011 -0.01 -0.011 -0.011 -0.011 -0.01 -0.011 -0.011 -0.011 -0.011 -0.012 -0.012 -0.011 -0.011 -0.011 -0.012 -0.012 -0.012 -0.011 -0.011 -0.011 -0.012 -0.012 -0.012 -0.011 -0.011 -0.011 -0.012 -0.01 -0.011 -0.011 -0.011 -0.01 -0.011 -0.01 -0.01 -0.01 -0.01 -0.009 -0.01 -0.009 -0.009 -0.009 -0.009 -0.008 -0.008 -0.007 -0.008 0 0zm-0.43 -0.237l-0.06 -0.058 0 0 0.019 -0.017 0.019 -0.015 0.021 -0.012 0.021 -0.009 0.021 -0.006 0.022 -0.003 0.021 -0.001 0.022 0.001 0.021 0.004 0.02 0.006 0.02 0.007 0.02 0.009 0.019 0.01 0.018 0.011 0.019 0.012 0.017 0.013 0.018 0.014 0.017 0.014 0.017 0.015 0.016 0.015 0.017 0.016 0.015 0.015 0.015 0.016 0.015 0.015 0.015 0.016 0.013 0.015 0.014 0.014 0.012 0.014 0.012 0.013 0.012 0.013 0.011 0.011 0.01 0.01 -0.059 0.059 -0.011 -0.011 -0.012 -0.012 -0.012 -0.013 -0.012 -0.013 -0.013 -0.014 -0.013 -0.015 -0.014 -0.014 -0.014 -0.015 -0.014 -0.015 -0.014 -0.015 -0.015 -0.015 -0.015 -0.014 -0.015 -0.014 -0.015 -0.014 -0.016 -0.012 -0.015 -0.012 -0.015 -0.011 -0.015 -0.01 -0.015 -0.009 -0.015 -0.008 -0.015 -0.007 -0.013 -0.005 -0.014 -0.004 -0.013 -0.002 -0.012 -0.001 -0.012 0.001 -0.012 0.002 -0.011 0.003 -0.012 0.005 -0.012 0.007 -0.012 0.009 -0.012 0.011 0 0zm-0.041 0.098l-0.084 0 0 0 0 -0.006 0.001 -0.006 0 -0.004 0.001 -0.005 0.001 -0.006 0.001 -0.005 0.002 -0.005 0.001 -0.005 0.002 -0.005 0.001 -0.006 0.002 -0.005 0.002 -0.005 0.002 -0.005 0.002 -0.006 0.002 -0.005 0.002 -0.005 0.002 -0.005 0.003 -0.005 0.002 -0.006 0.003 -0.005 0.002 -0.004 0.002 -0.005 0.003 -0.005 0.003 -0.004 0.002 -0.005 0.003 -0.005 0.003 -0.003 0.002 -0.004 0.003 -0.005 0.003 -0.004 0.004 -0.003 0.003 -0.004 0.06 0.058 -0.001 0.001 -0.001 0.001 -0.001 0.001 -0.001 0.002 -0.002 0.003 -0.001 0.002 -0.002 0.003 -0.002 0.003 -0.002 0.004 -0.002 0.003 -0.002 0.004 -0.002 0.004 -0.002 0.004 -0.001 0.003 -0.002 0.005 -0.002 0.004 -0.002 0.004 -0.002 0.004 -0.001 0.004 -0.002 0.004 -0.001 0.004 -0.001 0.004 -0.002 0.004 -0.001 0.004 -0.001 0.003 0 0.004 -0.001 0.003 -0.001 0.002 0 0.002 0 0.003 0 0.001 0 0.001 0 0z"/>
   </g>
   <path class="fil1" d="M0.482 0.243c0.037,0.054 0.22,0.245 0.278,0.261l0.035 -0.047c-0.023,-0.077 -0.094,-0.107 -0.133,-0.165l0.408 0 0 -0.082 -0.408 0c0.039,-0.058 0.11,-0.088 0.13,-0.163l-0.035 -0.047c-0.09,0.023 -0.19,0.186 -0.275,0.243z"/>
  </g>
 </g>
</svg>
