<?xml version="1.0" encoding="UTF-8"?>
<!DOCTYPE svg PUBLIC "-//W3C//DTD SVG 1.1//EN" "http://www.w3.org/Graphics/SVG/1.1/DTD/svg11.dtd">
<!-- Creator: CorelDRAW 2019 (64-Bit) -->
<svg xmlns="http://www.w3.org/2000/svg" xml:space="preserve" width="19px" height="19px" version="1.1" style="shape-rendering:geometricPrecision; text-rendering:geometricPrecision; image-rendering:optimizeQuality; fill-rule:evenodd; clip-rule:evenodd"
viewBox="0 0 18.08 18.07"
 xmlns:xlink="http://www.w3.org/1999/xlink">
 <defs>
  <style type="text/css">
   <![CDATA[
    .fil1 {fill:#FEFEFE}
    .fil0 {fill:#898989}
    .fil2 {fill:#898989;fill-rule:nonzero}
   ]]>
  </style>
 </defs>
 <g id="Layer_x0020_1">
  <metadata id="CorelCorpID_0Corel-Layer"/>
  <g id="_2789377249456">
   <g>
    <path class="fil0" d="M1.06 9.03c0.67,0.88 1.45,1.6 2.31,2.18 1.68,1.12 3.68,1.69 5.67,1.69 1.99,0 3.99,-0.57 5.67,-1.69 0.86,-0.58 1.64,-1.3 2.31,-2.18 -0.67,-0.87 -1.45,-1.6 -2.31,-2.17 -1.69,-1.13 -3.68,-1.69 -5.67,-1.69 -2,0 -3.99,0.56 -5.67,1.69 -0.86,0.57 -1.64,1.3 -2.31,2.17zm-1.06 0c4.23,6.32 13.85,6.32 18.08,0 -4.23,-6.31 -13.85,-6.31 -18.08,0z"/>
   </g>
   <path class="fil1" d="M7.34 9.03c0,2.4 3.39,2.4 3.39,0 0,-2.39 -3.39,-2.39 -3.39,0z"/>
   <g>
    <path class="fil2" d="M10.67 9.03l-0.86 0 0 0 0 -0.03 -0.01 -0.05 0 -0.03 -0.01 -0.04 -0.01 -0.04 -0.01 -0.04 -0.01 -0.03 -0.02 -0.04 -0.01 -0.03 -0.02 -0.03 -0.02 -0.03 -0.01 -0.03 -0.03 -0.04 -0.02 -0.02 -0.02 -0.03 -0.03 -0.03 -0.03 -0.02 -0.02 -0.03 -0.03 -0.02 -0.03 -0.02 -0.03 -0.02 -0.04 -0.02 -0.03 -0.02 -0.03 -0.01 -0.04 -0.02 -0.03 -0.01 -0.04 -0.01 -0.04 -0.01 -0.03 0 -0.04 -0.01 -0.04 0 -0.04 0 0 -0.87 0.08 0 0.09 0.01 0.08 0.01 0.08 0.01 0.08 0.02 0.07 0.02 0.08 0.03 0.07 0.03 0.08 0.03 0.07 0.04 0.07 0.04 0.06 0.04 0.07 0.04 0.06 0.05 0.06 0.05 0.05 0.06 0.06 0.05 0.05 0.06 0.05 0.07 0.04 0.06 0.05 0.07 0.04 0.07 0.03 0.06 0.03 0.08 0.03 0.07 0.03 0.08 0.02 0.08 0.02 0.07 0.01 0.09 0.01 0.08 0.01 0.08 0 0.08 0 0zm-1.63 1.64l0 -0.87 0 0 0.04 0 0.04 0 0.04 -0.01 0.03 -0.01 0.04 -0.01 0.04 -0.01 0.03 -0.01 0.04 -0.01 0.03 -0.02 0.03 -0.01 0.04 -0.02 0.03 -0.02 0.03 -0.02 0.03 -0.02 0.02 -0.03 0.03 -0.02 0.03 -0.03 0.02 -0.03 0.02 -0.03 0.03 -0.03 0.01 -0.03 0.02 -0.03 0.02 -0.03 0.01 -0.04 0.02 -0.03 0.01 -0.04 0.01 -0.03 0.01 -0.04 0.01 -0.04 0 -0.04 0.01 -0.04 0 -0.04 0.86 0 0 0.09 -0.01 0.08 -0.01 0.08 -0.01 0.09 -0.02 0.07 -0.02 0.08 -0.03 0.08 -0.03 0.07 -0.03 0.07 -0.04 0.07 -0.03 0.07 -0.05 0.07 -0.04 0.06 -0.05 0.06 -0.05 0.06 -0.06 0.06 -0.05 0.05 -0.06 0.05 -0.06 0.05 -0.07 0.05 -0.06 0.04 -0.07 0.04 -0.07 0.04 -0.08 0.03 -0.07 0.03 -0.08 0.02 -0.07 0.02 -0.08 0.02 -0.08 0.02 -0.08 0.01 -0.09 0 -0.08 0.01 0 0zm-1.63 -1.64l0.86 0 0 0 0 0.04 0.01 0.04 0 0.04 0.01 0.04 0.01 0.04 0.01 0.03 0.01 0.04 0.01 0.03 0.02 0.04 0.02 0.03 0.01 0.03 0.02 0.03 0.03 0.03 0.02 0.03 0.02 0.03 0.03 0.03 0.02 0.02 0.03 0.03 0.03 0.02 0.03 0.02 0.03 0.02 0.03 0.02 0.04 0.01 0.03 0.02 0.04 0.01 0.03 0.01 0.04 0.01 0.04 0.01 0.03 0.01 0.04 0.01 0.04 0 0.04 0 0 0.87 -0.09 -0.01 -0.08 0 -0.08 -0.01 -0.08 -0.02 -0.08 -0.02 -0.08 -0.02 -0.07 -0.02 -0.07 -0.03 -0.08 -0.03 -0.07 -0.04 -0.07 -0.04 -0.07 -0.04 -0.06 -0.05 -0.06 -0.05 -0.06 -0.05 -0.06 -0.05 -0.05 -0.06 -0.05 -0.06 -0.05 -0.06 -0.04 -0.06 -0.05 -0.07 -0.04 -0.07 -0.03 -0.07 -0.04 -0.07 -0.02 -0.07 -0.03 -0.08 -0.02 -0.08 -0.02 -0.07 -0.02 -0.09 0 -0.08 -0.01 -0.08 0 -0.09 0 0zm1.63 -1.63l0 0.87 0 0 -0.04 0 -0.04 0 -0.04 0.01 -0.03 0 -0.04 0.01 -0.04 0.01 -0.03 0.01 -0.04 0.02 -0.03 0.01 -0.04 0.02 -0.03 0.02 -0.03 0.02 -0.03 0.02 -0.03 0.02 -0.03 0.03 -0.02 0.02 -0.03 0.03 -0.02 0.03 -0.02 0.02 -0.03 0.04 -0.01 0.03 -0.02 0.03 -0.02 0.03 -0.02 0.03 -0.01 0.04 -0.01 0.03 -0.01 0.04 -0.01 0.04 -0.01 0.04 0 0.03 -0.01 0.05 0 0.03 -0.86 0 0 -0.08 0.01 -0.08 0 -0.08 0.02 -0.09 0.02 -0.07 0.02 -0.08 0.03 -0.08 0.02 -0.07 0.04 -0.08 0.03 -0.06 0.04 -0.07 0.05 -0.07 0.04 -0.06 0.05 -0.07 0.05 -0.06 0.05 -0.05 0.06 -0.06 0.06 -0.05 0.06 -0.05 0.06 -0.04 0.07 -0.04 0.07 -0.04 0.07 -0.04 0.08 -0.03 0.07 -0.03 0.07 -0.03 0.08 -0.02 0.08 -0.02 0.08 -0.01 0.08 -0.01 0.08 -0.01 0.09 0 0 0z"/>
   </g>
   <g>
    <path class="fil0" d="M9.04 4.72c2.38,0 4.32,1.93 4.32,4.31 0,2.39 -1.94,4.32 -4.32,4.32 -2.39,0 -4.32,-1.93 -4.32,-4.32 0,-2.38 1.93,-4.31 4.32,-4.31zm3.05 1.26c-0.78,-0.78 -1.86,-1.26 -3.05,-1.26 -1.19,0 -2.27,0.48 -3.05,1.26 -0.78,0.78 -1.27,1.86 -1.27,3.05 0,1.2 0.49,2.28 1.27,3.06 0.78,0.77 1.86,1.26 3.05,1.26 1.19,0 2.27,-0.49 3.05,-1.26 0.78,-0.78 1.26,-1.86 1.26,-3.06 0,-1.19 -0.48,-2.27 -1.26,-3.05z"/>
   </g>
   <g>
    <g>
     <g>
      <polygon class="fil0" points="9.04,1.66 9.04,0.45 "/>
      <path id="1" class="fil2" d="M9.49 0.45l0 1.21 -0.9 0 0 -1.21 0.9 0zm-0.9 0c0,-0.25 0.2,-0.45 0.45,-0.45 0.25,0 0.45,0.2 0.45,0.45l-0.9 0zm0 1.21l0 -1.21 0.9 0 0 1.21 -0.9 0zm0.9 0c0,0.25 -0.2,0.45 -0.45,0.45 -0.25,0 -0.45,-0.2 -0.45,-0.45l0.9 0z"/>
     </g>
     <g>
      <polygon class="fil0" points="12.58,2.38 13.08,1.27 "/>
      <path id="1" class="fil2" d="M13.49 1.46l-0.5 1.1 -0.82 -0.37 0.5 -1.1 0.82 0.37zm-0.82 -0.37c0.1,-0.23 0.37,-0.33 0.6,-0.23 0.22,0.1 0.32,0.37 0.22,0.6l-0.82 -0.37zm-0.5 1.1l0.5 -1.1 0.82 0.37 -0.5 1.1 -0.82 -0.37zm0.82 0.37c-0.1,0.23 -0.37,0.33 -0.6,0.23 -0.22,-0.11 -0.32,-0.37 -0.22,-0.6l0.82 0.37z"/>
     </g>
     <g>
      <polygon class="fil0" points="5.5,2.38 5,1.27 "/>
      <path id="1" class="fil2" d="M4.59 1.46l0.82 -0.37 0 0 0.5 1.1 -0.82 0.37 -0.5 -1.1zm0.82 -0.37l-0.82 0.37c-0.1,-0.23 0,-0.5 0.22,-0.6 0.23,-0.1 0.5,0 0.6,0.23zm0.5 1.1l-0.82 0.37 0 0 -0.5 -1.1 0.82 -0.37 0.5 1.1zm-0.82 0.37l0.82 -0.37c0.1,0.22 0,0.49 -0.22,0.6 -0.23,0.1 -0.5,0 -0.6,-0.23z"/>
     </g>
    </g>
    <g>
     <g>
      <polygon class="fil0" points="9.04,16.41 9.04,17.62 "/>
      <path id="1" class="fil2" d="M9.49 17.62l-0.9 0 0 0 0 -1.21 0.9 0 0 1.21zm-0.9 0l0.9 0c0,0.24 -0.2,0.45 -0.45,0.45 -0.25,0 -0.45,-0.21 -0.45,-0.45zm0 -1.21l0.9 0 0 0 0 1.21 -0.9 0 0 -1.21zm0.9 0l-0.9 0c0,-0.25 0.2,-0.46 0.45,-0.46 0.25,0 0.45,0.21 0.45,0.46z"/>
     </g>
     <g>
      <polygon class="fil0" points="12.58,15.69 13.08,16.79 "/>
      <path id="1" class="fil2" d="M13.49 16.61l-0.82 0.37 0 0 -0.5 -1.1 0.82 -0.37 0.5 1.1zm-0.82 0.37l0.82 -0.37c0.1,0.22 0,0.49 -0.22,0.59 -0.23,0.11 -0.5,0.01 -0.6,-0.22zm-0.5 -1.1l0.82 -0.37 0 0 0.5 1.1 -0.82 0.37 -0.5 -1.1zm0.82 -0.37l-0.82 0.37c-0.1,-0.23 0,-0.5 0.22,-0.6 0.23,-0.1 0.5,0 0.6,0.23z"/>
     </g>
     <g>
      <polygon class="fil0" points="5.5,15.69 5,16.79 "/>
      <path id="1" class="fil2" d="M4.59 16.61l0.5 -1.1 0.82 0.37 -0.5 1.1 -0.82 -0.37zm0.82 0.37c-0.1,0.23 -0.37,0.33 -0.6,0.22 -0.22,-0.1 -0.32,-0.37 -0.22,-0.59l0.82 0.37zm0.5 -1.1l-0.5 1.1 -0.82 -0.37 0.5 -1.1 0.82 0.37zm-0.82 -0.37c0.1,-0.23 0.37,-0.33 0.6,-0.23 0.22,0.1 0.32,0.37 0.22,0.6l-0.82 -0.37z"/>
     </g>
    </g>
   </g>
  </g>
 </g>
</svg>
