<?xml version="1.0" encoding="UTF-8"?>
<!DOCTYPE svg PUBLIC "-//W3C//DTD SVG 1.1//EN" "http://www.w3.org/Graphics/SVG/1.1/DTD/svg11.dtd">
<!-- Creator: CorelDRAW 2019 (64-Bit) -->
<svg xmlns="http://www.w3.org/2000/svg" xml:space="preserve" width="34px" height="34px" version="1.1" style="shape-rendering:geometricPrecision; text-rendering:geometricPrecision; image-rendering:optimizeQuality; fill-rule:evenodd; clip-rule:evenodd"
viewBox="0 0 3.088 3.088"
 xmlns:xlink="http://www.w3.org/1999/xlink">
 <defs>
  <style type="text/css">
   <![CDATA[
    .fil2 {fill:white}
    .fil1 {fill:white;fill-rule:nonzero}
    .fil0 {fill:url(#id0);fill-rule:nonzero}
   ]]>
  </style>
  <linearGradient id="id0" gradientUnits="userSpaceOnUse" x1="3.088" y1="0" x2="0" y2="3.088">
   <stop offset="0" style="stop-opacity:1; stop-color:#60FB7C"/>
   <stop offset="1" style="stop-opacity:1; stop-color:#49B160"/>
  </linearGradient>
 </defs>
 <g id="Layer_x0020_1">
  <metadata id="CorelCorpID_0Corel-Layer"/>
  <g id="_2789096133040">
   <path class="fil0" d="M0 2.28l0 -1.472c0,-0.445 0.363,-0.808 0.808,-0.808l1.472 0c0.444,0 0.808,0.363 0.808,0.808l0 1.472c0,0.444 -0.364,0.808 -0.808,0.808l-1.472 0c-0.445,0 -0.808,-0.364 -0.808,-0.808z"/>
   <path class="fil1" d="M0.71 2.418l0.128 -0.481c-0.072,-0.131 -0.111,-0.279 -0.111,-0.428 0,-0.489 0.398,-0.887 0.887,-0.887 0.489,0 0.887,0.398 0.887,0.887 0,0.489 -0.398,0.887 -0.887,0.887 -0.147,0 -0.292,-0.037 -0.421,-0.108l-0.483 0.13zm0.506 -0.31l0 0 0.031 0.018c0.112,0.067 0.238,0.102 0.367,0.102 0.397,0 0.719,-0.323 0.719,-0.719 0,-0.397 -0.322,-0.719 -0.719,-0.719 -0.396,0 -0.719,0.322 -0.719,0.719 0,0.131 0.036,0.26 0.105,0.373l0.019 0.03 -0.072 0.269 0.269 -0.073z"/>
   <path class="fil2" d="M1.944 1.632c-0.037,-0.022 -0.084,-0.046 -0.127,-0.028 -0.033,0.013 -0.054,0.065 -0.075,0.091 -0.011,0.014 -0.025,0.016 -0.041,0.009 -0.124,-0.049 -0.219,-0.132 -0.288,-0.246 -0.011,-0.018 -0.009,-0.032 0.005,-0.048 0.021,-0.024 0.047,-0.052 0.052,-0.085 0.006,-0.032 -0.01,-0.071 -0.023,-0.1 -0.018,-0.037 -0.037,-0.09 -0.074,-0.111 -0.034,-0.02 -0.08,-0.009 -0.11,0.016 -0.053,0.043 -0.079,0.11 -0.078,0.177 0,0.019 0.003,0.038 0.007,0.056 0.011,0.044 0.031,0.085 0.054,0.124 0.017,0.03 0.036,0.059 0.056,0.086 0.067,0.09 0.149,0.168 0.244,0.227 0.048,0.029 0.099,0.054 0.153,0.072 0.059,0.02 0.112,0.04 0.177,0.028 0.067,-0.013 0.134,-0.055 0.16,-0.12 0.008,-0.019 0.012,-0.04 0.008,-0.06 -0.009,-0.042 -0.066,-0.067 -0.1,-0.088z"/>
  </g>
 </g>
</svg>
